<svg width="274" height="180" viewBox="0 0 274 180" fill="none" xmlns="http://www.w3.org/2000/svg">
<path d="M197.637 164.302C200.132 164.302 202.059 166.229 202.059 168.724C202.059 171.218 200.132 173.146 197.637 173.146C195.143 173.146 193.215 171.218 193.215 168.724C193.215 166.229 195.143 164.302 197.637 164.302ZM11.2255 164.302C13.7201 164.302 15.6477 166.229 15.6477 168.724C15.6477 171.218 13.7201 173.146 11.2255 173.146C8.73096 173.146 6.80335 171.218 6.80335 168.724C6.80335 166.229 8.73097 164.302 11.2255 164.302ZM197.637 6.80402C200.132 6.80402 202.059 8.73165 202.059 11.2262C202.059 13.7208 200.132 15.6484 197.637 15.6484C195.143 15.6484 193.215 13.7208 193.215 11.2262C193.215 8.73165 195.143 6.80402 197.637 6.80402ZM11.2255 6.804C13.7201 6.804 15.6477 8.73162 15.6477 11.2262C15.6477 13.7207 13.7201 15.6484 11.2255 15.6484C8.73099 15.6484 6.80337 13.7207 6.80337 11.2262C6.80337 8.73162 8.73099 6.804 11.2255 6.804ZM9.6381 0.000648252C4.30881 0.000647553 2.30324e-05 4.30943 2.23335e-05 9.63872L1.26388e-06 170.311C5.65029e-07 175.64 4.30879 179.949 9.63808 179.949L263.516 179.949C268.846 179.949 273.154 175.64 273.154 170.311L273.154 9.63876C273.154 4.30947 268.846 0.000682243 263.516 0.000681544L9.6381 0.000648252Z" fill="#047C63"/>
<path d="M28.8578 14.1331C28.8578 12.8297 27.8012 11.773 26.4978 11.773C25.1943 11.773 24.1377 12.8297 24.1377 14.1331C24.1377 15.4365 25.1943 16.4932 26.4978 16.4932C27.8012 16.4932 28.8578 15.4365 28.8578 14.1331Z" stroke="#F4B819" stroke-width="0.400011"/>
<path d="M37.017 14.1331C37.017 12.8297 35.9604 11.773 34.6569 11.773C33.3535 11.773 32.2969 12.8297 32.2969 14.1331C32.2969 15.4365 33.3535 16.4932 34.6569 16.4932C35.9604 16.4932 37.017 15.4365 37.017 14.1331Z" stroke="#F4B819" stroke-width="0.400011"/>
<path d="M45.1752 14.1331C45.1752 12.8297 44.1186 11.773 42.8151 11.773C41.5117 11.773 40.4551 12.8297 40.4551 14.1331C40.4551 15.4365 41.5117 16.4932 42.8151 16.4932C44.1186 16.4932 45.1752 15.4365 45.1752 14.1331Z" stroke="#F4B819" stroke-width="0.400011"/>
<path d="M53.3432 14.1331C53.3432 12.8297 52.2865 11.773 50.9831 11.773C49.6797 11.773 48.623 12.8297 48.623 14.1331C48.623 15.4365 49.6797 16.4932 50.9831 16.4932C52.2865 16.4932 53.3432 15.4365 53.3432 14.1331Z" stroke="#F4B819" stroke-width="0.400011"/>
<path d="M61.5014 14.1331C61.5014 12.8297 60.4447 11.773 59.1413 11.773C57.8379 11.773 56.7813 12.8297 56.7813 14.1331C56.7813 15.4365 57.8379 16.4932 59.1413 16.4932C60.4447 16.4932 61.5014 15.4365 61.5014 14.1331Z" stroke="#F4B819" stroke-width="0.400011"/>
<path d="M69.6606 14.1331C69.6606 12.8297 68.6039 11.773 67.3005 11.773C65.9971 11.773 64.9404 12.8297 64.9404 14.1331C64.9404 15.4365 65.9971 16.4932 67.3005 16.4932C68.6039 16.4932 69.6606 15.4365 69.6606 14.1331Z" stroke="#F4B819" stroke-width="0.400011"/>
<path d="M77.8188 14.1331C77.8188 12.8297 76.7621 11.773 75.4587 11.773C74.1553 11.773 73.0986 12.8297 73.0986 14.1331C73.0986 15.4365 74.1553 16.4932 75.4587 16.4932C76.7621 16.4932 77.8188 15.4365 77.8188 14.1331Z" stroke="#F4B819" stroke-width="0.400011"/>
<path d="M85.9779 14.1331C85.9779 12.8297 84.9213 11.773 83.6179 11.773C82.3145 11.773 81.2578 12.8297 81.2578 14.1331C81.2578 15.4365 82.3145 16.4932 83.6179 16.4932C84.9213 16.4932 85.9779 15.4365 85.9779 14.1331Z" stroke="#F4B819" stroke-width="0.400011"/>
<path d="M94.1811 14.1331C94.1811 12.8297 93.1244 11.773 91.821 11.773C90.5176 11.773 89.4609 12.8297 89.4609 14.1331C89.4609 15.4365 90.5176 16.4932 91.821 16.4932C93.1244 16.4932 94.1811 15.4365 94.1811 14.1331Z" stroke="#F4B819" stroke-width="0.400011"/>
<path d="M102.339 14.1331C102.339 12.8297 101.283 11.773 99.9792 11.773C98.6758 11.773 97.6191 12.8297 97.6191 14.1331C97.6191 15.4365 98.6758 16.4932 99.9792 16.4932C101.283 16.4932 102.339 15.4365 102.339 14.1331Z" stroke="#F4B819" stroke-width="0.400011"/>
<path d="M110.498 14.1331C110.498 12.8297 109.442 11.773 108.138 11.773C106.835 11.773 105.778 12.8297 105.778 14.1331C105.778 15.4365 106.835 16.4932 108.138 16.4932C109.442 16.4932 110.498 15.4365 110.498 14.1331Z" stroke="#F4B819" stroke-width="0.400011"/>
<path d="M118.657 14.1331C118.657 12.8297 117.6 11.773 116.297 11.773C114.993 11.773 113.937 12.8297 113.937 14.1331C113.937 15.4365 114.993 16.4932 116.297 16.4932C117.6 16.4932 118.657 15.4365 118.657 14.1331Z" stroke="#F4B819" stroke-width="0.400011"/>
<path d="M126.825 14.1331C126.825 12.8297 125.768 11.773 124.465 11.773C123.161 11.773 122.104 12.8297 122.104 14.1331C122.104 15.4365 123.161 16.4932 124.465 16.4932C125.768 16.4932 126.825 15.4365 126.825 14.1331Z" stroke="#F4B819" stroke-width="0.400011"/>
<path d="M134.983 14.1331C134.983 12.8297 133.926 11.773 132.623 11.773C131.319 11.773 130.263 12.8297 130.263 14.1331C130.263 15.4365 131.319 16.4932 132.623 16.4932C133.926 16.4932 134.983 15.4365 134.983 14.1331Z" stroke="#F4B819" stroke-width="0.400011"/>
<path d="M143.142 14.1331C143.142 12.8297 142.085 11.773 140.782 11.773C139.479 11.773 138.422 12.8297 138.422 14.1331C138.422 15.4365 139.479 16.4932 140.782 16.4932C142.085 16.4932 143.142 15.4365 143.142 14.1331Z" stroke="#F4B819" stroke-width="0.400011"/>
<path d="M151.3 14.1331C151.3 12.8297 150.244 11.773 148.94 11.773C147.637 11.773 146.58 12.8297 146.58 14.1331C146.58 15.4365 147.637 16.4932 148.94 16.4932C150.244 16.4932 151.3 15.4365 151.3 14.1331Z" stroke="#F4B819" stroke-width="0.400011"/>
<path d="M159.459 14.1331C159.459 12.8297 158.403 11.773 157.099 11.773C155.796 11.773 154.739 12.8297 154.739 14.1331C154.739 15.4365 155.796 16.4932 157.099 16.4932C158.403 16.4932 159.459 15.4365 159.459 14.1331Z" stroke="#F4B819" stroke-width="0.400011"/>
<path d="M167.618 14.1331C167.618 12.8297 166.561 11.773 165.258 11.773C163.954 11.773 162.897 12.8297 162.897 14.1331C162.897 15.4365 163.954 16.4932 165.258 16.4932C166.561 16.4932 167.618 15.4365 167.618 14.1331Z" stroke="#F4B819" stroke-width="0.400011"/>
<path d="M175.786 14.1331C175.786 12.8297 174.729 11.773 173.426 11.773C172.122 11.773 171.065 12.8297 171.065 14.1331C171.065 15.4365 172.122 16.4932 173.426 16.4932C174.729 16.4932 175.786 15.4365 175.786 14.1331Z" stroke="#F4B819" stroke-width="0.400011"/>
<path d="M183.98 14.1331C183.98 12.8297 182.923 11.773 181.62 11.773C180.316 11.773 179.26 12.8297 179.26 14.1331C179.26 15.4365 180.316 16.4932 181.62 16.4932C182.923 16.4932 183.98 15.4365 183.98 14.1331Z" stroke="#F4B819" stroke-width="0.400011"/>
<path d="M183.98 5.97392C183.98 4.67049 182.923 3.61384 181.62 3.61384C180.316 3.61384 179.26 4.67049 179.26 5.97392C179.26 7.27735 180.316 8.33398 181.62 8.33398C182.923 8.33398 183.98 7.27735 183.98 5.97392Z" stroke="#F4B819" stroke-width="0.400011"/>
<path d="M175.786 5.97392C175.786 4.67049 174.729 3.61384 173.426 3.61384C172.122 3.61384 171.065 4.67049 171.065 5.97392C171.065 7.27735 172.122 8.33398 173.426 8.33398C174.729 8.33398 175.786 7.27735 175.786 5.97392Z" stroke="#F4B819" stroke-width="0.400011"/>
<path d="M167.618 5.97392C167.618 4.67049 166.561 3.61384 165.258 3.61384C163.954 3.61384 162.897 4.67049 162.897 5.97392C162.897 7.27735 163.954 8.33398 165.258 8.33398C166.561 8.33398 167.618 7.27735 167.618 5.97392Z" stroke="#F4B819" stroke-width="0.400011"/>
<path d="M159.459 5.97392C159.459 4.67049 158.403 3.61384 157.099 3.61384C155.796 3.61384 154.739 4.67049 154.739 5.97392C154.739 7.27735 155.796 8.33398 157.099 8.33398C158.403 8.33398 159.459 7.27735 159.459 5.97392Z" stroke="#F4B819" stroke-width="0.400011"/>
<path d="M151.3 5.97392C151.3 4.67049 150.244 3.61384 148.94 3.61384C147.637 3.61384 146.58 4.67049 146.58 5.97392C146.58 7.27735 147.637 8.33398 148.94 8.33398C150.244 8.33398 151.3 7.27735 151.3 5.97392Z" stroke="#F4B819" stroke-width="0.400011"/>
<path d="M143.142 5.97392C143.142 4.67049 142.085 3.61384 140.782 3.61384C139.479 3.61384 138.422 4.67049 138.422 5.97392C138.422 7.27735 139.479 8.33398 140.782 8.33398C142.085 8.33398 143.142 7.27735 143.142 5.97392Z" stroke="#F4B819" stroke-width="0.400011"/>
<path d="M134.983 5.97392C134.983 4.67049 133.926 3.61384 132.623 3.61384C131.319 3.61384 130.263 4.67049 130.263 5.97392C130.263 7.27735 131.319 8.33398 132.623 8.33398C133.926 8.33398 134.983 7.27735 134.983 5.97392Z" stroke="#F4B819" stroke-width="0.400011"/>
<path d="M126.825 5.97392C126.825 4.67049 125.768 3.61384 124.465 3.61384C123.161 3.61384 122.104 4.67049 122.104 5.97392C122.104 7.27735 123.161 8.33398 124.465 8.33398C125.768 8.33398 126.825 7.27735 126.825 5.97392Z" stroke="#F4B819" stroke-width="0.400011"/>
<path d="M118.657 5.97392C118.657 4.67049 117.6 3.61384 116.297 3.61384C114.993 3.61384 113.937 4.67049 113.937 5.97392C113.937 7.27735 114.993 8.33398 116.297 8.33398C117.6 8.33398 118.657 7.27735 118.657 5.97392Z" stroke="#F4B819" stroke-width="0.400011"/>
<path d="M110.498 5.97392C110.498 4.67049 109.442 3.61384 108.138 3.61384C106.835 3.61384 105.778 4.67049 105.778 5.97392C105.778 7.27735 106.835 8.33398 108.138 8.33398C109.442 8.33398 110.498 7.27735 110.498 5.97392Z" stroke="#F4B819" stroke-width="0.400011"/>
<path d="M102.339 5.97392C102.339 4.67049 101.283 3.61384 99.9792 3.61384C98.6758 3.61384 97.6191 4.67049 97.6191 5.97392C97.6191 7.27735 98.6758 8.33398 99.9792 8.33398C101.283 8.33398 102.339 7.27735 102.339 5.97392Z" stroke="#F4B819" stroke-width="0.400011"/>
<path d="M94.1811 5.97392C94.1811 4.67049 93.1244 3.61384 91.821 3.61384C90.5176 3.61384 89.4609 4.67049 89.4609 5.97392C89.4609 7.27735 90.5176 8.33398 91.821 8.33398C93.1244 8.33398 94.1811 7.27735 94.1811 5.97392Z" stroke="#F4B819" stroke-width="0.400011"/>
<path d="M85.9779 5.97392C85.9779 4.67049 84.9213 3.61384 83.6179 3.61384C82.3145 3.61384 81.2578 4.67049 81.2578 5.97392C81.2578 7.27735 82.3145 8.33398 83.6179 8.33398C84.9213 8.33398 85.9779 7.27735 85.9779 5.97392Z" stroke="#F4B819" stroke-width="0.400011"/>
<path d="M77.8188 5.97392C77.8188 4.67049 76.7621 3.61384 75.4587 3.61384C74.1553 3.61384 73.0986 4.67049 73.0986 5.97392C73.0986 7.27735 74.1553 8.33398 75.4587 8.33398C76.7621 8.33398 77.8188 7.27735 77.8188 5.97392Z" stroke="#F4B819" stroke-width="0.400011"/>
<path d="M69.6606 5.97392C69.6606 4.67049 68.6039 3.61384 67.3005 3.61384C65.9971 3.61384 64.9404 4.67049 64.9404 5.97392C64.9404 7.27735 65.9971 8.33398 67.3005 8.33398C68.6039 8.33398 69.6606 7.27735 69.6606 5.97392Z" stroke="#F4B819" stroke-width="0.400011"/>
<path d="M61.5014 5.97392C61.5014 4.67049 60.4447 3.61384 59.1413 3.61384C57.8379 3.61384 56.7813 4.67049 56.7813 5.97392C56.7813 7.27735 57.8379 8.33398 59.1413 8.33398C60.4447 8.33398 61.5014 7.27735 61.5014 5.97392Z" stroke="#F4B819" stroke-width="0.400011"/>
<path d="M53.3432 5.97392C53.3432 4.67049 52.2865 3.61384 50.9831 3.61384C49.6797 3.61384 48.623 4.67049 48.623 5.97392C48.623 7.27735 49.6797 8.33398 50.9831 8.33398C52.2865 8.33398 53.3432 7.27735 53.3432 5.97392Z" stroke="#F4B819" stroke-width="0.400011"/>
<path d="M45.1752 5.97392C45.1752 4.67049 44.1186 3.61384 42.8151 3.61384C41.5117 3.61384 40.4551 4.67049 40.4551 5.97392C40.4551 7.27735 41.5117 8.33398 42.8151 8.33398C44.1186 8.33398 45.1752 7.27735 45.1752 5.97392Z" stroke="#F4B819" stroke-width="0.400011"/>
<path d="M37.017 5.97392C37.017 4.67049 35.9604 3.61384 34.6569 3.61384C33.3535 3.61384 32.2969 4.67049 32.2969 5.97392C32.2969 7.27735 33.3535 8.33398 34.6569 8.33398C35.9604 8.33398 37.017 7.27735 37.017 5.97392Z" stroke="#F4B819" stroke-width="0.400011"/>
<path d="M28.8578 5.97392C28.8578 4.67049 27.8012 3.61384 26.4978 3.61384C25.1943 3.61384 24.1377 4.67049 24.1377 5.97392C24.1377 7.27735 25.1943 8.33398 26.4978 8.33398C27.8012 8.33398 28.8578 7.27735 28.8578 5.97392Z" stroke="#F4B819" stroke-width="0.400011"/>
<path d="M30.6661 9.93555L30.6661 3.89537L28.9061 2.17533L24.306 2.17533L22.5459 3.89537L22.5459 9.93555" fill="#BD3736"/>
<path d="M30.6661 9.93509L30.6661 15.9753L28.9061 17.6953L24.3059 17.6953L22.5459 15.9753L22.5459 9.93509" fill="#EEE93A"/>
<path d="M38.8253 9.93555L38.8253 3.89537L37.0653 2.17533L32.4651 2.17533L30.7051 3.89537L30.7051 9.93555" fill="#BD3736"/>
<path d="M38.8253 9.93509L38.8253 15.9753L37.0653 17.6953L32.4651 17.6953L30.7051 15.9753L30.7051 9.93509" fill="#68BD85"/>
<path d="M46.9835 9.93555L46.9835 3.89537L45.2235 2.17533L40.6233 2.17533L38.8633 3.89537L38.8633 9.93555" fill="#404040"/>
<path d="M46.9835 9.93509L46.9835 15.9753L45.2235 17.6953L40.6233 17.6953L38.8633 15.9753L38.8633 9.93509" fill="#68BD85"/>
<path d="M55.1866 9.93555L55.1866 3.89537L53.4266 2.17533L48.8265 2.17533L47.0664 3.89537L47.0664 9.93555" fill="#68BD85"/>
<path d="M55.1866 9.93509L55.1866 15.9753L53.4266 17.6953L48.8265 17.6953L47.0664 15.9753L47.0664 9.93509" fill="#68BD85"/>
<path d="M63.3448 9.93555L63.3448 3.89537L61.5848 2.17533L56.9847 2.17533L55.2246 3.89537L55.2246 9.93555" fill="#68BD85"/>
<path d="M63.3497 9.93506L63.3497 15.9752L61.5496 17.6553L56.9495 17.6553L55.1895 15.9352L55.1895 9.89505" fill="#404040"/>
<path d="M71.5089 9.93555L71.5089 3.89537L69.7488 2.17533L65.1087 2.17533L63.3486 3.89537L63.3486 9.93555" fill="#68BD85"/>
<path d="M71.5089 9.93509L71.5089 15.9753L69.7488 17.6953L65.1087 17.6953L63.3486 15.9753L63.3486 9.93509" fill="#68BD85"/>
<path d="M79.6671 9.93555L79.6671 3.89537L77.907 2.17533L73.2669 2.17533L71.5068 3.89537L71.5068 9.93555" fill="#404040"/>
<path d="M79.6671 9.93509L79.6671 15.9753L77.907 17.6953L73.2669 17.6953L71.5068 15.9753L71.5068 9.93509" fill="#68BD85"/>
<path d="M87.8263 9.93555L87.8263 3.89537L86.0662 2.17533L81.4261 2.17533L79.666 3.89537L79.666 9.93555" fill="#68BD85"/>
<path d="M87.8263 9.93509L87.8263 15.9753L86.0662 17.6953L81.4261 17.6953L79.666 15.9753L79.666 9.93509" fill="#68BD85"/>
<path d="M95.9845 9.93555L95.9845 3.89537L94.2244 2.17533L89.5843 2.17533L87.8242 3.89537L87.8242 9.93555" fill="#68BD85"/>
<path d="M95.9845 9.93509L95.9845 15.9753L94.2244 17.6953L89.5843 17.6953L87.8242 15.9753L87.8242 9.93509" fill="#EEE93A"/>
<path d="M104.152 9.93555L104.152 3.89537L102.392 2.17533L97.7522 2.17533L95.9922 3.89537L95.9922 9.93555" fill="#404040"/>
<path d="M104.152 9.93509L104.152 15.9753L102.392 17.6953L97.7522 17.6953L95.9922 15.9753L95.9922 9.93509" fill="#68BD85"/>
<path d="M112.307 9.93555L112.307 3.89537L110.547 2.17533L105.947 2.17533L104.187 3.89537L104.187 9.93555" fill="#68BD85"/>
<path d="M112.307 9.93509L112.307 15.9753L110.547 17.6953L105.947 17.6953L104.187 15.9753L104.187 9.93509" fill="#68BD85"/>
<path d="M120.465 9.93555L120.465 3.89537L118.705 2.17533L114.105 2.17533L112.345 3.89537L112.345 9.93555" fill="#68BD85"/>
<path d="M120.465 9.93509L120.465 15.9753L118.705 17.6953L114.105 17.6953L112.345 15.9753L112.345 9.93509" fill="#68BD85"/>
<path d="M128.633 9.93555L128.633 3.89537L126.873 2.17533L122.273 2.17533L120.513 3.89537L120.513 9.93555" fill="#68BD85"/>
<path d="M128.633 9.93509L128.633 15.9753L126.873 17.6953L122.273 17.6953L120.513 15.9753L120.513 9.93509" fill="#404040"/>
<path d="M136.791 9.93555L136.791 3.89537L135.031 2.17533L130.431 2.17533L128.671 3.89537L128.671 9.93555" fill="#4CBFE5"/>
<path d="M136.791 9.93509L136.791 15.9753L135.031 17.6953L130.431 17.6953L128.671 15.9753L128.671 9.93509" fill="#4CBFE5"/>
<path d="M144.95 9.93509L144.95 15.9753L143.19 17.6953L138.59 17.6953L136.83 15.9753L136.83 9.93509" fill="#68BD85"/>
<path d="M153.109 9.93555L153.109 3.89537L151.348 2.17533L146.748 2.17533L144.988 3.89537L144.988 9.93555" fill="#68BD85"/>
<path d="M153.109 9.93509L153.109 15.9753L151.348 17.6953L146.748 17.6953L144.988 15.9753L144.988 9.93509" fill="#68BD85"/>
<path d="M161.268 9.93555L161.268 3.89537L159.508 2.17533L154.908 2.17533L153.147 3.89537L153.147 9.93555" fill="#404040"/>
<path d="M161.268 9.93509L161.268 15.9753L159.508 17.6953L154.908 17.6953L153.147 15.9753L153.147 9.93509" fill="#68BD85"/>
<path d="M169.426 9.93555L169.426 3.89537L167.666 2.17533L163.066 2.17533L161.306 3.89537L161.306 9.93555" fill="#68BD85"/>
<path d="M169.426 9.93509L169.426 15.9753L167.666 17.6953L163.066 17.6953L161.306 15.9753L161.306 9.93509" fill="#68BD85"/>
<path d="M177.594 9.93555L177.594 3.89537L175.834 2.17533L171.234 2.17533L169.474 3.89537L169.474 9.93555" fill="#68BD85"/>
<path d="M177.594 9.93509L177.594 15.9753L175.834 17.6953L171.234 17.6953L169.474 15.9753L169.474 9.93509" fill="#68BD85"/>
<path d="M185.788 9.93555L185.788 3.89537L184.028 2.17533L179.428 2.17533L177.668 3.89537L177.668 9.93555" fill="#68BD85"/>
<path d="M185.788 9.93509L185.788 15.9753L184.028 17.6953L179.428 17.6953L177.668 15.9753L177.668 9.93509" fill="#404040"/>
<path d="M25.8232 5.2532L25.8232 6.57324L27.1833 6.57324L27.1833 5.2532L25.8232 5.2532Z" fill="#898362"/>
<path d="M25.8256 5.25577L25.1855 4.61575L25.1855 7.21582L25.8256 6.57581L25.8256 5.25577Z" fill="#B4AB80"/>
<path d="M25.1855 4.61389L27.8256 4.61389L27.1856 5.25391L25.8256 5.25391L25.1855 4.61389Z" fill="#7E785A"/>
<path d="M27.8275 4.61575L27.8275 7.21582L27.1875 6.57581L27.1875 5.25577L27.8275 4.61575Z" fill="#5D5B42"/>
<path d="M27.8256 7.21582L25.1855 7.21582L25.8256 6.57581L27.1856 6.57581L27.8256 7.21582Z" fill="#978E6B"/>
<path d="M25.8232 13.3763L25.8232 14.7363L27.1833 14.7363L27.1833 13.3763L25.8232 13.3763Z" fill="#898362"/>
<path d="M25.8256 13.414L25.1855 12.7739L25.1855 15.374L25.8256 14.734L25.8256 13.414Z" fill="#B4AB80"/>
<path d="M25.1855 12.777L27.8256 12.777L27.1856 13.417L25.8256 13.417L25.1855 12.777Z" fill="#7E785A"/>
<path d="M27.8275 12.7739L27.8275 15.374L27.1875 14.734L27.1875 13.414L27.8275 12.7739Z" fill="#5D5B42"/>
<path d="M25.8256 14.734L27.1856 14.734L27.8256 15.374L25.1855 15.374L25.8256 14.734Z" fill="#978E6B"/>
<path d="M33.9902 5.2532L33.9902 6.57324L35.3503 6.57324L35.3503 5.2532L33.9902 5.2532Z" fill="#898362"/>
<path d="M33.3877 4.61477L33.3877 7.21484L33.9877 6.57484L33.9877 5.25479L33.3877 4.61477Z" fill="#B4AB80"/>
<path d="M35.9878 4.61291L35.3478 5.25293L33.9877 5.25293L33.3877 4.61291L35.9878 4.61291Z" fill="#7E785A"/>
<path d="M35.9857 7.21484L35.3457 6.57484L35.3457 5.25479L35.9857 4.61477L35.9857 7.21484Z" fill="#5D5B42"/>
<path d="M33.3877 7.21484L33.9877 6.57484L35.3478 6.57484L35.9878 7.21484L33.3877 7.21484Z" fill="#978E6B"/>
<path d="M33.9902 13.3763L33.9902 14.7363L35.3503 14.7363L35.3503 13.3763L33.9902 13.3763Z" fill="#898362"/>
<path d="M33.3877 12.7739L33.3877 15.374L33.9877 14.734L33.9877 13.414L33.3877 12.7739Z" fill="#B4AB80"/>
<path d="M35.9878 12.7721L35.3478 13.4121L33.9877 13.4121L33.3877 12.7721L35.9878 12.7721Z" fill="#7E785A"/>
<path d="M35.9857 15.374L35.3457 14.734L35.3457 13.414L35.9857 12.7739L35.9857 15.374Z" fill="#5D5B42"/>
<path d="M35.3478 14.734L35.9878 15.374L33.3877 15.374L33.9877 14.734L35.3478 14.734Z" fill="#978E6B"/>
<path d="M42.1436 5.2532L42.1436 6.57324L43.5036 6.57324L43.5036 5.2532L42.1436 5.2532Z" fill="#898362"/>
<path d="M42.141 5.25479L41.541 4.61477L41.541 7.21484L42.141 6.57484L42.141 5.25479Z" fill="#B4AB80"/>
<path d="M41.541 4.61291L44.1411 4.61291L43.5011 5.25293L42.141 5.25293L41.541 4.61291Z" fill="#7E785A"/>
<path d="M44.139 4.61477L44.139 7.21484L43.499 6.57484L43.499 5.25479L44.139 4.61477Z" fill="#5D5B42"/>
<path d="M44.1411 7.21484L41.541 7.21484L42.141 6.57484L43.5011 6.57484L44.1411 7.21484Z" fill="#978E6B"/>
<path d="M42.1436 13.3763L42.1436 14.7363L43.5036 14.7363L43.5036 13.3763L42.1436 13.3763Z" fill="#898362"/>
<path d="M42.141 13.414L41.541 12.7739L41.541 15.374L42.141 14.734L42.141 13.414Z" fill="#B4AB80"/>
<path d="M41.541 12.7721L44.1411 12.7721L43.5011 13.4121L42.141 13.4121L41.541 12.7721Z" fill="#7E785A"/>
<path d="M44.139 12.7739L44.139 15.374L43.499 14.734L43.499 13.414L44.139 12.7739Z" fill="#5D5B42"/>
<path d="M42.141 14.734L43.5011 14.734L44.1411 15.374L41.541 15.374L42.141 14.734Z" fill="#978E6B"/>
<path d="M50.3398 5.2532L50.3398 6.57324L51.6999 6.57324L51.6999 5.2532L50.3398 5.2532Z" fill="#898362"/>
<path d="M49.7021 4.61477L49.7021 7.21484L50.3422 6.57484L50.3422 5.25479L49.7021 4.61477Z" fill="#B4AB80"/>
<path d="M52.3022 4.61291L51.6622 5.25293L50.3422 5.25293L49.7021 4.61291L52.3022 4.61291Z" fill="#7E785A"/>
<path d="M52.3002 7.21484L51.6602 6.57484L51.6602 5.25479L52.3002 4.61477L52.3002 7.21484Z" fill="#5D5B42"/>
<path d="M49.7021 7.21484L50.3422 6.57484L51.6622 6.57484L52.3022 7.21484L49.7021 7.21484Z" fill="#978E6B"/>
<path d="M50.3398 13.3763L50.3398 14.7363L51.6999 14.7363L51.6999 13.3763L50.3398 13.3763Z" fill="#898362"/>
<path d="M49.7021 12.7739L49.7021 15.374L50.3422 14.734L50.3422 13.414L49.7021 12.7739Z" fill="#B4AB80"/>
<path d="M52.3022 12.7721L51.6622 13.4121L50.3422 13.4121L49.7021 12.7721L52.3022 12.7721Z" fill="#7E785A"/>
<path d="M52.3002 15.374L51.6602 14.734L51.6602 13.414L52.3002 12.7739L52.3002 15.374Z" fill="#5D5B42"/>
<path d="M51.6622 14.734L52.3022 15.374L49.7021 15.374L50.3422 14.734L51.6622 14.734Z" fill="#978E6B"/>
<path d="M58.501 5.2532L58.501 6.57324L59.861 6.57324L59.861 5.2532L58.501 5.2532Z" fill="#898362"/>
<path d="M58.5033 5.25479L57.8633 4.61477L57.8633 7.21484L58.5033 6.57484L58.5033 5.25479Z" fill="#B4AB80"/>
<path d="M57.8633 4.61291L60.4634 4.61291L59.8233 5.25293L58.5033 5.25293L57.8633 4.61291Z" fill="#7E785A"/>
<path d="M60.4613 4.61477L60.4613 7.21484L59.8213 6.57484L59.8213 5.25479L60.4613 4.61477Z" fill="#5D5B42"/>
<path d="M60.4634 7.21484L57.8633 7.21484L58.5033 6.57484L59.8233 6.57484L60.4634 7.21484Z" fill="#978E6B"/>
<path d="M58.501 13.3763L58.501 14.7363L59.861 14.7363L59.861 13.3763L58.501 13.3763Z" fill="#898362"/>
<path d="M58.5033 13.414L57.8633 12.7739L57.8633 15.374L58.5033 14.734L58.5033 13.414Z" fill="#B4AB80"/>
<path d="M57.8633 12.7721L60.4634 12.7721L59.8233 13.4121L58.5033 13.4121L57.8633 12.7721Z" fill="#7E785A"/>
<path d="M60.4613 12.7739L60.4613 15.374L59.8213 14.734L59.8213 13.414L60.4613 12.7739Z" fill="#5D5B42"/>
<path d="M58.5033 14.734L59.8233 14.734L60.4634 15.374L57.8633 15.374L58.5033 14.734Z" fill="#978E6B"/>
<path d="M66.6543 5.2532L66.6543 6.57324L68.0143 6.57324L68.0143 5.2532L66.6543 5.2532Z" fill="#898362"/>
<path d="M66.6566 5.25479L66.0166 4.61477L66.0166 7.21484L66.6566 6.57484L66.6566 5.25479Z" fill="#B4AB80"/>
<path d="M66.0166 4.61291L68.6167 4.61291L67.9767 5.25293L66.6566 5.25293L66.0166 4.61291Z" fill="#7E785A"/>
<path d="M68.6146 4.61477L68.6146 7.21484L67.9746 6.57484L67.9746 5.25479L68.6146 4.61477Z" fill="#5D5B42"/>
<path d="M68.6167 7.21484L66.0166 7.21484L66.6566 6.57484L67.9767 6.57484L68.6167 7.21484Z" fill="#978E6B"/>
<path d="M66.6543 13.3763L66.6543 14.7363L68.0143 14.7363L68.0143 13.3763L66.6543 13.3763Z" fill="#898362"/>
<path d="M66.6566 13.414L66.0166 12.7739L66.0166 15.374L66.6566 14.734L66.6566 13.414Z" fill="#B4AB80"/>
<path d="M66.0166 12.7721L68.6167 12.7721L67.9767 13.4121L66.6566 13.4121L66.0166 12.7721Z" fill="#7E785A"/>
<path d="M68.6146 12.7739L68.6146 15.374L67.9746 14.734L67.9746 13.414L68.6146 12.7739Z" fill="#5D5B42"/>
<path d="M66.6566 14.734L67.9767 14.734L68.6167 15.374L66.0166 15.374L66.6566 14.734Z" fill="#978E6B"/>
<path d="M74.8252 5.2532L74.8252 6.57324L76.1852 6.57324L76.1852 5.2532L74.8252 5.2532Z" fill="#898362"/>
<path d="M74.8275 5.25479L74.1875 4.61477L74.1875 7.21484L74.8275 6.57484L74.8275 5.25479Z" fill="#B4AB80"/>
<path d="M74.1875 4.61291L76.7876 4.61291L76.1476 5.25293L74.8275 5.25293L74.1875 4.61291Z" fill="#7E785A"/>
<path d="M76.7855 4.61477L76.7855 7.21484L76.1455 6.57484L76.1455 5.25479L76.7855 4.61477Z" fill="#5D5B42"/>
<path d="M76.7876 7.21484L74.1875 7.21484L74.8275 6.57484L76.1476 6.57484L76.7876 7.21484Z" fill="#978E6B"/>
<path d="M74.8252 13.3763L74.8252 14.7363L76.1852 14.7363L76.1852 13.3763L74.8252 13.3763Z" fill="#898362"/>
<path d="M74.8275 13.414L74.1875 12.7739L74.1875 15.374L74.8275 14.734L74.8275 13.414Z" fill="#B4AB80"/>
<path d="M74.1875 12.7721L76.7876 12.7721L76.1476 13.4121L74.8275 13.4121L74.1875 12.7721Z" fill="#7E785A"/>
<path d="M76.7855 12.7739L76.7855 15.374L76.1455 14.734L76.1455 13.414L76.7855 12.7739Z" fill="#5D5B42"/>
<path d="M74.8275 14.734L76.1476 14.734L76.7876 15.374L74.1875 15.374L74.8275 14.734Z" fill="#978E6B"/>
<path d="M82.9863 5.2532L82.9863 6.57324L84.3464 6.57324L84.3464 5.2532L82.9863 5.2532Z" fill="#898362"/>
<path d="M82.9887 5.25479L82.3486 4.61477L82.3486 7.21484L82.9887 6.57484L82.9887 5.25479Z" fill="#B4AB80"/>
<path d="M82.3486 4.61291L84.9487 4.61291L84.3487 5.25293L82.9887 5.25293L82.3486 4.61291Z" fill="#7E785A"/>
<path d="M84.9506 4.61477L84.9506 7.21484L84.3506 6.57484L84.3506 5.25479L84.9506 4.61477Z" fill="#5D5B42"/>
<path d="M84.9487 7.21484L82.3486 7.21484L82.9887 6.57484L84.3487 6.57484L84.9487 7.21484Z" fill="#978E6B"/>
<path d="M82.9863 13.3763L82.9863 14.7363L84.3464 14.7363L84.3464 13.3763L82.9863 13.3763Z" fill="#898362"/>
<path d="M82.9887 13.414L82.3486 12.7739L82.3486 15.374L82.9887 14.734L82.9887 13.414Z" fill="#B4AB80"/>
<path d="M82.3486 12.7721L84.9487 12.7721L84.3487 13.4121L82.9887 13.4121L82.3486 12.7721Z" fill="#7E785A"/>
<path d="M84.9506 12.7739L84.9506 15.374L84.3506 14.734L84.3506 13.414L84.9506 12.7739Z" fill="#5D5B42"/>
<path d="M82.9887 14.734L84.3487 14.734L84.9487 15.374L82.3486 15.374L82.9887 14.734Z" fill="#978E6B"/>
<path d="M91.1396 5.2532L91.1396 6.57324L92.4997 6.57324L92.4997 5.2532L91.1396 5.2532Z" fill="#898362"/>
<path d="M91.142 5.25479L90.502 4.61477L90.502 7.21484L91.142 6.57484L91.142 5.25479Z" fill="#B4AB80"/>
<path d="M90.502 4.61291L93.102 4.61291L92.502 5.25293L91.142 5.25293L90.502 4.61291Z" fill="#7E785A"/>
<path d="M93.1039 4.61477L93.1039 7.21484L92.5039 6.57484L92.5039 5.25479L93.1039 4.61477Z" fill="#5D5B42"/>
<path d="M93.102 7.21484L90.502 7.21484L91.142 6.57484L92.502 6.57484L93.102 7.21484Z" fill="#978E6B"/>
<path d="M91.1396 13.3763L91.1396 14.7363L92.4997 14.7363L92.4997 13.3763L91.1396 13.3763Z" fill="#898362"/>
<path d="M91.142 13.414L90.502 12.7739L90.502 15.374L91.142 14.734L91.142 13.414Z" fill="#B4AB80"/>
<path d="M90.502 12.7721L93.102 12.7721L92.502 13.4121L91.142 13.4121L90.502 12.7721Z" fill="#7E785A"/>
<path d="M93.1039 12.7739L93.1039 15.374L92.5039 14.734L92.5039 13.414L93.1039 12.7739Z" fill="#5D5B42"/>
<path d="M91.142 14.734L92.502 14.734L93.102 15.374L90.502 15.374L91.142 14.734Z" fill="#978E6B"/>
<path d="M99.3008 5.2532L99.3008 6.57324L100.661 6.57324L100.661 5.2532L99.3008 5.2532Z" fill="#898362"/>
<path d="M99.3031 5.25479L98.6631 4.61477L98.6631 7.21484L99.3031 6.57484L99.3031 5.25479Z" fill="#B4AB80"/>
<path d="M98.6631 4.61291L101.263 4.61291L100.663 5.25293L99.3031 5.25293L98.6631 4.61291Z" fill="#7E785A"/>
<path d="M101.265 4.61477L101.265 7.21484L100.665 6.57484L100.665 5.25479L101.265 4.61477Z" fill="#5D5B42"/>
<path d="M101.263 7.21484L98.6631 7.21484L99.3031 6.57484L100.663 6.57484L101.263 7.21484Z" fill="#978E6B"/>
<path d="M99.3008 13.3763L99.3008 14.7363L100.661 14.7363L100.661 13.3763L99.3008 13.3763Z" fill="#898362"/>
<path d="M99.3031 13.414L98.6631 12.7739L98.6631 15.374L99.3031 14.734L99.3031 13.414Z" fill="#B4AB80"/>
<path d="M98.6631 12.7721L101.263 12.7721L100.663 13.4121L99.3031 13.4121L98.6631 12.7721Z" fill="#7E785A"/>
<path d="M101.265 12.7739L101.265 15.374L100.665 14.734L100.665 13.414L101.265 12.7739Z" fill="#5D5B42"/>
<path d="M99.3031 14.734L100.663 14.734L101.263 15.374L98.6631 15.374L99.3031 14.734Z" fill="#978E6B"/>
<path d="M107.463 5.2532L107.463 6.57324L108.823 6.57324L108.823 5.2532L107.463 5.2532Z" fill="#898362"/>
<path d="M106.825 7.21484L107.465 6.57484L107.465 5.25479L106.825 4.61477L106.825 7.21484Z" fill="#B4AB80"/>
<path d="M108.825 5.25293L107.465 5.25293L106.825 4.61291L109.465 4.61291L108.825 5.25293Z" fill="#7E785A"/>
<path d="M108.827 6.57484L108.827 5.25479L109.467 4.61477L109.467 7.21484L108.827 6.57484Z" fill="#5D5B42"/>
<path d="M107.465 6.57484L108.825 6.57484L109.465 7.21484L106.825 7.21484L107.465 6.57484Z" fill="#978E6B"/>
<path d="M107.463 13.3763L107.463 14.7363L108.823 14.7363L108.823 13.3763L107.463 13.3763Z" fill="#898362"/>
<path d="M106.825 15.374L107.465 14.734L107.465 13.414L106.825 12.7739L106.825 15.374Z" fill="#B4AB80"/>
<path d="M108.825 13.4121L107.465 13.4121L106.825 12.7721L109.465 12.7721L108.825 13.4121Z" fill="#7E785A"/>
<path d="M108.827 14.734L108.827 13.414L109.467 12.7739L109.467 15.374L108.827 14.734Z" fill="#5D5B42"/>
<path d="M109.465 15.374L106.825 15.374L107.465 14.734L108.825 14.734L109.465 15.374Z" fill="#978E6B"/>
<path d="M115.63 5.2532L115.63 6.57324L116.99 6.57324L116.99 5.2532L115.63 5.2532Z" fill="#898362"/>
<path d="M115.627 5.25479L115.027 4.61477L115.027 7.21484L115.627 6.57484L115.627 5.25479Z" fill="#B4AB80"/>
<path d="M115.027 4.61291L117.627 4.61291L116.987 5.25293L115.627 5.25293L115.027 4.61291Z" fill="#7E785A"/>
<path d="M117.625 4.61477L117.625 7.21484L116.985 6.57484L116.985 5.25479L117.625 4.61477Z" fill="#5D5B42"/>
<path d="M117.627 7.21484L115.027 7.21484L115.627 6.57484L116.987 6.57484L117.627 7.21484Z" fill="#978E6B"/>
<path d="M115.63 13.3763L115.63 14.7363L116.99 14.7363L116.99 13.3763L115.63 13.3763Z" fill="#898362"/>
<path d="M115.627 13.414L115.027 12.7739L115.027 15.374L115.627 14.734L115.627 13.414Z" fill="#B4AB80"/>
<path d="M115.027 12.7721L117.627 12.7721L116.987 13.4121L115.627 13.4121L115.027 12.7721Z" fill="#7E785A"/>
<path d="M117.625 12.7739L117.625 15.374L116.985 14.734L116.985 13.414L117.625 12.7739Z" fill="#5D5B42"/>
<path d="M115.627 14.734L116.987 14.734L117.627 15.374L115.027 15.374L115.627 14.734Z" fill="#978E6B"/>
<path d="M123.783 5.2532L123.783 6.57324L125.143 6.57324L125.143 5.2532L123.783 5.2532Z" fill="#898362"/>
<path d="M123.781 5.25479L123.181 4.61477L123.181 7.21484L123.781 6.57484L123.781 5.25479Z" fill="#B4AB80"/>
<path d="M123.181 4.61291L125.781 4.61291L125.141 5.25293L123.781 5.25293L123.181 4.61291Z" fill="#7E785A"/>
<path d="M125.779 4.61477L125.779 7.21484L125.139 6.57484L125.139 5.25479L125.779 4.61477Z" fill="#5D5B42"/>
<path d="M125.781 7.21484L123.181 7.21484L123.781 6.57484L125.141 6.57484L125.781 7.21484Z" fill="#978E6B"/>
<path d="M123.783 13.3763L123.783 14.7363L125.143 14.7363L125.143 13.3763L123.783 13.3763Z" fill="#898362"/>
<path d="M123.781 13.414L123.181 12.7739L123.181 15.374L123.781 14.734L123.781 13.414Z" fill="#B4AB80"/>
<path d="M123.181 12.7721L125.781 12.7721L125.141 13.4121L123.781 13.4121L123.181 12.7721Z" fill="#7E785A"/>
<path d="M125.779 12.7739L125.779 15.374L125.139 14.734L125.139 13.414L125.779 12.7739Z" fill="#5D5B42"/>
<path d="M123.781 14.734L125.141 14.734L125.781 15.374L123.181 15.374L123.781 14.734Z" fill="#978E6B"/>
<path d="M131.979 5.2532L131.979 6.57324L133.34 6.57324L133.34 5.2532L131.979 5.2532Z" fill="#898362"/>
<path d="M131.982 5.25479L131.342 4.61477L131.342 7.21484L131.982 6.57484L131.982 5.25479Z" fill="#B4AB80"/>
<path d="M131.342 4.61291L133.942 4.61291L133.302 5.25293L131.982 5.25293L131.342 4.61291Z" fill="#7E785A"/>
<path d="M133.94 4.61477L133.94 7.21484L133.3 6.57484L133.3 5.25479L133.94 4.61477Z" fill="#5D5B42"/>
<path d="M133.942 7.21484L131.342 7.21484L131.982 6.57484L133.302 6.57484L133.942 7.21484Z" fill="#978E6B"/>
<path d="M131.979 13.3763L131.979 14.7363L133.34 14.7363L133.34 13.3763L131.979 13.3763Z" fill="#898362"/>
<path d="M131.982 13.414L131.342 12.7739L131.342 15.374L131.982 14.734L131.982 13.414Z" fill="#B4AB80"/>
<path d="M131.342 12.7721L133.942 12.7721L133.302 13.4121L131.982 13.4121L131.342 12.7721Z" fill="#7E785A"/>
<path d="M133.94 12.7739L133.94 15.374L133.3 14.734L133.3 13.414L133.94 12.7739Z" fill="#5D5B42"/>
<path d="M131.982 14.734L133.302 14.734L133.942 15.374L131.342 15.374L131.982 14.734Z" fill="#978E6B"/>
<path d="M144.942 9.93555L144.943 3.89537L143.182 2.17533L138.582 2.17533L136.822 3.89537L136.822 9.93555" fill="#404040"/>
<path d="M140.145 5.25417L140.145 6.57422L141.505 6.57422L141.505 5.25417L140.145 5.25417Z" fill="#898362"/>
<path d="M139.507 4.61575L139.507 7.21582L140.147 6.57581L140.147 5.25577L139.507 4.61575Z" fill="#B4AB80"/>
<path d="M142.107 4.61389L141.467 5.25391L140.147 5.25391L139.507 4.61389L142.107 4.61389Z" fill="#7E785A"/>
<path d="M142.104 7.21582L141.464 6.57581L141.464 5.25577L142.104 4.61575L142.104 7.21582Z" fill="#5D5B42"/>
<path d="M139.507 7.21582L140.147 6.57581L141.467 6.57581L142.107 7.21582L139.507 7.21582Z" fill="#978E6B"/>
<path d="M140.146 13.3763L140.146 14.7363L141.507 14.7363L141.507 13.3763L140.146 13.3763Z" fill="#898362"/>
<path d="M140.149 13.414L139.509 12.7739L139.509 15.374L140.149 14.734L140.149 13.414Z" fill="#B4AB80"/>
<path d="M139.509 12.7721L142.109 12.7721L141.469 13.4121L140.149 13.4121L139.509 12.7721Z" fill="#7E785A"/>
<path d="M142.106 12.7739L142.106 15.374L141.466 14.734L141.466 13.414L142.106 12.7739Z" fill="#5D5B42"/>
<path d="M140.149 14.734L141.469 14.734L142.109 15.374L139.509 15.374L140.149 14.734Z" fill="#978E6B"/>
<path d="M148.304 5.2532L148.304 6.57324L149.664 6.57324L149.664 5.2532L148.304 5.2532Z" fill="#898362"/>
<path d="M148.306 5.25479L147.666 4.61477L147.666 7.21484L148.306 6.57484L148.306 5.25479Z" fill="#B4AB80"/>
<path d="M147.666 4.61291L150.266 4.61291L149.626 5.25293L148.306 5.25293L147.666 4.61291Z" fill="#7E785A"/>
<path d="M150.264 4.61477L150.264 7.21484L149.624 6.57484L149.624 5.25479L150.264 4.61477Z" fill="#5D5B42"/>
<path d="M150.266 7.21484L147.666 7.21484L148.306 6.57484L149.626 6.57484L150.266 7.21484Z" fill="#978E6B"/>
<path d="M148.304 13.3763L148.304 14.7363L149.664 14.7363L149.664 13.3763L148.304 13.3763Z" fill="#898362"/>
<path d="M148.306 13.414L147.666 12.7739L147.666 15.374L148.306 14.734L148.306 13.414Z" fill="#B4AB80"/>
<path d="M147.666 12.7721L150.266 12.7721L149.626 13.4121L148.306 13.4121L147.666 12.7721Z" fill="#7E785A"/>
<path d="M150.264 12.7739L150.264 15.374L149.624 14.734L149.624 13.414L150.264 12.7739Z" fill="#5D5B42"/>
<path d="M148.306 14.734L149.626 14.734L150.266 15.374L147.666 15.374L148.306 14.734Z" fill="#978E6B"/>
<path d="M156.466 5.2532L156.466 6.57324L157.826 6.57324L157.826 5.2532L156.466 5.2532Z" fill="#898362"/>
<path d="M156.468 5.25479L155.828 4.61477L155.828 7.21484L156.468 6.57484L156.468 5.25479Z" fill="#B4AB80"/>
<path d="M155.828 4.61291L158.428 4.61291L157.788 5.25293L156.468 5.25293L155.828 4.61291Z" fill="#7E785A"/>
<path d="M158.426 4.61477L158.426 7.21484L157.786 6.57484L157.786 5.25479L158.426 4.61477Z" fill="#5D5B42"/>
<path d="M158.428 7.21484L155.828 7.21484L156.468 6.57484L157.788 6.57484L158.428 7.21484Z" fill="#978E6B"/>
<path d="M156.466 13.3763L156.466 14.7363L157.826 14.7363L157.826 13.3763L156.466 13.3763Z" fill="#898362"/>
<path d="M156.468 13.414L155.828 12.7739L155.828 15.374L156.468 14.734L156.468 13.414Z" fill="#B4AB80"/>
<path d="M155.828 12.7721L158.428 12.7721L157.788 13.4121L156.468 13.4121L155.828 12.7721Z" fill="#7E785A"/>
<path d="M158.426 12.7739L158.426 15.374L157.786 14.734L157.786 13.414L158.426 12.7739Z" fill="#5D5B42"/>
<path d="M156.468 14.734L157.788 14.734L158.428 15.374L155.828 15.374L156.468 14.734Z" fill="#978E6B"/>
<path d="M164.627 5.2532L164.627 6.57324L165.987 6.57324L165.987 5.2532L164.627 5.2532Z" fill="#898362"/>
<path d="M164.629 5.25479L163.989 4.61477L163.989 7.21484L164.629 6.57484L164.629 5.25479Z" fill="#B4AB80"/>
<path d="M163.989 4.61291L166.589 4.61291L165.989 5.25293L164.629 5.25293L163.989 4.61291Z" fill="#7E785A"/>
<path d="M166.591 4.61477L166.591 7.21484L165.991 6.57484L165.991 5.25479L166.591 4.61477Z" fill="#5D5B42"/>
<path d="M166.589 7.21484L163.989 7.21484L164.629 6.57484L165.989 6.57484L166.589 7.21484Z" fill="#978E6B"/>
<path d="M164.627 13.3763L164.627 14.7363L165.987 14.7363L165.987 13.3763L164.627 13.3763Z" fill="#898362"/>
<path d="M164.629 13.414L163.989 12.7739L163.989 15.374L164.629 14.734L164.629 13.414Z" fill="#B4AB80"/>
<path d="M163.989 12.7721L166.589 12.7721L165.989 13.4121L164.629 13.4121L163.989 12.7721Z" fill="#7E785A"/>
<path d="M166.591 12.7739L166.591 15.374L165.991 14.734L165.991 13.414L166.591 12.7739Z" fill="#5D5B42"/>
<path d="M164.629 14.734L165.989 14.734L166.589 15.374L163.989 15.374L164.629 14.734Z" fill="#978E6B"/>
<path d="M172.78 5.2532L172.78 6.57324L174.14 6.57324L174.14 5.2532L172.78 5.2532Z" fill="#898362"/>
<path d="M172.783 5.25479L172.143 4.61477L172.143 7.21484L172.783 6.57484L172.783 5.25479Z" fill="#B4AB80"/>
<path d="M172.143 4.61291L174.743 4.61291L174.143 5.25293L172.783 5.25293L172.143 4.61291Z" fill="#7E785A"/>
<path d="M174.745 4.61477L174.745 7.21484L174.145 6.57484L174.145 5.25479L174.745 4.61477Z" fill="#5D5B42"/>
<path d="M174.743 7.21484L172.143 7.21484L172.783 6.57484L174.143 6.57484L174.743 7.21484Z" fill="#978E6B"/>
<path d="M172.78 13.3763L172.78 14.7363L174.14 14.7363L174.14 13.3763L172.78 13.3763Z" fill="#898362"/>
<path d="M172.783 13.414L172.143 12.7739L172.143 15.374L172.783 14.734L172.783 13.414Z" fill="#B4AB80"/>
<path d="M172.143 12.7721L174.743 12.7721L174.143 13.4121L172.783 13.4121L172.143 12.7721Z" fill="#7E785A"/>
<path d="M174.745 12.7739L174.745 15.374L174.145 14.734L174.145 13.414L174.745 12.7739Z" fill="#5D5B42"/>
<path d="M172.783 14.734L174.143 14.734L174.743 15.374L172.143 15.374L172.783 14.734Z" fill="#978E6B"/>
<path d="M180.941 5.2532L180.941 6.57324L182.301 6.57324L182.301 5.2532L180.941 5.2532Z" fill="#898362"/>
<path d="M180.944 5.25479L180.304 4.61477L180.304 7.21484L180.944 6.57484L180.944 5.25479Z" fill="#B4AB80"/>
<path d="M180.304 4.61291L182.904 4.61291L182.304 5.25293L180.944 5.25293L180.304 4.61291Z" fill="#7E785A"/>
<path d="M182.906 4.61477L182.906 7.21484L182.306 6.57484L182.306 5.25479L182.906 4.61477Z" fill="#5D5B42"/>
<path d="M182.904 7.21484L180.304 7.21484L180.944 6.57484L182.304 6.57484L182.904 7.21484Z" fill="#978E6B"/>
<path d="M180.941 13.3763L180.941 14.7363L182.301 14.7363L182.301 13.3763L180.941 13.3763Z" fill="#898362"/>
<path d="M180.944 13.414L180.304 12.7739L180.304 15.374L180.944 14.734L180.944 13.414Z" fill="#B4AB80"/>
<path d="M180.304 12.7721L182.904 12.7721L182.304 13.4121L180.944 13.4121L180.304 12.7721Z" fill="#7E785A"/>
<path d="M182.906 12.7739L182.906 15.374L182.306 14.734L182.306 13.414L182.906 12.7739Z" fill="#5D5B42"/>
<path d="M180.944 14.734L182.304 14.734L182.904 15.374L180.304 15.374L180.944 14.734Z" fill="#978E6B"/>
</svg>
