<svg width="1146" height="1139" viewBox="0 0 1146 1139" fill="none" xmlns="http://www.w3.org/2000/svg">
<path d="M1121 0C1134.81 6.03528e-07 1146 11.1929 1146 25V1114C1146 1127.81 1134.81 1139 1121 1139H25C11.1929 1139 2.69318e-05 1127.81 0 1114V25C6.03528e-07 11.1929 11.1929 -1.76681e-07 25 0H1121ZM1115.5 1095C1108.6 1095 1103 1100.6 1103 1107.5C1103 1114.4 1108.6 1120 1115.5 1120C1122.4 1120 1128 1114.4 1128 1107.5C1128 1100.6 1122.4 1095 1115.5 1095ZM33.5 956C26.5964 956 21 961.596 21 968.5C21 975.404 26.5964 981 33.5 981C40.4036 981 46 975.404 46 968.5C46 961.596 40.4036 956 33.5 956ZM33.5 20C26.5964 20 21 25.5964 21 32.5C21 39.4036 26.5964 45 33.5 45C40.4036 45 46 39.4036 46 32.5C46 25.5964 40.4036 20 33.5 20ZM589.5 20C582.596 20 577 25.5964 577 32.5C577 39.4036 582.596 45 589.5 45C596.404 45 602 39.4036 602 32.5C602 25.5964 596.404 20 589.5 20ZM1115.5 20C1108.6 20 1103 25.5964 1103 32.5C1103 39.4036 1108.6 45 1115.5 45C1122.4 45 1128 39.4036 1128 32.5C1128 25.5964 1122.4 20 1115.5 20Z" fill="#131313"/>
<path d="M76.9055 52.7804C80.8147 52.7804 83.9838 49.6113 83.9838 45.7021C83.9838 41.7928 80.8147 38.6237 76.9055 38.6237C72.9962 38.6237 69.8271 41.7928 69.8271 45.7021C69.8271 49.6113 72.9962 52.7804 76.9055 52.7804Z" stroke="#F5B91B" stroke-width="0.336898"/>
<path d="M101.311 52.7801C105.22 52.7801 108.39 49.6111 108.39 45.7018C108.39 41.7925 105.22 38.6234 101.311 38.6234C97.402 38.6234 94.2329 41.7925 94.2329 45.7018C94.2329 49.6111 97.402 52.7801 101.311 52.7801Z" stroke="#F5B91B" stroke-width="0.336898"/>
<path d="M125.7 52.7804C129.609 52.7804 132.778 49.6113 132.778 45.7021C132.778 41.7928 129.609 38.6237 125.7 38.6237C121.79 38.6237 118.621 41.7928 118.621 45.7021C118.621 49.6113 121.79 52.7804 125.7 52.7804Z" stroke="#F5B91B" stroke-width="0.336898"/>
<path d="M150.105 52.7801C154.014 52.7801 157.184 49.6111 157.184 45.7018C157.184 41.7925 154.014 38.6234 150.105 38.6234C146.196 38.6234 143.027 41.7925 143.027 45.7018C143.027 49.6111 146.196 52.7801 150.105 52.7801Z" stroke="#F5B91B" stroke-width="0.336898"/>
<path d="M174.51 52.7801C178.419 52.7801 181.588 49.6111 181.588 45.7018C181.588 41.7925 178.419 38.6234 174.51 38.6234C170.601 38.6234 167.432 41.7925 167.432 45.7018C167.432 49.6111 170.601 52.7801 174.51 52.7801Z" stroke="#F5B91B" stroke-width="0.336898"/>
<path d="M198.91 52.7804C202.819 52.7804 205.988 49.6113 205.988 45.7021C205.988 41.7928 202.819 38.6237 198.91 38.6237C195.001 38.6237 191.832 41.7928 191.832 45.7021C191.832 49.6113 195.001 52.7804 198.91 52.7804Z" stroke="#F5B91B" stroke-width="0.336898"/>
<path d="M223.316 52.7801C227.225 52.7801 230.394 49.6111 230.394 45.7018C230.394 41.7925 227.225 38.6234 223.316 38.6234C219.406 38.6234 216.237 41.7925 216.237 45.7018C216.237 49.6111 219.406 52.7801 223.316 52.7801Z" stroke="#F5B91B" stroke-width="0.336898"/>
<path d="M247.72 52.7801C251.63 52.7801 254.799 49.6111 254.799 45.7018C254.799 41.7925 251.63 38.6234 247.72 38.6234C243.811 38.6234 240.642 41.7925 240.642 45.7018C240.642 49.6111 243.811 52.7801 247.72 52.7801Z" stroke="#F5B91B" stroke-width="0.336898"/>
<path d="M272.12 52.7804C276.03 52.7804 279.199 49.6113 279.199 45.7021C279.199 41.7928 276.03 38.6237 272.12 38.6237C268.211 38.6237 265.042 41.7928 265.042 45.7021C265.042 49.6113 268.211 52.7804 272.12 52.7804Z" stroke="#F5B91B" stroke-width="0.336898"/>
<path d="M296.526 52.7801C300.435 52.7801 303.604 49.6111 303.604 45.7018C303.604 41.7925 300.435 38.6234 296.526 38.6234C292.617 38.6234 289.448 41.7925 289.448 45.7018C289.448 49.6111 292.617 52.7801 296.526 52.7801Z" stroke="#F5B91B" stroke-width="0.336898"/>
<path d="M320.931 52.7803C324.84 52.7803 328.009 49.6112 328.009 45.7019C328.009 41.7927 324.84 38.6235 320.931 38.6235C317.021 38.6235 313.852 41.7927 313.852 45.7019C313.852 49.6112 317.021 52.7803 320.931 52.7803Z" stroke="#F5B91B" stroke-width="0.336898"/>
<path d="M345.336 52.7803C349.246 52.7803 352.415 49.6112 352.415 45.7019C352.415 41.7927 349.246 38.6235 345.336 38.6235C341.427 38.6235 338.258 41.7927 338.258 45.7019C338.258 49.6112 341.427 52.7803 345.336 52.7803Z" stroke="#F5B91B" stroke-width="0.336898"/>
<path d="M369.736 52.7803C373.646 52.7803 376.815 49.6112 376.815 45.7019C376.815 41.7927 373.646 38.6235 369.736 38.6235C365.827 38.6235 362.658 41.7927 362.658 45.7019C362.658 49.6112 365.827 52.7803 369.736 52.7803Z" stroke="#F5B91B" stroke-width="0.336898"/>
<path d="M394.141 52.7803C398.05 52.7803 401.219 49.6112 401.219 45.7019C401.219 41.7927 398.05 38.6235 394.141 38.6235C390.232 38.6235 387.062 41.7927 387.062 45.7019C387.062 49.6112 390.232 52.7803 394.141 52.7803Z" stroke="#F5B91B" stroke-width="0.336898"/>
<path d="M418.547 52.7803C422.456 52.7803 425.625 49.6112 425.625 45.7019C425.625 41.7927 422.456 38.6235 418.547 38.6235C414.638 38.6235 411.469 41.7927 411.469 45.7019C411.469 49.6112 414.638 52.7803 418.547 52.7803Z" stroke="#F5B91B" stroke-width="0.336898"/>
<path d="M442.935 52.7803C446.844 52.7803 450.013 49.6112 450.013 45.7019C450.013 41.7927 446.844 38.6235 442.935 38.6235C439.026 38.6235 435.857 41.7927 435.857 45.7019C435.857 49.6112 439.026 52.7803 442.935 52.7803Z" stroke="#F5B91B" stroke-width="0.336898"/>
<path d="M467.351 52.7803C471.261 52.7803 474.43 49.6112 474.43 45.7019C474.43 41.7927 471.261 38.6235 467.351 38.6235C463.442 38.6235 460.273 41.7927 460.273 45.7019C460.273 49.6112 463.442 52.7803 467.351 52.7803Z" stroke="#F5B91B" stroke-width="0.336898"/>
<path d="M491.757 52.7803C495.666 52.7803 498.835 49.6112 498.835 45.7019C498.835 41.7927 495.666 38.6235 491.757 38.6235C487.848 38.6235 484.679 41.7927 484.679 45.7019C484.679 49.6112 487.848 52.7803 491.757 52.7803Z" stroke="#F5B91B" stroke-width="0.336898"/>
<path d="M516.145 52.7803C520.055 52.7803 523.224 49.6112 523.224 45.7019C523.224 41.7927 520.055 38.6235 516.145 38.6235C512.236 38.6235 509.067 41.7927 509.067 45.7019C509.067 49.6112 512.236 52.7803 516.145 52.7803Z" stroke="#F5B91B" stroke-width="0.336898"/>
<path d="M540.562 52.7803C544.471 52.7803 547.64 49.6112 547.64 45.7019C547.64 41.7927 544.471 38.6235 540.562 38.6235C536.653 38.6235 533.483 41.7927 533.483 45.7019C533.483 49.6112 536.653 52.7803 540.562 52.7803Z" stroke="#F5B91B" stroke-width="0.336898"/>
<path d="M540.562 28.378C544.471 28.378 547.64 25.2089 547.64 21.2996C547.64 17.3904 544.471 14.2213 540.562 14.2213C536.653 14.2213 533.483 17.3904 533.483 21.2996C533.483 25.2089 536.653 28.378 540.562 28.378Z" stroke="#F5B91B" stroke-width="0.336898"/>
<path d="M516.145 28.378C520.055 28.378 523.224 25.2089 523.224 21.2996C523.224 17.3904 520.055 14.2213 516.145 14.2213C512.236 14.2213 509.067 17.3904 509.067 21.2996C509.067 25.2089 512.236 28.378 516.145 28.378Z" stroke="#F5B91B" stroke-width="0.336898"/>
<path d="M491.757 28.378C495.666 28.378 498.835 25.2089 498.835 21.2996C498.835 17.3904 495.666 14.2213 491.757 14.2213C487.848 14.2213 484.679 17.3904 484.679 21.2996C484.679 25.2089 487.848 28.378 491.757 28.378Z" stroke="#F5B91B" stroke-width="0.336898"/>
<path d="M467.351 28.378C471.261 28.378 474.43 25.2089 474.43 21.2996C474.43 17.3904 471.261 14.2213 467.351 14.2213C463.442 14.2213 460.273 17.3904 460.273 21.2996C460.273 25.2089 463.442 28.378 467.351 28.378Z" stroke="#F5B91B" stroke-width="0.336898"/>
<path d="M442.935 28.378C446.844 28.378 450.013 25.2089 450.013 21.2996C450.013 17.3904 446.844 14.2213 442.935 14.2213C439.026 14.2213 435.857 17.3904 435.857 21.2996C435.857 25.2089 439.026 28.378 442.935 28.378Z" stroke="#F5B91B" stroke-width="0.336898"/>
<path d="M418.547 28.378C422.456 28.378 425.625 25.2089 425.625 21.2996C425.625 17.3904 422.456 14.2213 418.547 14.2213C414.638 14.2213 411.469 17.3904 411.469 21.2996C411.469 25.2089 414.638 28.378 418.547 28.378Z" stroke="#F5B91B" stroke-width="0.336898"/>
<path d="M394.141 28.378C398.05 28.378 401.219 25.2089 401.219 21.2996C401.219 17.3904 398.05 14.2213 394.141 14.2213C390.232 14.2213 387.063 17.3904 387.063 21.2996C387.063 25.2089 390.232 28.378 394.141 28.378Z" stroke="#F5B91B" stroke-width="0.336898"/>
<path d="M369.736 28.3777C373.646 28.3777 376.815 25.2087 376.815 21.2994C376.815 17.3901 373.646 14.2211 369.736 14.2211C365.827 14.2211 362.658 17.3901 362.658 21.2994C362.658 25.2087 365.827 28.3777 369.736 28.3777Z" stroke="#F5B91B" stroke-width="0.336898"/>
<path d="M345.336 28.3777C349.246 28.3777 352.415 25.2087 352.415 21.2994C352.415 17.3901 349.246 14.2211 345.336 14.2211C341.427 14.2211 338.258 17.3901 338.258 21.2994C338.258 25.2087 341.427 28.3777 345.336 28.3777Z" stroke="#F5B91B" stroke-width="0.336898"/>
<path d="M320.931 28.3777C324.84 28.3777 328.009 25.2087 328.009 21.2994C328.009 17.3901 324.84 14.2211 320.931 14.2211C317.021 14.2211 313.852 17.3901 313.852 21.2994C313.852 25.2087 317.021 28.3777 320.931 28.3777Z" stroke="#F5B91B" stroke-width="0.336898"/>
<path d="M296.526 28.3777C300.435 28.3777 303.604 25.2087 303.604 21.2994C303.604 17.3901 300.435 14.2211 296.526 14.2211C292.617 14.2211 289.448 17.3901 289.448 21.2994C289.448 25.2087 292.617 28.3777 296.526 28.3777Z" stroke="#F5B91B" stroke-width="0.336898"/>
<path d="M272.12 28.3777C276.03 28.3777 279.199 25.2087 279.199 21.2994C279.199 17.3901 276.03 14.2211 272.12 14.2211C268.211 14.2211 265.042 17.3901 265.042 21.2994C265.042 25.2087 268.211 28.3777 272.12 28.3777Z" stroke="#F5B91B" stroke-width="0.336898"/>
<path d="M247.72 28.3777C251.63 28.3777 254.799 25.2087 254.799 21.2994C254.799 17.3901 251.63 14.2211 247.72 14.2211C243.811 14.2211 240.642 17.3901 240.642 21.2994C240.642 25.2087 243.811 28.3777 247.72 28.3777Z" stroke="#F5B91B" stroke-width="0.336898"/>
<path d="M223.316 28.3777C227.225 28.3777 230.394 25.2087 230.394 21.2994C230.394 17.3901 227.225 14.2211 223.316 14.2211C219.406 14.2211 216.237 17.3901 216.237 21.2994C216.237 25.2087 219.406 28.3777 223.316 28.3777Z" stroke="#F5B91B" stroke-width="0.336898"/>
<path d="M198.91 28.3777C202.819 28.3777 205.988 25.2087 205.988 21.2994C205.988 17.3901 202.819 14.2211 198.91 14.2211C195.001 14.2211 191.832 17.3901 191.832 21.2994C191.832 25.2087 195.001 28.3777 198.91 28.3777Z" stroke="#F5B91B" stroke-width="0.336898"/>
<path d="M174.51 28.3777C178.419 28.3777 181.588 25.2087 181.588 21.2994C181.588 17.3901 178.419 14.2211 174.51 14.2211C170.601 14.2211 167.432 17.3901 167.432 21.2994C167.432 25.2087 170.601 28.3777 174.51 28.3777Z" stroke="#F5B91B" stroke-width="0.336898"/>
<path d="M150.105 28.3777C154.014 28.3777 157.184 25.2087 157.184 21.2994C157.184 17.3901 154.014 14.2211 150.105 14.2211C146.196 14.2211 143.027 17.3901 143.027 21.2994C143.027 25.2087 146.196 28.3777 150.105 28.3777Z" stroke="#F5B91B" stroke-width="0.336898"/>
<path d="M125.7 28.3777C129.609 28.3777 132.778 25.2087 132.778 21.2994C132.778 17.3901 129.609 14.2211 125.7 14.2211C121.79 14.2211 118.621 17.3901 118.621 21.2994C118.621 25.2087 121.79 28.3777 125.7 28.3777Z" stroke="#F5B91B" stroke-width="0.336898"/>
<path d="M101.311 28.3777C105.22 28.3777 108.39 25.2087 108.39 21.2994C108.39 17.3901 105.22 14.2211 101.311 14.2211C97.402 14.2211 94.2329 17.3901 94.2329 21.2994C94.2329 25.2087 97.402 28.3777 101.311 28.3777Z" stroke="#F5B91B" stroke-width="0.336898"/>
<path d="M76.9055 28.3777C80.8147 28.3777 83.9838 25.2087 83.9838 21.2994C83.9838 17.3901 80.8147 14.2211 76.9055 14.2211C72.9962 14.2211 69.8271 17.3901 69.8271 21.2994C69.8271 25.2087 72.9962 28.3777 76.9055 28.3777Z" stroke="#F5B91B" stroke-width="0.336898"/>
<path d="M89.4035 33.1242V15.1174L84.1068 10L70.3088 10L65 15.1174V33.1242" fill="#BE3836"/>
<path d="M89.4035 33.1243V51.131L84.1068 56.2485H70.3088L65 51.131V33.1243" fill="#EFEA3C"/>
<path d="M113.809 33.1242V15.1174L108.513 10L94.7145 10L89.4058 15.1174V33.1242" fill="#BE3836"/>
<path d="M113.809 33.1243V51.131L108.513 56.2485H94.7145L89.4058 51.131V33.1243" fill="#69BE87"/>
<path d="M138.208 33.1242V15.1174L132.911 10L119.113 10L113.805 15.1174V33.1242" fill="#404041"/>
<path d="M138.208 33.1243V51.131L132.911 56.2485H119.113L113.805 51.131V33.1243" fill="#69BE87"/>
<path d="M162.603 33.1242V15.1174L157.306 10L143.508 10L138.2 15.1174V33.1242" fill="#69BE87"/>
<path d="M162.603 33.1243V51.131L157.306 56.2485H143.508L138.2 51.131V33.1243" fill="#69BE87"/>
<path d="M187.008 33.1242V15.1174L181.711 10L167.913 10L162.604 15.1174V33.1242" fill="#69BE87"/>
<path d="M187.008 33.1243V51.131L181.711 56.2485H167.913L162.604 51.131V33.1243" fill="#404041"/>
<path d="M211.408 33.1242V15.1174L206.111 10L192.313 10L187.004 15.1174V33.1242" fill="#69BE87"/>
<path d="M211.408 33.1243V51.131L206.111 56.2485H192.313L187.004 51.131V33.1243" fill="#69BE87"/>
<path d="M235.802 33.1242V15.1174L230.505 10L216.707 10L211.398 15.1174V33.1242" fill="#404041"/>
<path d="M235.802 33.1243V51.131L230.505 56.2485H216.707L211.398 51.131V33.1243" fill="#69BE87"/>
<path d="M260.208 33.1242V15.1174L254.911 10L241.113 10L235.804 15.1174V33.1242" fill="#69BE87"/>
<path d="M260.208 33.1243V51.131L254.911 56.2485H241.113L235.804 51.131V33.1243" fill="#69BE87"/>
<path d="M284.596 33.1242V15.1174L279.299 10L265.501 10L260.193 15.1174V33.1242" fill="#69BE87"/>
<path d="M284.596 33.1243V51.131L279.299 56.2485H265.501L260.193 51.131V33.1243" fill="#EFEA3C"/>
<path d="M309.002 33.1242V15.1174L303.705 10L289.907 10L284.598 15.1174V33.1242" fill="#404041"/>
<path d="M309.002 33.1243V51.131L303.705 56.2485H289.907L284.598 51.131V33.1243" fill="#69BE87"/>
<path d="M333.402 33.1242V15.1174L328.105 10L314.307 10L308.998 15.1174V33.1242" fill="#69BE87"/>
<path d="M333.402 33.1243V51.131L328.105 56.2485H314.307L308.998 51.131V33.1243" fill="#69BE87"/>
<path d="M357.796 33.1243V15.1176L352.499 10.0001L338.701 10.0001L333.392 15.1176V33.1243" fill="#69BE87"/>
<path d="M357.796 33.1243V51.131L352.499 56.2485H338.701L333.392 51.131V33.1243" fill="#69BE87"/>
<path d="M382.196 33.1243V15.1176L376.899 10.0001L363.101 10.0001L357.792 15.1176V33.1243" fill="#69BE87"/>
<path d="M382.196 33.1243V51.131L376.899 56.2485H363.101L357.792 51.131V33.1243" fill="#404041"/>
<path d="M406.601 33.1243V15.1176L401.304 10.0001L387.506 10.0001L382.197 15.1176V33.1243" fill="#4DC0E6"/>
<path d="M406.601 33.1244V51.1311L401.304 56.2486H387.506L382.197 51.1311V33.1244" fill="#4DC0E6"/>
<path d="M430.996 33.1244V51.1311L425.699 56.2486H411.901L406.592 51.1311V33.1244" fill="#69BE87"/>
<path d="M455.394 33.1243V15.1176L450.098 10.0001L436.3 10.0001L430.991 15.1176V33.1243" fill="#69BE87"/>
<path d="M455.394 33.1244V51.1311L450.098 56.2486H436.3L430.991 51.1311V33.1244" fill="#69BE87"/>
<path d="M479.8 33.1243V15.1176L474.504 10.0001L460.705 10.0001L455.397 15.1176V33.1243" fill="#404041"/>
<path d="M479.8 33.1243V51.131L474.504 56.2485H460.705L455.397 51.131V33.1243" fill="#69BE87"/>
<path d="M504.19 33.1243V15.1176L498.893 10.0001L485.095 10.0001L479.786 15.1176V33.1243" fill="#69BE87"/>
<path d="M504.19 33.1244V51.1311L498.893 56.2486H485.095L479.786 51.1311V33.1244" fill="#69BE87"/>
<path d="M528.595 33.1243V15.1176L523.298 10.0001L509.5 10.0001L504.191 15.1176V33.1243" fill="#69BE87"/>
<path d="M528.595 33.1243V51.131L523.298 56.2485H509.5L504.191 51.131V33.1243" fill="#69BE87"/>
<path d="M553 33.1243V15.1176L547.703 10.0001L533.905 10.0001L528.596 15.1176V33.1243" fill="#69BE87"/>
<path d="M553 33.1244V51.1311L547.703 56.2486H533.905L528.596 51.1311V33.1244" fill="#404041"/>
<path d="M78.942 19.1095H74.9365V23.115H78.942V19.1095Z" fill="#8B8562"/>
<path d="M74.938 19.1217L73.0369 17.2206V25.0043L74.938 23.1152V19.1217Z" fill="#B6AD81"/>
<path d="M73.0369 17.2206H80.8326L78.9435 19.1217H74.938L73.0369 17.2206Z" fill="#7F785B"/>
<path d="M80.8327 17.2208V25.0046L78.9436 23.1155V19.1219L80.8327 17.2208Z" fill="#5E5B43"/>
<path d="M80.8326 25.0061H73.0369L74.938 23.1169H78.9435L80.8326 25.0061Z" fill="#988F6B"/>
<path d="M78.942 43.4791H74.9365V47.4847H78.942V43.4791Z" fill="#8B8562"/>
<path d="M74.938 43.4798L73.0369 41.5907V49.3745L74.938 47.4734V43.4798Z" fill="#B6AD81"/>
<path d="M73.0369 41.5907H80.8326L78.9435 43.4798H74.938L73.0369 41.5907Z" fill="#7F785B"/>
<path d="M80.8327 41.5905V49.3743L78.9436 47.4731V43.4796L80.8327 41.5905Z" fill="#5E5B43"/>
<path d="M74.938 47.473H78.9435L80.8326 49.3742H73.0369L74.938 47.473Z" fill="#988F6B"/>
<path d="M103.34 19.11H99.3345V23.1155H103.34V19.11Z" fill="#8B8562"/>
<path d="M97.4456 17.2211V25.0048L99.3347 23.1157V19.1222L97.4456 17.2211Z" fill="#B6AD81"/>
<path d="M105.229 17.2211L103.34 19.1222H99.3347L97.4456 17.2211H105.229Z" fill="#7F785B"/>
<path d="M105.231 25.0048L103.342 23.1157V19.1222L105.231 17.2211V25.0048Z" fill="#5E5B43"/>
<path d="M97.4456 25.0035L99.3347 23.1144H103.34L105.229 25.0035H97.4456Z" fill="#988F6B"/>
<path d="M103.34 43.4767H99.3345V47.4822H103.34V43.4767Z" fill="#8B8562"/>
<path d="M97.4456 41.5879V49.3717L99.3347 47.4705V43.477L97.4456 41.5879Z" fill="#B6AD81"/>
<path d="M105.229 41.5879L103.34 43.477H99.3347L97.4456 41.5879H105.229Z" fill="#7F785B"/>
<path d="M105.231 49.3717L103.342 47.4705V43.477L105.231 41.5879V49.3717Z" fill="#5E5B43"/>
<path d="M103.34 47.4703L105.229 49.3715H97.4456L99.3347 47.4703H103.34Z" fill="#988F6B"/>
<path d="M127.744 19.11H123.738V23.1155H127.744V19.11Z" fill="#8B8562"/>
<path d="M123.739 19.1222L121.849 17.2211V25.0048L123.739 23.1157V19.1222Z" fill="#B6AD81"/>
<path d="M121.849 17.2211H129.633L127.744 19.1222H123.739L121.849 17.2211Z" fill="#7F785B"/>
<path d="M129.634 17.2211V25.0048L127.745 23.1157V19.1222L129.634 17.2211Z" fill="#5E5B43"/>
<path d="M129.633 25.0035H121.849L123.739 23.1144H127.744L129.633 25.0035Z" fill="#988F6B"/>
<path d="M127.744 43.4767H123.738V47.4822H127.744V43.4767Z" fill="#8B8562"/>
<path d="M123.739 43.477L121.849 41.5879V49.3717L123.739 47.4705V43.477Z" fill="#B6AD81"/>
<path d="M121.849 41.5879H129.633L127.744 43.477H123.739L121.849 41.5879Z" fill="#7F785B"/>
<path d="M129.634 41.5879V49.3717L127.745 47.4705V43.477L129.634 41.5879Z" fill="#5E5B43"/>
<path d="M123.739 47.4703H127.744L129.633 49.3715H121.849L123.739 47.4703Z" fill="#988F6B"/>
<path d="M152.154 19.11H148.149V23.1155H152.154V19.11Z" fill="#8B8562"/>
<path d="M146.26 17.2211V25.0048L148.149 23.1157V19.1222L146.26 17.2211Z" fill="#B6AD81"/>
<path d="M154.044 17.2211L152.155 19.1222H148.149L146.26 17.2211H154.044Z" fill="#7F785B"/>
<path d="M154.045 25.0048L152.156 23.1157V19.1222L154.045 17.2211V25.0048Z" fill="#5E5B43"/>
<path d="M146.26 25.0035L148.149 23.1144H152.155L154.044 25.0035H146.26Z" fill="#988F6B"/>
<path d="M152.154 43.4767H148.149V47.4822H152.154V43.4767Z" fill="#8B8562"/>
<path d="M146.26 41.5879V49.3717L148.149 47.4705V43.477L146.26 41.5879Z" fill="#B6AD81"/>
<path d="M154.044 41.5879L152.155 43.477H148.149L146.26 41.5879H154.044Z" fill="#7F785B"/>
<path d="M154.045 49.3717L152.156 47.4705V43.477L154.045 41.5879V49.3717Z" fill="#5E5B43"/>
<path d="M152.155 47.4703L154.044 49.3715H146.26L148.149 47.4703H152.155Z" fill="#988F6B"/>
<path d="M176.557 19.11H172.552V23.1155H176.557V19.11Z" fill="#8B8562"/>
<path d="M172.552 19.1222L170.663 17.2211V25.0048L172.552 23.1157V19.1222Z" fill="#B6AD81"/>
<path d="M170.663 17.2211H178.446L176.557 19.1222H172.552L170.663 17.2211Z" fill="#7F785B"/>
<path d="M178.448 17.2211V25.0048L176.559 23.1157V19.1222L178.448 17.2211Z" fill="#5E5B43"/>
<path d="M178.446 25.0035H170.663L172.552 23.1144H176.557L178.446 25.0035Z" fill="#988F6B"/>
<path d="M176.557 43.4767H172.552V47.4822H176.557V43.4767Z" fill="#8B8562"/>
<path d="M172.552 43.477L170.663 41.5879V49.3717L172.552 47.4705V43.477Z" fill="#B6AD81"/>
<path d="M170.663 41.5879H178.446L176.557 43.477H172.552L170.663 41.5879Z" fill="#7F785B"/>
<path d="M178.448 41.5879V49.3717L176.559 47.4705V43.477L178.448 41.5879Z" fill="#5E5B43"/>
<path d="M172.552 47.4703H176.557L178.446 49.3715H170.663L172.552 47.4703Z" fill="#988F6B"/>
<path d="M200.961 19.1096H196.956V23.1151H200.961V19.1096Z" fill="#8B8562"/>
<path d="M196.957 19.1222L195.056 17.2211V25.0048L196.957 23.1157V19.1222Z" fill="#B6AD81"/>
<path d="M195.056 17.2211H202.852L200.963 19.1222H196.957L195.056 17.2211Z" fill="#7F785B"/>
<path d="M202.853 17.2211V25.0048L200.963 23.1157V19.1222L202.853 17.2211Z" fill="#5E5B43"/>
<path d="M202.852 25.0035H195.056L196.957 23.1144H200.963L202.852 25.0035Z" fill="#988F6B"/>
<path d="M200.961 43.4767H196.956V47.4822H200.961V43.4767Z" fill="#8B8562"/>
<path d="M196.957 43.477L195.056 41.5879V49.3717L196.957 47.4705V43.477Z" fill="#B6AD81"/>
<path d="M195.056 41.5879H202.852L200.963 43.477H196.957L195.056 41.5879Z" fill="#7F785B"/>
<path d="M202.853 41.5883V49.3721L200.963 47.4709V43.4774L202.853 41.5883Z" fill="#5E5B43"/>
<path d="M196.957 47.4703H200.963L202.852 49.3715H195.056L196.957 47.4703Z" fill="#988F6B"/>
<path d="M225.36 19.11H221.354V23.1155H225.36V19.11Z" fill="#8B8562"/>
<path d="M221.355 19.1222L219.466 17.2211V25.0048L221.355 23.1157V19.1222Z" fill="#B6AD81"/>
<path d="M219.466 17.2211H227.249L225.36 19.1222H221.355L219.466 17.2211Z" fill="#7F785B"/>
<path d="M227.251 17.2211V25.0048L225.362 23.1157V19.1222L227.251 17.2211Z" fill="#5E5B43"/>
<path d="M227.249 25.0035H219.466L221.355 23.1144H225.36L227.249 25.0035Z" fill="#988F6B"/>
<path d="M225.36 43.4767H221.354V47.4822H225.36V43.4767Z" fill="#8B8562"/>
<path d="M221.355 43.477L219.466 41.5879V49.3717L221.355 47.4705V43.477Z" fill="#B6AD81"/>
<path d="M219.466 41.5879H227.249L225.36 43.477H221.355L219.466 41.5879Z" fill="#7F785B"/>
<path d="M227.251 41.5879V49.3717L225.362 47.4705V43.477L227.251 41.5879Z" fill="#5E5B43"/>
<path d="M221.355 47.4703H225.36L227.249 49.3715H219.466L221.355 47.4703Z" fill="#988F6B"/>
<path d="M249.77 19.11H245.765V23.1155H249.77V19.11Z" fill="#8B8562"/>
<path d="M245.765 19.1222L243.876 17.2211V25.0048L245.765 23.1157V19.1222Z" fill="#B6AD81"/>
<path d="M243.876 17.2211H251.66L249.77 19.1222H245.765L243.876 17.2211Z" fill="#7F785B"/>
<path d="M251.661 17.2211V25.0048L249.772 23.1157V19.1222L251.661 17.2211Z" fill="#5E5B43"/>
<path d="M251.66 25.0035H243.876L245.765 23.1144H249.77L251.66 25.0035Z" fill="#988F6B"/>
<path d="M249.77 43.4767H245.765V47.4822H249.77V43.4767Z" fill="#8B8562"/>
<path d="M245.765 43.477L243.876 41.5879V49.3717L245.765 47.4705V43.477Z" fill="#B6AD81"/>
<path d="M243.876 41.5879H251.66L249.77 43.477H245.765L243.876 41.5879Z" fill="#7F785B"/>
<path d="M251.661 41.5879V49.3717L249.772 47.4705V43.477L251.661 41.5879Z" fill="#5E5B43"/>
<path d="M245.765 47.4703H249.77L251.66 49.3715H243.876L245.765 47.4703Z" fill="#988F6B"/>
<path d="M274.17 19.11H270.165V23.1155H274.17V19.11Z" fill="#8B8562"/>
<path d="M270.165 19.1222L268.276 17.2211V25.0048L270.165 23.1157V19.1222Z" fill="#B6AD81"/>
<path d="M268.276 17.2211H276.06L274.171 19.1222H270.165L268.276 17.2211Z" fill="#7F785B"/>
<path d="M276.061 17.2211V25.0048L274.172 23.1157V19.1222L276.061 17.2211Z" fill="#5E5B43"/>
<path d="M276.06 25.0035H268.276L270.165 23.1144H274.171L276.06 25.0035Z" fill="#988F6B"/>
<path d="M274.17 43.4767H270.165V47.4822H274.17V43.4767Z" fill="#8B8562"/>
<path d="M270.165 43.477L268.276 41.5879V49.3717L270.165 47.4705V43.477Z" fill="#B6AD81"/>
<path d="M268.276 41.5879H276.06L274.171 43.477H270.165L268.276 41.5879Z" fill="#7F785B"/>
<path d="M276.061 41.5879V49.3717L274.172 47.4705V43.477L276.061 41.5879Z" fill="#5E5B43"/>
<path d="M270.165 47.4703H274.171L276.06 49.3715H268.276L270.165 47.4703Z" fill="#988F6B"/>
<path d="M298.573 19.1097H294.567V23.1152H298.573V19.1097Z" fill="#8B8562"/>
<path d="M294.568 19.1219L292.678 17.2208V25.0046L294.568 23.1155V19.1219Z" fill="#B6AD81"/>
<path d="M292.678 17.2208H300.462L298.573 19.1219H294.568L292.678 17.2208Z" fill="#7F785B"/>
<path d="M300.464 17.2211V25.0048L298.574 23.1157V19.1222L300.464 17.2211Z" fill="#5E5B43"/>
<path d="M300.462 25.0035H292.678L294.568 23.1144H298.573L300.462 25.0035Z" fill="#988F6B"/>
<path d="M298.573 43.4771H294.567V47.4826H298.573V43.4771Z" fill="#8B8562"/>
<path d="M294.568 43.4772L292.678 41.5881V49.3719L294.568 47.4708V43.4772Z" fill="#B6AD81"/>
<path d="M292.678 41.5881H300.462L298.573 43.4772H294.568L292.678 41.5881Z" fill="#7F785B"/>
<path d="M300.464 41.5881V49.3719L298.574 47.4708V43.4772L300.464 41.5881Z" fill="#5E5B43"/>
<path d="M294.568 47.4703H298.573L300.462 49.3715H292.678L294.568 47.4703Z" fill="#988F6B"/>
<path d="M322.98 19.1096H318.975V23.1151H322.98V19.1096Z" fill="#8B8562"/>
<path d="M317.075 25.0048L318.976 23.1157V19.1222L317.075 17.2211V25.0048Z" fill="#B6AD81"/>
<path d="M322.982 19.1222H318.976L317.075 17.2211H324.871L322.982 19.1222Z" fill="#7F785B"/>
<path d="M322.982 23.1157V19.1222L324.872 17.2211V25.0048L322.982 23.1157Z" fill="#5E5B43"/>
<path d="M318.976 23.1144H322.982L324.871 25.0035H317.075L318.976 23.1144Z" fill="#988F6B"/>
<path d="M322.98 43.4767H318.975V47.4822H322.98V43.4767Z" fill="#8B8562"/>
<path d="M317.075 49.3717L318.976 47.4705V43.477L317.075 41.5879V49.3717Z" fill="#B6AD81"/>
<path d="M322.982 43.477H318.976L317.075 41.5879H324.871L322.982 43.477Z" fill="#7F785B"/>
<path d="M322.982 47.4709V43.4774L324.872 41.5883V49.3721L322.982 47.4709Z" fill="#5E5B43"/>
<path d="M324.871 49.3715H317.075L318.976 47.4703H322.982L324.871 49.3715Z" fill="#988F6B"/>
<path d="M347.376 19.1101H343.37V23.1156H347.376V19.1101Z" fill="#8B8562"/>
<path d="M343.37 19.1223L341.481 17.2212V25.005L343.37 23.1158V19.1223Z" fill="#B6AD81"/>
<path d="M341.481 17.2212H349.265L347.376 19.1223H343.37L341.481 17.2212Z" fill="#7F785B"/>
<path d="M349.266 17.2212V25.005L347.377 23.1158V19.1223L349.266 17.2212Z" fill="#5E5B43"/>
<path d="M349.265 25.0036H341.481L343.37 23.1145H347.376L349.265 25.0036Z" fill="#988F6B"/>
<path d="M347.376 43.4768H343.37V47.4823H347.376V43.4768Z" fill="#8B8562"/>
<path d="M343.37 43.4772L341.481 41.5881V49.3719L343.37 47.4708V43.4772Z" fill="#B6AD81"/>
<path d="M341.481 41.5881H349.265L347.376 43.4772H343.37L341.481 41.5881Z" fill="#7F785B"/>
<path d="M349.266 41.5881V49.3719L347.377 47.4708V43.4772L349.266 41.5881Z" fill="#5E5B43"/>
<path d="M343.37 47.4705H347.376L349.265 49.3716H341.481L343.37 47.4705Z" fill="#988F6B"/>
<path d="M371.786 19.1101H367.781V23.1156H371.786V19.1101Z" fill="#8B8562"/>
<path d="M367.781 19.1223L365.892 17.2212V25.005L367.781 23.1158V19.1223Z" fill="#B6AD81"/>
<path d="M365.892 17.2212H373.676L371.787 19.1223H367.781L365.892 17.2212Z" fill="#7F785B"/>
<path d="M373.677 17.2212V25.005L371.788 23.1158V19.1223L373.677 17.2212Z" fill="#5E5B43"/>
<path d="M373.676 25.0036H365.892L367.781 23.1145H371.787L373.676 25.0036Z" fill="#988F6B"/>
<path d="M371.786 43.4768H367.781V47.4823H371.786V43.4768Z" fill="#8B8562"/>
<path d="M367.781 43.4772L365.892 41.5881V49.3719L367.781 47.4708V43.4772Z" fill="#B6AD81"/>
<path d="M365.892 41.5881H373.676L371.787 43.4772H367.781L365.892 41.5881Z" fill="#7F785B"/>
<path d="M373.677 41.5881V49.3719L371.788 47.4708V43.4772L373.677 41.5881Z" fill="#5E5B43"/>
<path d="M367.781 47.4705H371.787L373.676 49.3716H365.892L367.781 47.4705Z" fill="#988F6B"/>
<path d="M396.189 19.11H392.184V23.1155H396.189V19.11Z" fill="#8B8562"/>
<path d="M392.184 19.1222L390.295 17.2211V25.0048L392.184 23.1157V19.1222Z" fill="#B6AD81"/>
<path d="M390.295 17.2211H398.078L396.189 19.1222H392.184L390.295 17.2211Z" fill="#7F785B"/>
<path d="M398.08 17.2211V25.0048L396.191 23.1157V19.1222L398.08 17.2211Z" fill="#5E5B43"/>
<path d="M398.078 25.0035H390.295L392.184 23.1144H396.189L398.078 25.0035Z" fill="#988F6B"/>
<path d="M396.189 43.4767H392.184V47.4822H396.189V43.4767Z" fill="#8B8562"/>
<path d="M392.184 43.477L390.295 41.5879V49.3717L392.184 47.4705V43.477Z" fill="#B6AD81"/>
<path d="M390.295 41.5879H398.078L396.189 43.477H392.184L390.295 41.5879Z" fill="#7F785B"/>
<path d="M398.08 41.5879V49.3717L396.191 47.4705V43.477L398.08 41.5879Z" fill="#5E5B43"/>
<path d="M392.184 47.4703H396.189L398.078 49.3715H390.295L392.184 47.4703Z" fill="#988F6B"/>
<path d="M430.997 33.1243V15.1176L425.7 10.0001L411.902 10.0001L406.593 15.1176V33.1243" fill="#404041"/>
<path d="M420.595 19.1096H416.589V23.1151H420.595V19.1096Z" fill="#8B8562"/>
<path d="M414.7 17.2207V25.0045L416.59 23.1153V19.1218L414.7 17.2207Z" fill="#B6AD81"/>
<path d="M422.484 17.2207L420.595 19.1218H416.59L414.7 17.2207H422.484Z" fill="#7F785B"/>
<path d="M422.481 25.0048L420.592 23.1157V19.1222L422.481 17.2211V25.0048Z" fill="#5E5B43"/>
<path d="M414.7 25.0062L416.59 23.1171H420.595L422.484 25.0062H414.7Z" fill="#988F6B"/>
<path d="M420.595 43.4792H416.589V47.4848H420.595V43.4792Z" fill="#8B8562"/>
<path d="M416.59 43.4798L414.7 41.5907V49.3745L416.59 47.4734V43.4798Z" fill="#B6AD81"/>
<path d="M414.7 41.5907H422.484L420.595 43.4798H416.59L414.7 41.5907Z" fill="#7F785B"/>
<path d="M422.48 41.5908V49.3746L420.591 47.4735V43.4799L422.48 41.5908Z" fill="#5E5B43"/>
<path d="M416.59 47.473H420.595L422.484 49.3742H414.7L416.59 47.473Z" fill="#988F6B"/>
<path d="M444.996 19.1097H440.99V23.1152H444.996V19.1097Z" fill="#8B8562"/>
<path d="M440.992 19.1223L439.091 17.2212V25.005L440.992 23.1158V19.1223Z" fill="#B6AD81"/>
<path d="M439.091 17.2212H446.887L444.997 19.1223H440.992L439.091 17.2212Z" fill="#7F785B"/>
<path d="M446.887 17.2212V25.005L444.998 23.1158V19.1223L446.887 17.2212Z" fill="#5E5B43"/>
<path d="M446.887 25.0036H439.091L440.992 23.1145H444.997L446.887 25.0036Z" fill="#988F6B"/>
<path d="M444.996 43.4768H440.99V47.4823H444.996V43.4768Z" fill="#8B8562"/>
<path d="M440.992 43.4772L439.091 41.5881V49.3719L440.992 47.4708V43.4772Z" fill="#B6AD81"/>
<path d="M439.091 41.5881H446.887L444.997 43.4772H440.992L439.091 41.5881Z" fill="#7F785B"/>
<path d="M446.887 41.5884V49.3722L444.998 47.471V43.4775L446.887 41.5884Z" fill="#5E5B43"/>
<path d="M440.992 47.4705H444.997L446.887 49.3716H439.091L440.992 47.4705Z" fill="#988F6B"/>
<path d="M469.39 19.1101H465.385V23.1156H469.39V19.1101Z" fill="#8B8562"/>
<path d="M465.385 19.1223L463.508 17.2212V25.005L465.385 23.1158V19.1223Z" fill="#B6AD81"/>
<path d="M463.508 17.2212H471.292L469.402 19.1223H465.385L463.508 17.2212Z" fill="#7F785B"/>
<path d="M471.293 17.2212V25.005L469.404 23.1158V19.1223L471.293 17.2212Z" fill="#5E5B43"/>
<path d="M471.292 25.0036H463.508L465.385 23.1145H469.402L471.292 25.0036Z" fill="#988F6B"/>
<path d="M469.39 43.4768H465.385V47.4823H469.39V43.4768Z" fill="#8B8562"/>
<path d="M465.385 43.4772L463.508 41.5881V49.3719L465.385 47.4708V43.4772Z" fill="#B6AD81"/>
<path d="M463.508 41.5881H471.292L469.402 43.4772H465.385L463.508 41.5881Z" fill="#7F785B"/>
<path d="M471.293 41.5881V49.3719L469.404 47.4708V43.4772L471.293 41.5881Z" fill="#5E5B43"/>
<path d="M465.385 47.4705H469.402L471.292 49.3716H463.508L465.385 47.4705Z" fill="#988F6B"/>
<path d="M493.798 19.1097H489.793V23.1152H493.798V19.1097Z" fill="#8B8562"/>
<path d="M489.794 19.1219L487.893 17.2208V25.0046L489.794 23.1155V19.1219Z" fill="#B6AD81"/>
<path d="M487.893 17.2208H495.677L493.8 19.1219H489.794L487.893 17.2208Z" fill="#7F785B"/>
<path d="M495.677 17.2208V25.0046L493.8 23.1155V19.1219L495.677 17.2208Z" fill="#5E5B43"/>
<path d="M495.677 25.0036H487.893L489.794 23.1145H493.8L495.677 25.0036Z" fill="#988F6B"/>
<path d="M493.798 43.4768H489.793V47.4823H493.798V43.4768Z" fill="#8B8562"/>
<path d="M489.794 43.4772L487.893 41.5881V49.3719L489.794 47.4708V43.4772Z" fill="#B6AD81"/>
<path d="M487.893 41.5881H495.677L493.8 43.4772H489.794L487.893 41.5881Z" fill="#7F785B"/>
<path d="M495.677 41.5881V49.3719L493.8 47.4708V43.4772L495.677 41.5881Z" fill="#5E5B43"/>
<path d="M489.794 47.4705H493.8L495.677 49.3716H487.893L489.794 47.4705Z" fill="#988F6B"/>
<path d="M518.193 19.1101H514.188V23.1156H518.193V19.1101Z" fill="#8B8562"/>
<path d="M514.188 19.1223L512.311 17.2212V25.005L514.188 23.1158V19.1223Z" fill="#B6AD81"/>
<path d="M512.311 17.2212H520.095L518.205 19.1223H514.188L512.311 17.2212Z" fill="#7F785B"/>
<path d="M520.096 17.2212V25.005L518.207 23.1158V19.1223L520.096 17.2212Z" fill="#5E5B43"/>
<path d="M520.095 25.0036H512.311L514.188 23.1145H518.205L520.095 25.0036Z" fill="#988F6B"/>
<path d="M518.193 43.4768H514.188V47.4823H518.193V43.4768Z" fill="#8B8562"/>
<path d="M514.188 43.4772L512.311 41.5881V49.3719L514.188 47.4708V43.4772Z" fill="#B6AD81"/>
<path d="M512.311 41.5881H520.095L518.205 43.4772H514.188L512.311 41.5881Z" fill="#7F785B"/>
<path d="M520.096 41.5881V49.3719L518.207 47.4708V43.4772L520.096 41.5881Z" fill="#5E5B43"/>
<path d="M514.188 47.4705H518.205L520.095 49.3716H512.311L514.188 47.4705Z" fill="#988F6B"/>
<path d="M542.612 19.1097H538.606V23.1152H542.612V19.1097Z" fill="#8B8562"/>
<path d="M538.608 19.1223L536.707 17.2212V25.005L538.608 23.1158V19.1223Z" fill="#B6AD81"/>
<path d="M536.707 17.2212H544.49L542.613 19.1223H538.608L536.707 17.2212Z" fill="#7F785B"/>
<path d="M544.491 17.2212V25.005L542.614 23.1158V19.1223L544.491 17.2212Z" fill="#5E5B43"/>
<path d="M544.49 25.0036H536.707L538.608 23.1145H542.613L544.49 25.0036Z" fill="#988F6B"/>
<path d="M542.612 43.4768H538.606V47.4823H542.612V43.4768Z" fill="#8B8562"/>
<path d="M538.608 43.4772L536.707 41.5881V49.3719L538.608 47.4708V43.4772Z" fill="#B6AD81"/>
<path d="M536.707 41.5881H544.49L542.613 43.4772H538.608L536.707 41.5881Z" fill="#7F785B"/>
<path d="M544.491 41.5884V49.3722L542.614 47.471V43.4775L544.491 41.5884Z" fill="#5E5B43"/>
<path d="M538.608 47.4705H542.613L544.49 49.3716H536.707L538.608 47.4705Z" fill="#988F6B"/>
</svg>
