<svg width="995" height="853" viewBox="0 0 995 853" fill="none" xmlns="http://www.w3.org/2000/svg">
<path fill-rule="evenodd" clip-rule="evenodd" d="M994.198 802.424C994.198 830.296 971.603 852.891 943.731 852.891L50.4669 852.891C22.5948 852.891 -2.43666e-06 830.296 0 802.424L6.57381e-05 50.4669C6.81748e-05 22.5948 22.5949 -2.43666e-06 50.467 0L943.731 7.80916e-05C971.603 8.05283e-05 994.198 22.5949 994.198 50.467L994.198 802.424ZM908.404 802.424C908.404 785.7 921.961 772.144 938.684 772.144C955.408 772.144 968.964 785.7 968.964 802.424C968.964 819.147 955.408 832.704 938.684 832.704C921.961 832.704 908.404 819.147 908.404 802.424ZM55.5139 772.144C38.7907 772.144 25.2338 785.7 25.2338 802.424C25.2338 819.147 38.7907 832.704 55.5139 832.704C72.2372 832.704 85.7941 819.147 85.7941 802.424C85.7941 785.7 72.2372 772.144 55.5139 772.144ZM908.404 50.4669C908.404 33.7437 921.961 20.1868 938.684 20.1868C955.408 20.1868 968.964 33.7437 968.964 50.467C968.964 67.1902 955.408 80.7471 938.684 80.7471C921.961 80.7471 908.404 67.1902 908.404 50.4669ZM55.5139 20.1868C38.7907 20.1868 25.2338 33.7437 25.2338 50.4669C25.2338 67.1902 38.7907 80.7471 55.5139 80.7471C72.2372 80.7471 85.7941 67.1902 85.7941 50.467C85.7941 33.7437 72.2372 20.1868 55.5139 20.1868Z" fill="#2B7152"/>
<path d="M144.906 50.8661L144.906 22.1587L136.461 14.0001L114.464 14.0001L106 22.1587L106 50.8661" fill="#BE3836"/>
<path d="M144.906 50.8663L144.906 79.5738L136.461 87.7324L114.464 87.7324L106 79.5738L106 50.8663" fill="#EFEA3C"/>
<path d="M183.814 50.8661L183.814 22.1587L175.369 14.0001L153.372 14.0001L144.908 22.1587L144.908 50.8661" fill="#BE3836"/>
<path d="M183.814 50.8663L183.814 79.5738L175.369 87.7324L153.372 87.7324L144.908 79.5738L144.908 50.8663" fill="#69BE87"/>
<path d="M222.714 50.8661L222.714 22.1587L214.269 14.0001L192.272 14.0001L183.808 22.1587L183.808 50.8661" fill="#404041"/>
<path d="M222.714 50.8663L222.714 79.5738L214.269 87.7324L192.272 87.7324L183.808 79.5738L183.808 50.8663" fill="#69BE87"/>
<path d="M261.605 50.8661L261.605 22.1587L253.16 14.0001L231.163 14.0001L222.699 22.1587L222.699 50.8661" fill="#69BE87"/>
<path d="M261.605 50.8663L261.605 79.5738L253.16 87.7324L231.163 87.7324L222.699 79.5738L222.699 50.8663" fill="#69BE87"/>
<path d="M300.513 50.8661L300.513 22.1587L292.069 14.0001L270.071 14.0001L261.607 22.1587L261.607 50.8661" fill="#69BE87"/>
<path d="M300.513 50.8663L300.513 79.5738L292.069 87.7324L270.071 87.7324L261.607 79.5738L261.607 50.8663" fill="#404041"/>
<path d="M339.413 50.8661L339.413 22.1587L330.968 14.0001L308.971 14.0001L300.507 22.1587L300.507 50.8661" fill="#69BE87"/>
<path d="M339.413 50.8663L339.413 79.5738L330.968 87.7324L308.971 87.7324L300.507 79.5738L300.507 50.8663" fill="#69BE87"/>
<path d="M378.304 50.8661L378.304 22.1587L369.859 14.0001L347.861 14.0001L339.398 22.1587L339.398 50.8661" fill="#404041"/>
<path d="M378.304 50.8663L378.304 79.5738L369.859 87.7324L347.861 87.7324L339.398 79.5738L339.398 50.8663" fill="#69BE87"/>
<path d="M417.212 50.8661L417.212 22.1587L408.768 14.0001L386.77 14.0001L378.307 22.1587L378.307 50.8661" fill="#69BE87"/>
<path d="M417.212 50.8663L417.212 79.5738L408.768 87.7324L386.77 87.7324L378.307 79.5738L378.307 50.8663" fill="#69BE87"/>
<path d="M456.095 50.8661L456.095 22.1587L447.65 14.0001L425.653 14.0001L417.189 22.1587L417.189 50.8661" fill="#69BE87"/>
<path d="M456.095 50.8663L456.095 79.5738L447.65 87.7324L425.653 87.7324L417.189 79.5738L417.189 50.8663" fill="#EFEA3C"/>
<path d="M495.003 50.8661L495.003 22.1587L486.559 14.0001L464.561 14.0001L456.098 22.1587L456.098 50.8661" fill="#404041"/>
<path d="M495.003 50.8663L495.003 79.5738L486.559 87.7324L464.561 87.7324L456.098 79.5738L456.098 50.8663" fill="#69BE87"/>
<path d="M533.903 50.8661L533.903 22.1587L525.458 14.0001L503.461 14.0001L494.997 22.1587L494.997 50.8661" fill="#69BE87"/>
<path d="M533.903 50.8663L533.903 79.5738L525.458 87.7324L503.461 87.7324L494.997 79.5738L494.997 50.8663" fill="#69BE87"/>
<path d="M572.794 50.8661L572.794 22.1587L564.349 14.0001L542.352 14.0001L533.888 22.1587L533.888 50.8661" fill="#69BE87"/>
<path d="M572.794 50.8663L572.794 79.5738L564.349 87.7324L542.352 87.7324L533.888 79.5738L533.888 50.8663" fill="#69BE87"/>
<path d="M611.693 50.8661L611.693 22.1587L603.249 14.0001L581.251 14.0001L572.788 22.1587L572.788 50.8661" fill="#69BE87"/>
<path d="M611.693 50.8663L611.693 79.5738L603.249 87.7324L581.251 87.7324L572.788 79.5738L572.788 50.8663" fill="#404041"/>
<path d="M650.602 50.8661L650.602 22.1587L642.157 14.0001L620.16 14.0001L611.696 22.1587L611.696 50.8661" fill="#4DC0E6"/>
<path d="M650.602 50.8663L650.602 79.5738L642.157 87.7324L620.16 87.7324L611.696 79.5738L611.696 50.8663" fill="#4DC0E6"/>
<path d="M689.493 50.8663L689.493 79.5738L681.048 87.7324L659.05 87.7324L650.587 79.5738L650.587 50.8663" fill="#69BE87"/>
<path d="M728.392 50.8661L728.392 22.1587L719.948 14.0001L697.95 14.0001L689.487 22.1587L689.487 50.8661" fill="#69BE87"/>
<path d="M728.392 50.8663L728.392 79.5738L719.948 87.7324L697.95 87.7324L689.487 79.5738L689.487 50.8663" fill="#69BE87"/>
<path d="M767.301 50.8661L767.301 22.1587L758.856 14.0001L736.859 14.0001L728.395 22.1587L728.395 50.8661" fill="#404041"/>
<path d="M767.301 50.8663L767.301 79.5738L758.856 87.7324L736.859 87.7324L728.395 79.5738L728.395 50.8663" fill="#69BE87"/>
<path d="M806.183 50.8661L806.183 22.1587L797.738 14.0001L775.741 14.0001L767.277 22.1587L767.277 50.8661" fill="#69BE87"/>
<path d="M806.183 50.8663L806.183 79.5738L797.738 87.7324L775.741 87.7324L767.277 79.5738L767.277 50.8663" fill="#69BE87"/>
<path d="M845.091 50.8661L845.091 22.1587L836.647 14.0001L814.649 14.0001L806.186 22.1587L806.186 50.8661" fill="#69BE87"/>
<path d="M845.091 50.8663L845.091 79.5738L836.647 87.7324L814.649 87.7324L806.186 79.5738L806.186 50.8663" fill="#69BE87"/>
<path d="M884 50.8661L884 22.1587L875.555 14.0001L853.558 14.0001L845.094 22.1587L845.094 50.8661" fill="#69BE87"/>
<path d="M884 50.8663L884 79.5738L875.555 87.7324L853.558 87.7324L845.094 79.5738L845.094 50.8663" fill="#404041"/>
<path d="M128.227 28.5232L121.841 28.5232L121.841 34.909L128.227 34.909L128.227 28.5232Z" fill="#8B8562"/>
<path d="M121.843 28.5429L118.812 25.5121L118.813 37.9214L121.843 34.9097L121.843 28.5429Z" fill="#B6AD81"/>
<path d="M118.812 25.5121L131.241 25.5121L128.229 28.5429L121.843 28.5429L118.812 25.5121Z" fill="#7F785B"/>
<path d="M131.241 25.5121L131.241 37.9214L128.229 34.9097L128.229 28.5429L131.241 25.5121Z" fill="#5E5B43"/>
<path d="M131.241 37.9236L118.813 37.9236L121.843 34.9119L128.229 34.9119L131.241 37.9236Z" fill="#988F6B"/>
<path d="M128.227 67.3749L121.841 67.3749L121.841 73.7607L128.227 73.7607L128.227 67.3749Z" fill="#8B8562"/>
<path d="M121.843 67.3756L118.812 64.3639L118.813 76.7733L121.843 73.7424L121.843 67.3756Z" fill="#B6AD81"/>
<path d="M118.812 64.3639L131.241 64.3639L128.229 67.3756L121.843 67.3756L118.812 64.3639Z" fill="#7F785B"/>
<path d="M131.241 64.3639L131.241 76.7733L128.229 73.7424L128.229 67.3756L131.241 64.3639Z" fill="#5E5B43"/>
<path d="M121.843 73.7417L128.229 73.7417L131.241 76.7726L118.813 76.7726L121.843 73.7417Z" fill="#988F6B"/>
<path d="M167.125 28.5236L160.739 28.5236L160.739 34.9094L167.125 34.9094L167.125 28.5236Z" fill="#8B8562"/>
<path d="M157.728 25.5125L157.728 37.9218L160.739 34.91L160.739 28.5433L157.728 25.5125Z" fill="#B6AD81"/>
<path d="M170.137 25.5124L167.125 28.5433L160.739 28.5433L157.728 25.5125L170.137 25.5124Z" fill="#7F785B"/>
<path d="M170.139 37.9218L167.127 34.91L167.127 28.5433L170.139 25.5125L170.139 37.9218Z" fill="#5E5B43"/>
<path d="M157.728 37.9196L160.739 34.9078L167.125 34.9078L170.137 37.9196L157.728 37.9196Z" fill="#988F6B"/>
<path d="M167.125 67.3708L160.739 67.3708L160.739 73.7567L167.125 73.7567L167.125 67.3708Z" fill="#8B8562"/>
<path d="M157.728 64.3599L157.728 76.7693L160.739 73.7384L160.739 67.3716L157.728 64.3599Z" fill="#B6AD81"/>
<path d="M170.137 64.3599L167.125 67.3716L160.739 67.3716L157.728 64.3599L170.137 64.3599Z" fill="#7F785B"/>
<path d="M170.139 76.7693L167.127 73.7384L167.127 67.3716L170.139 64.3599L170.139 76.7693Z" fill="#5E5B43"/>
<path d="M167.125 73.7379L170.137 76.7688L157.728 76.7688L160.739 73.7379L167.125 73.7379Z" fill="#988F6B"/>
<path d="M206.029 28.5236L199.644 28.5236L199.644 34.9094L206.029 34.9094L206.029 28.5236Z" fill="#8B8562"/>
<path d="M199.644 28.5433L196.632 25.5125L196.632 37.9218L199.644 34.91L199.644 28.5433Z" fill="#B6AD81"/>
<path d="M196.632 25.5125L209.042 25.5124L206.03 28.5433L199.644 28.5433L196.632 25.5125Z" fill="#7F785B"/>
<path d="M209.044 25.5125L209.044 37.9218L206.032 34.91L206.032 28.5433L209.044 25.5125Z" fill="#5E5B43"/>
<path d="M209.042 37.9196L196.632 37.9196L199.644 34.9078L206.03 34.9078L209.042 37.9196Z" fill="#988F6B"/>
<path d="M206.029 67.3708L199.644 67.3708L199.644 73.7567L206.029 73.7567L206.029 67.3708Z" fill="#8B8562"/>
<path d="M199.644 67.3716L196.632 64.3599L196.632 76.7693L199.644 73.7384L199.644 67.3716Z" fill="#B6AD81"/>
<path d="M196.632 64.3599L209.042 64.3599L206.03 67.3716L199.644 67.3716L196.632 64.3599Z" fill="#7F785B"/>
<path d="M209.044 64.3599L209.044 76.7693L206.032 73.7384L206.032 67.3716L209.044 64.3599Z" fill="#5E5B43"/>
<path d="M199.644 73.7379L206.03 73.7379L209.042 76.7688L196.632 76.7688L199.644 73.7379Z" fill="#988F6B"/>
<path d="M244.946 28.5236L238.561 28.5236L238.561 34.9094L244.946 34.9094L244.946 28.5236Z" fill="#8B8562"/>
<path d="M235.549 25.5125L235.549 37.9218L238.561 34.91L238.561 28.5433L235.549 25.5125Z" fill="#B6AD81"/>
<path d="M247.959 25.5124L244.947 28.5433L238.561 28.5433L235.549 25.5125L247.959 25.5124Z" fill="#7F785B"/>
<path d="M247.961 37.9218L244.949 34.91L244.949 28.5433L247.961 25.5125L247.961 37.9218Z" fill="#5E5B43"/>
<path d="M235.549 37.9196L238.561 34.9078L244.947 34.9078L247.959 37.9196L235.549 37.9196Z" fill="#988F6B"/>
<path d="M244.946 67.3708L238.561 67.3708L238.561 73.7567L244.946 73.7567L244.946 67.3708Z" fill="#8B8562"/>
<path d="M235.549 64.3599L235.549 76.7693L238.561 73.7384L238.561 67.3716L235.549 64.3599Z" fill="#B6AD81"/>
<path d="M247.959 64.3599L244.947 67.3716L238.561 67.3716L235.549 64.3599L247.959 64.3599Z" fill="#7F785B"/>
<path d="M247.961 76.7693L244.949 73.7384L244.949 67.3716L247.961 64.3599L247.961 76.7693Z" fill="#5E5B43"/>
<path d="M244.947 73.7379L247.959 76.7688L235.549 76.7688L238.561 73.7379L244.947 73.7379Z" fill="#988F6B"/>
<path d="M283.851 28.5236L277.465 28.5236L277.465 34.9094L283.851 34.9094L283.851 28.5236Z" fill="#8B8562"/>
<path d="M277.466 28.5433L274.454 25.5125L274.454 37.9218L277.466 34.91L277.466 28.5433Z" fill="#B6AD81"/>
<path d="M274.454 25.5125L286.864 25.5124L283.852 28.5433L277.466 28.5433L274.454 25.5125Z" fill="#7F785B"/>
<path d="M286.866 25.5125L286.866 37.9218L283.854 34.91L283.854 28.5433L286.866 25.5125Z" fill="#5E5B43"/>
<path d="M286.864 37.9196L274.454 37.9196L277.466 34.9078L283.852 34.9078L286.864 37.9196Z" fill="#988F6B"/>
<path d="M283.851 67.3708L277.465 67.3708L277.465 73.7567L283.851 73.7567L283.851 67.3708Z" fill="#8B8562"/>
<path d="M277.466 67.3716L274.454 64.3599L274.454 76.7693L277.466 73.7384L277.466 67.3716Z" fill="#B6AD81"/>
<path d="M274.454 64.3599L286.864 64.3599L283.852 67.3716L277.466 67.3716L274.454 64.3599Z" fill="#7F785B"/>
<path d="M286.866 64.3599L286.866 76.7693L283.854 73.7384L283.854 67.3716L286.866 64.3599Z" fill="#5E5B43"/>
<path d="M277.466 73.7379L283.852 73.7379L286.864 76.7688L274.454 76.7688L277.466 73.7379Z" fill="#988F6B"/>
<path d="M322.758 28.5236L316.372 28.5236L316.372 34.9094L322.758 34.9094L322.758 28.5236Z" fill="#8B8562"/>
<path d="M316.374 28.5433L313.343 25.5125L313.343 37.9218L316.374 34.91L316.374 28.5433Z" fill="#B6AD81"/>
<path d="M313.343 25.5125L325.772 25.5124L322.76 28.5433L316.374 28.5433L313.343 25.5125Z" fill="#7F785B"/>
<path d="M325.773 25.5125L325.773 37.9218L322.761 34.91L322.761 28.5433L325.773 25.5125Z" fill="#5E5B43"/>
<path d="M325.772 37.9196L313.343 37.9196L316.374 34.9078L322.76 34.9078L325.772 37.9196Z" fill="#988F6B"/>
<path d="M322.758 67.3708L316.372 67.3708L316.372 73.7567L322.758 73.7567L322.758 67.3708Z" fill="#8B8562"/>
<path d="M316.374 67.3716L313.343 64.3599L313.343 76.7693L316.374 73.7384L316.374 67.3716Z" fill="#B6AD81"/>
<path d="M313.343 64.3599L325.772 64.3599L322.76 67.3716L316.374 67.3716L313.343 64.3599Z" fill="#7F785B"/>
<path d="M325.773 64.3599L325.773 76.7693L322.761 73.7384L322.761 67.3716L325.773 64.3599Z" fill="#5E5B43"/>
<path d="M316.374 73.7379L322.76 73.7379L325.772 76.7688L313.343 76.7688L316.374 73.7379Z" fill="#988F6B"/>
<path d="M361.655 28.5236L355.27 28.5236L355.27 34.9094L361.655 34.9094L361.655 28.5236Z" fill="#8B8562"/>
<path d="M355.27 28.5433L352.258 25.5125L352.258 37.9218L355.27 34.91L355.27 28.5433Z" fill="#B6AD81"/>
<path d="M352.258 25.5125L364.668 25.5124L361.656 28.5433L355.27 28.5433L352.258 25.5125Z" fill="#7F785B"/>
<path d="M364.67 25.5125L364.67 37.9218L361.658 34.91L361.658 28.5433L364.67 25.5125Z" fill="#5E5B43"/>
<path d="M364.668 37.9196L352.258 37.9196L355.27 34.9078L361.656 34.9078L364.668 37.9196Z" fill="#988F6B"/>
<path d="M361.655 67.3708L355.27 67.3708L355.27 73.7567L361.655 73.7567L361.655 67.3708Z" fill="#8B8562"/>
<path d="M355.27 67.3716L352.258 64.3599L352.258 76.7693L355.27 73.7384L355.27 67.3716Z" fill="#B6AD81"/>
<path d="M352.258 64.3599L364.668 64.3599L361.656 67.3716L355.27 67.3716L352.258 64.3599Z" fill="#7F785B"/>
<path d="M364.67 64.3599L364.67 76.7693L361.658 73.7384L361.658 67.3716L364.67 64.3599Z" fill="#5E5B43"/>
<path d="M355.27 73.7379L361.656 73.7379L364.668 76.7688L352.258 76.7688L355.27 73.7379Z" fill="#988F6B"/>
<path d="M400.572 28.5236L394.187 28.5236L394.187 34.9094L400.572 34.9094L400.572 28.5236Z" fill="#8B8562"/>
<path d="M394.187 28.5433L391.175 25.5125L391.175 37.9218L394.187 34.91L394.187 28.5433Z" fill="#B6AD81"/>
<path d="M391.175 25.5125L403.585 25.5124L400.573 28.5433L394.187 28.5433L391.175 25.5125Z" fill="#7F785B"/>
<path d="M403.587 25.5125L403.587 37.9218L400.575 34.91L400.575 28.5433L403.587 25.5125Z" fill="#5E5B43"/>
<path d="M403.585 37.9196L391.175 37.9196L394.187 34.9078L400.573 34.9078L403.585 37.9196Z" fill="#988F6B"/>
<path d="M400.572 67.3708L394.187 67.3708L394.187 73.7567L400.572 73.7567L400.572 67.3708Z" fill="#8B8562"/>
<path d="M394.187 67.3716L391.175 64.3599L391.175 76.7693L394.187 73.7384L394.187 67.3716Z" fill="#B6AD81"/>
<path d="M391.175 64.3599L403.585 64.3599L400.573 67.3716L394.187 67.3716L391.175 64.3599Z" fill="#7F785B"/>
<path d="M403.587 64.3599L403.587 76.7693L400.575 73.7384L400.575 67.3716L403.587 64.3599Z" fill="#5E5B43"/>
<path d="M394.187 73.7379L400.573 73.7379L403.585 76.7688L391.175 76.7688L394.187 73.7379Z" fill="#988F6B"/>
<path d="M439.472 28.5236L433.086 28.5236L433.086 34.9094L439.472 34.9094L439.472 28.5236Z" fill="#8B8562"/>
<path d="M433.087 28.5433L430.075 25.5125L430.075 37.9218L433.087 34.91L433.087 28.5433Z" fill="#B6AD81"/>
<path d="M430.075 25.5125L442.484 25.5124L439.472 28.5433L433.087 28.5433L430.075 25.5125Z" fill="#7F785B"/>
<path d="M442.486 25.5125L442.486 37.9218L439.475 34.91L439.475 28.5433L442.486 25.5125Z" fill="#5E5B43"/>
<path d="M442.484 37.9196L430.075 37.9196L433.087 34.9078L439.472 34.9078L442.484 37.9196Z" fill="#988F6B"/>
<path d="M439.472 67.3708L433.086 67.3708L433.086 73.7567L439.472 73.7567L439.472 67.3708Z" fill="#8B8562"/>
<path d="M433.087 67.3716L430.075 64.3599L430.075 76.7693L433.087 73.7384L433.087 67.3716Z" fill="#B6AD81"/>
<path d="M430.075 64.3599L442.484 64.3599L439.472 67.3716L433.087 67.3716L430.075 64.3599Z" fill="#7F785B"/>
<path d="M442.486 64.3599L442.486 76.7693L439.475 73.7384L439.475 67.3716L442.486 64.3599Z" fill="#5E5B43"/>
<path d="M433.087 73.7379L439.472 73.7379L442.484 76.7688L430.075 76.7688L433.087 73.7379Z" fill="#988F6B"/>
<path d="M478.376 28.5236L471.99 28.5236L471.99 34.9094L478.376 34.9094L478.376 28.5236Z" fill="#8B8562"/>
<path d="M471.991 28.5429L468.979 25.5121L468.979 37.9214L471.991 34.9097L471.991 28.5429Z" fill="#B6AD81"/>
<path d="M468.979 25.5121L481.389 25.5121L478.377 28.5429L471.991 28.5429L468.979 25.5121Z" fill="#7F785B"/>
<path d="M481.391 25.5125L481.391 37.9218L478.379 34.91L478.379 28.5433L481.391 25.5125Z" fill="#5E5B43"/>
<path d="M481.389 37.9196L468.979 37.9196L471.991 34.9078L478.377 34.9078L481.389 37.9196Z" fill="#988F6B"/>
<path d="M478.376 67.3708L471.99 67.3708L471.99 73.7567L478.376 73.7567L478.376 67.3708Z" fill="#8B8562"/>
<path d="M471.991 67.3716L468.979 64.3599L468.979 76.7693L471.991 73.7384L471.991 67.3716Z" fill="#B6AD81"/>
<path d="M468.979 64.3599L481.389 64.3599L478.377 67.3716L471.991 67.3716L468.979 64.3599Z" fill="#7F785B"/>
<path d="M481.391 64.3599L481.391 76.7693L478.379 73.7384L478.379 67.3716L481.391 64.3599Z" fill="#5E5B43"/>
<path d="M471.991 73.7379L478.377 73.7379L481.389 76.7688L468.979 76.7688L471.991 73.7379Z" fill="#988F6B"/>
<path d="M517.289 28.5236L510.903 28.5236L510.903 34.9094L517.289 34.9094L517.289 28.5236Z" fill="#8B8562"/>
<path d="M507.874 37.9218L510.905 34.91L510.905 28.5433L507.874 25.5125L507.874 37.9218Z" fill="#B6AD81"/>
<path d="M517.291 28.5433L510.905 28.5433L507.874 25.5125L520.303 25.5124L517.291 28.5433Z" fill="#7F785B"/>
<path d="M517.292 34.91L517.292 28.5433L520.303 25.5125L520.303 37.9218L517.292 34.91Z" fill="#5E5B43"/>
<path d="M510.905 34.9078L517.291 34.9078L520.303 37.9196L507.874 37.9196L510.905 34.9078Z" fill="#988F6B"/>
<path d="M517.289 67.3708L510.903 67.3708L510.903 73.7567L517.289 73.7567L517.289 67.3708Z" fill="#8B8562"/>
<path d="M507.874 76.7693L510.905 73.7384L510.905 67.3716L507.874 64.3599L507.874 76.7693Z" fill="#B6AD81"/>
<path d="M517.291 67.3716L510.905 67.3716L507.874 64.3599L520.303 64.3599L517.291 67.3716Z" fill="#7F785B"/>
<path d="M517.292 73.7384L517.292 67.3716L520.303 64.3599L520.303 76.7693L517.292 73.7384Z" fill="#5E5B43"/>
<path d="M520.303 76.7688L507.874 76.7688L510.905 73.7379L517.291 73.7379L520.303 76.7688Z" fill="#988F6B"/>
<path d="M556.181 28.5236L549.795 28.5236L549.795 34.9094L556.181 34.9094L556.181 28.5236Z" fill="#8B8562"/>
<path d="M549.795 28.5433L546.784 25.5125L546.784 37.9218L549.795 34.91L549.795 28.5433Z" fill="#B6AD81"/>
<path d="M546.784 25.5125L559.193 25.5124L556.181 28.5433L549.795 28.5433L546.784 25.5125Z" fill="#7F785B"/>
<path d="M559.195 25.5125L559.195 37.9218L556.184 34.91L556.184 28.5433L559.195 25.5125Z" fill="#5E5B43"/>
<path d="M559.193 37.9196L546.784 37.9196L549.795 34.9078L556.181 34.9078L559.193 37.9196Z" fill="#988F6B"/>
<path d="M556.181 67.3708L549.795 67.3708L549.795 73.7567L556.181 73.7567L556.181 67.3708Z" fill="#8B8562"/>
<path d="M549.795 67.3716L546.784 64.3599L546.784 76.7693L549.795 73.7384L549.795 67.3716Z" fill="#B6AD81"/>
<path d="M546.784 64.3599L559.193 64.3599L556.181 67.3716L549.795 67.3716L546.784 64.3599Z" fill="#7F785B"/>
<path d="M559.195 64.3599L559.195 76.7693L556.184 73.7384L556.184 67.3716L559.195 64.3599Z" fill="#5E5B43"/>
<path d="M549.795 73.7379L556.181 73.7379L559.193 76.7688L546.784 76.7688L549.795 73.7379Z" fill="#988F6B"/>
<path d="M595.098 28.5236L588.712 28.5236L588.712 34.9094L595.098 34.9094L595.098 28.5236Z" fill="#8B8562"/>
<path d="M588.713 28.5433L585.701 25.5125L585.701 37.9218L588.713 34.91L588.713 28.5433Z" fill="#B6AD81"/>
<path d="M585.701 25.5125L598.11 25.5124L595.098 28.5433L588.713 28.5433L585.701 25.5125Z" fill="#7F785B"/>
<path d="M598.112 25.5125L598.112 37.9218L595.101 34.91L595.101 28.5433L598.112 25.5125Z" fill="#5E5B43"/>
<path d="M598.11 37.9196L585.701 37.9196L588.713 34.9078L595.098 34.9078L598.11 37.9196Z" fill="#988F6B"/>
<path d="M595.098 67.3708L588.712 67.3708L588.712 73.7567L595.098 73.7567L595.098 67.3708Z" fill="#8B8562"/>
<path d="M588.713 67.3716L585.701 64.3599L585.701 76.7693L588.713 73.7384L588.713 67.3716Z" fill="#B6AD81"/>
<path d="M585.701 64.3599L598.11 64.3599L595.098 67.3716L588.713 67.3716L585.701 64.3599Z" fill="#7F785B"/>
<path d="M598.112 64.3599L598.112 76.7693L595.101 73.7384L595.101 67.3716L598.112 64.3599Z" fill="#5E5B43"/>
<path d="M588.713 73.7379L595.098 73.7379L598.11 76.7688L585.701 76.7688L588.713 73.7379Z" fill="#988F6B"/>
<path d="M634.002 28.5236L627.616 28.5236L627.616 34.9094L634.002 34.9094L634.002 28.5236Z" fill="#8B8562"/>
<path d="M627.617 28.5433L624.605 25.5125L624.605 37.9218L627.617 34.91L627.617 28.5433Z" fill="#B6AD81"/>
<path d="M624.605 25.5125L637.015 25.5124L634.003 28.5433L627.617 28.5433L624.605 25.5125Z" fill="#7F785B"/>
<path d="M637.017 25.5125L637.017 37.9218L634.005 34.91L634.005 28.5433L637.017 25.5125Z" fill="#5E5B43"/>
<path d="M637.014 37.9196L624.605 37.9196L627.617 34.9078L634.003 34.9078L637.014 37.9196Z" fill="#988F6B"/>
<path d="M634.002 67.3708L627.616 67.3708L627.616 73.7567L634.002 73.7567L634.002 67.3708Z" fill="#8B8562"/>
<path d="M627.617 67.3716L624.605 64.3599L624.605 76.7693L627.617 73.7384L627.617 67.3716Z" fill="#B6AD81"/>
<path d="M624.605 64.3599L637.014 64.3599L634.003 67.3716L627.617 67.3716L624.605 64.3599Z" fill="#7F785B"/>
<path d="M637.017 64.3599L637.017 76.7693L634.005 73.7384L634.005 67.3716L637.017 64.3599Z" fill="#5E5B43"/>
<path d="M627.617 73.7379L634.003 73.7379L637.014 76.7688L624.605 76.7688L627.617 73.7379Z" fill="#988F6B"/>
<path d="M689.494 50.8661L689.494 22.1587L681.05 14.0001L659.052 14.0001L650.589 22.1587L650.589 50.8661" fill="#404041"/>
<path d="M672.912 28.5232L666.526 28.5232L666.526 34.909L672.912 34.909L672.912 28.5232Z" fill="#8B8562"/>
<path d="M663.515 25.5121L663.515 37.9214L666.526 34.9097L666.526 28.5429L663.515 25.5121Z" fill="#B6AD81"/>
<path d="M675.924 25.5121L672.912 28.5429L666.526 28.5429L663.515 25.5121L675.924 25.5121Z" fill="#7F785B"/>
<path d="M675.918 37.9214L672.906 34.9097L672.906 28.5429L675.918 25.5121L675.918 37.9214Z" fill="#5E5B43"/>
<path d="M663.515 37.9236L666.526 34.9119L672.912 34.9119L675.924 37.9236L663.515 37.9236Z" fill="#988F6B"/>
<path d="M672.911 67.3749L666.525 67.3749L666.525 73.7607L672.911 73.7607L672.911 67.3749Z" fill="#8B8562"/>
<path d="M666.526 67.3756L663.514 64.3639L663.514 76.7733L666.526 73.7424L666.526 67.3756Z" fill="#B6AD81"/>
<path d="M663.514 64.3639L675.923 64.3639L672.911 67.3756L666.526 67.3756L663.514 64.3639Z" fill="#7F785B"/>
<path d="M675.917 64.3639L675.917 76.7733L672.905 73.7424L672.905 67.3756L675.917 64.3639Z" fill="#5E5B43"/>
<path d="M666.526 73.7417L672.911 73.7417L675.923 76.7726L663.514 76.7726L666.526 73.7417Z" fill="#988F6B"/>
<path d="M711.814 28.5236L705.428 28.5236L705.428 34.9094L711.814 34.9094L711.814 28.5236Z" fill="#8B8562"/>
<path d="M705.43 28.5433L702.399 25.5125L702.399 37.9218L705.43 34.91L705.43 28.5433Z" fill="#B6AD81"/>
<path d="M702.399 25.5125L714.827 25.5124L711.816 28.5433L705.43 28.5433L702.399 25.5125Z" fill="#7F785B"/>
<path d="M714.828 25.5125L714.828 37.9218L711.816 34.91L711.816 28.5433L714.828 25.5125Z" fill="#5E5B43"/>
<path d="M714.827 37.9196L702.399 37.9196L705.43 34.9078L711.816 34.9078L714.827 37.9196Z" fill="#988F6B"/>
<path d="M711.814 67.3708L705.428 67.3708L705.428 73.7567L711.814 73.7567L711.814 67.3708Z" fill="#8B8562"/>
<path d="M705.43 67.3716L702.399 64.3599L702.399 76.7693L705.43 73.7384L705.43 67.3716Z" fill="#B6AD81"/>
<path d="M702.399 64.3599L714.827 64.3599L711.816 67.3716L705.43 67.3716L702.399 64.3599Z" fill="#7F785B"/>
<path d="M714.828 64.3599L714.828 76.7693L711.816 73.7384L711.816 67.3716L714.828 64.3599Z" fill="#5E5B43"/>
<path d="M705.43 73.7379L711.816 73.7379L714.827 76.7688L702.399 76.7688L705.43 73.7379Z" fill="#988F6B"/>
<path d="M750.706 28.5236L744.32 28.5236L744.32 34.9094L750.706 34.9094L750.706 28.5236Z" fill="#8B8562"/>
<path d="M744.319 28.5433L741.327 25.5125L741.327 37.9218L744.319 34.91L744.319 28.5433Z" fill="#B6AD81"/>
<path d="M741.327 25.5125L753.736 25.5124L750.724 28.5433L744.319 28.5433L741.327 25.5125Z" fill="#7F785B"/>
<path d="M753.738 25.5125L753.738 37.9218L750.727 34.91L750.727 28.5433L753.738 25.5125Z" fill="#5E5B43"/>
<path d="M753.736 37.9196L741.327 37.9196L744.319 34.9078L750.724 34.9078L753.736 37.9196Z" fill="#988F6B"/>
<path d="M750.706 67.3708L744.32 67.3708L744.32 73.7567L750.706 73.7567L750.706 67.3708Z" fill="#8B8562"/>
<path d="M744.319 67.3716L741.327 64.3599L741.327 76.7693L744.319 73.7384L744.319 67.3716Z" fill="#B6AD81"/>
<path d="M741.327 64.3599L753.736 64.3599L750.724 67.3716L744.319 67.3716L741.327 64.3599Z" fill="#7F785B"/>
<path d="M753.738 64.3599L753.738 76.7693L750.727 73.7384L750.727 67.3716L753.738 64.3599Z" fill="#5E5B43"/>
<path d="M744.319 73.7379L750.724 73.7379L753.736 76.7688L741.327 76.7688L744.319 73.7379Z" fill="#988F6B"/>
<path d="M789.618 28.5236L783.232 28.5236L783.232 34.9094L789.618 34.9094L789.618 28.5236Z" fill="#8B8562"/>
<path d="M783.234 28.5429L780.204 25.5121L780.204 37.9214L783.234 34.9097L783.234 28.5429Z" fill="#B6AD81"/>
<path d="M780.204 25.5121L792.613 25.5121L789.62 28.5429L783.234 28.5429L780.204 25.5121Z" fill="#7F785B"/>
<path d="M792.613 25.5125L792.613 37.9218L789.621 34.91L789.621 28.5433L792.613 25.5125Z" fill="#5E5B43"/>
<path d="M792.613 37.9196L780.204 37.9196L783.234 34.9078L789.62 34.9078L792.613 37.9196Z" fill="#988F6B"/>
<path d="M789.618 67.3708L783.232 67.3708L783.232 73.7567L789.618 73.7567L789.618 67.3708Z" fill="#8B8562"/>
<path d="M783.234 67.3716L780.204 64.3599L780.204 76.7693L783.234 73.7384L783.234 67.3716Z" fill="#B6AD81"/>
<path d="M780.204 64.3599L792.613 64.3599L789.62 67.3716L783.234 67.3716L780.204 64.3599Z" fill="#7F785B"/>
<path d="M792.613 64.3599L792.613 76.7693L789.621 73.7384L789.621 67.3716L792.613 64.3599Z" fill="#5E5B43"/>
<path d="M783.234 73.7379L789.62 73.7379L792.613 76.7688L780.204 76.7688L783.234 73.7379Z" fill="#988F6B"/>
<path d="M828.51 28.5236L822.124 28.5236L822.124 34.9094L828.51 34.9094L828.51 28.5236Z" fill="#8B8562"/>
<path d="M822.124 28.5433L819.131 25.5125L819.131 37.9218L822.124 34.91L822.124 28.5433Z" fill="#B6AD81"/>
<path d="M819.131 25.5125L831.54 25.5124L828.528 28.5433L822.124 28.5433L819.131 25.5125Z" fill="#7F785B"/>
<path d="M831.542 25.5125L831.542 37.9218L828.53 34.91L828.53 28.5433L831.542 25.5125Z" fill="#5E5B43"/>
<path d="M831.54 37.9196L819.13 37.9196L822.123 34.9078L828.528 34.9078L831.54 37.9196Z" fill="#988F6B"/>
<path d="M828.51 67.3708L822.124 67.3708L822.124 73.7567L828.51 73.7567L828.51 67.3708Z" fill="#8B8562"/>
<path d="M822.123 67.3716L819.13 64.3599L819.13 76.7693L822.123 73.7384L822.123 67.3716Z" fill="#B6AD81"/>
<path d="M819.13 64.3599L831.54 64.3599L828.528 67.3716L822.123 67.3716L819.13 64.3599Z" fill="#7F785B"/>
<path d="M831.542 64.3599L831.542 76.7693L828.53 73.7384L828.53 67.3716L831.542 64.3599Z" fill="#5E5B43"/>
<path d="M822.123 73.7379L828.528 73.7379L831.54 76.7688L819.13 76.7688L822.123 73.7379Z" fill="#988F6B"/>
<path d="M867.439 28.5236L861.054 28.5236L861.054 34.9094L867.439 34.9094L867.439 28.5236Z" fill="#8B8562"/>
<path d="M861.056 28.5433L858.025 25.5125L858.025 37.9218L861.056 34.91L861.056 28.5433Z" fill="#B6AD81"/>
<path d="M858.025 25.5125L870.435 25.5124L867.442 28.5433L861.056 28.5433L858.025 25.5125Z" fill="#7F785B"/>
<path d="M870.435 25.5125L870.435 37.9218L867.442 34.91L867.442 28.5433L870.435 25.5125Z" fill="#5E5B43"/>
<path d="M870.434 37.9196L858.025 37.9196L861.056 34.9078L867.442 34.9078L870.434 37.9196Z" fill="#988F6B"/>
<path d="M867.439 67.3708L861.054 67.3708L861.054 73.7567L867.439 73.7567L867.439 67.3708Z" fill="#8B8562"/>
<path d="M861.056 67.3716L858.025 64.3599L858.025 76.7693L861.056 73.7384L861.056 67.3716Z" fill="#B6AD81"/>
<path d="M858.025 64.3599L870.434 64.3599L867.442 67.3716L861.056 67.3716L858.025 64.3599Z" fill="#7F785B"/>
<path d="M870.435 64.3599L870.435 76.7693L867.442 73.7384L867.442 67.3716L870.435 64.3599Z" fill="#5E5B43"/>
<path d="M861.056 73.7379L867.442 73.7379L870.434 76.7688L858.025 76.7688L861.056 73.7379Z" fill="#988F6B"/>
</svg>
