<svg width="650" height="300" viewBox="0 0 650 300" fill="none" xmlns="http://www.w3.org/2000/svg">
<path d="M625 0C638.807 1.20705e-06 650 11.1929 650 25V275C650 288.807 638.807 300 625 300H25C11.1929 300 -1.20706e-06 288.807 0 275V25C1.67542e-05 11.1929 11.1929 1.34713e-05 25 0H625ZM37 250C28.7158 250 22 256.716 22 265C22 273.284 28.7157 280 37 280C45.2843 280 52 273.284 52 265C52 256.716 45.2842 250 37 250ZM613 250C604.716 250 598 256.716 598 265C598 273.284 604.716 280 613 280C621.284 280 628 273.284 628 265C628 256.716 621.284 250 613 250ZM37 22C28.7157 22 22 28.7157 22 37C22 45.2843 28.7157 52 37 52C45.2843 52 52 45.2843 52 37C52 28.7157 45.2843 22 37 22ZM613 22C604.716 22 598 28.7157 598 37C598 45.2843 604.716 52 613 52C621.284 52 628 45.2843 628 37C628 28.7157 621.284 22 613 22Z" fill="#076E50"/>
<path d="M83.4701 54.2601C87.5636 54.2601 90.8821 50.9417 90.8821 46.8482C90.8821 42.7546 87.5636 39.4361 83.4701 39.4361C79.3765 39.4361 76.0581 42.7546 76.0581 46.8482C76.0581 50.9417 79.3765 54.2601 83.4701 54.2601Z" stroke="#F5B91B" stroke-width="0.352778"/>
<path d="M109.024 54.2601C113.118 54.2601 116.436 50.9417 116.436 46.8482C116.436 42.7546 113.118 39.4361 109.024 39.4361C104.93 39.4361 101.612 42.7546 101.612 46.8482C101.612 50.9417 104.93 54.2601 109.024 54.2601Z" stroke="#F5B91B" stroke-width="0.352778"/>
<path d="M134.566 54.2601C138.659 54.2601 141.978 50.9417 141.978 46.8482C141.978 42.7546 138.659 39.4361 134.566 39.4361C130.472 39.4361 127.154 42.7546 127.154 46.8482C127.154 50.9417 130.472 54.2601 134.566 54.2601Z" stroke="#F5B91B" stroke-width="0.352778"/>
<path d="M160.12 54.2601C164.213 54.2601 167.532 50.9417 167.532 46.8482C167.532 42.7547 164.213 39.4361 160.12 39.4361C156.026 39.4361 152.708 42.7547 152.708 46.8482C152.708 50.9417 156.026 54.2601 160.12 54.2601Z" stroke="#F5B91B" stroke-width="0.352778"/>
<path d="M185.673 54.2601C189.767 54.2601 193.085 50.9417 193.085 46.8482C193.085 42.7547 189.767 39.4361 185.673 39.4361C181.58 39.4361 178.261 42.7547 178.261 46.8482C178.261 50.9417 181.58 54.2601 185.673 54.2601Z" stroke="#F5B91B" stroke-width="0.352778"/>
<path d="M211.227 54.2601C215.32 54.2601 218.639 50.9417 218.639 46.8482C218.639 42.7547 215.32 39.4361 211.227 39.4361C207.133 39.4361 203.815 42.7547 203.815 46.8482C203.815 50.9417 207.133 54.2601 211.227 54.2601Z" stroke="#F5B91B" stroke-width="0.352778"/>
<path d="M236.781 54.2601C240.874 54.2601 244.193 50.9417 244.193 46.8482C244.193 42.7547 240.874 39.4361 236.781 39.4361C232.687 39.4361 229.369 42.7547 229.369 46.8482C229.369 50.9417 232.687 54.2601 236.781 54.2601Z" stroke="#F5B91B" stroke-width="0.352778"/>
<path d="M262.335 54.2601C266.428 54.2601 269.747 50.9417 269.747 46.8482C269.747 42.7547 266.428 39.4361 262.335 39.4361C258.241 39.4361 254.923 42.7547 254.923 46.8482C254.923 50.9417 258.241 54.2601 262.335 54.2601Z" stroke="#F5B91B" stroke-width="0.352778"/>
<path d="M287.888 54.2601C291.982 54.2601 295.3 50.9417 295.3 46.8482C295.3 42.7547 291.982 39.4361 287.888 39.4361C283.795 39.4361 280.476 42.7547 280.476 46.8482C280.476 50.9417 283.795 54.2601 287.888 54.2601Z" stroke="#F5B91B" stroke-width="0.352778"/>
<path d="M313.442 54.2601C317.536 54.2601 320.854 50.9417 320.854 46.8482C320.854 42.7547 317.536 39.4362 313.442 39.4362C309.349 39.4362 306.03 42.7547 306.03 46.8482C306.03 50.9417 309.349 54.2601 313.442 54.2601Z" stroke="#F5B91B" stroke-width="0.352778"/>
<path d="M338.996 54.2601C343.09 54.2601 346.408 50.9417 346.408 46.8482C346.408 42.7547 343.09 39.4362 338.996 39.4362C334.903 39.4362 331.584 42.7547 331.584 46.8482C331.584 50.9417 334.903 54.2601 338.996 54.2601Z" stroke="#F5B91B" stroke-width="0.352778"/>
<path d="M364.55 54.2601C368.644 54.2601 371.962 50.9417 371.962 46.8482C371.962 42.7547 368.644 39.4362 364.55 39.4362C360.457 39.4362 357.138 42.7547 357.138 46.8482C357.138 50.9417 360.457 54.2601 364.55 54.2601Z" stroke="#F5B91B" stroke-width="0.352778"/>
<path d="M390.104 54.2601C394.197 54.2601 397.516 50.9417 397.516 46.8482C397.516 42.7547 394.197 39.4362 390.104 39.4362C386.01 39.4362 382.692 42.7547 382.692 46.8482C382.692 50.9417 386.01 54.2601 390.104 54.2601Z" stroke="#F5B91B" stroke-width="0.352778"/>
<path d="M415.657 54.2601C419.751 54.2601 423.069 50.9417 423.069 46.8482C423.069 42.7547 419.751 39.4362 415.657 39.4362C411.564 39.4362 408.245 42.7547 408.245 46.8482C408.245 50.9417 411.564 54.2601 415.657 54.2601Z" stroke="#F5B91B" stroke-width="0.352778"/>
<path d="M441.211 54.2601C445.305 54.2601 448.623 50.9417 448.623 46.8482C448.623 42.7547 445.305 39.4362 441.211 39.4362C437.118 39.4362 433.799 42.7547 433.799 46.8482C433.799 50.9417 437.118 54.2601 441.211 54.2601Z" stroke="#F5B91B" stroke-width="0.352778"/>
<path d="M466.751 54.2601C470.845 54.2601 474.163 50.9417 474.163 46.8482C474.163 42.7547 470.845 39.4362 466.751 39.4362C462.658 39.4362 459.339 42.7547 459.339 46.8482C459.339 50.9417 462.658 54.2601 466.751 54.2601Z" stroke="#F5B91B" stroke-width="0.352778"/>
<path d="M492.319 54.2602C496.413 54.2602 499.731 50.9417 499.731 46.8482C499.731 42.7547 496.413 39.4362 492.319 39.4362C488.226 39.4362 484.907 42.7547 484.907 46.8482C484.907 50.9417 488.226 54.2602 492.319 54.2602Z" stroke="#F5B91B" stroke-width="0.352778"/>
<path d="M517.873 54.2602C521.966 54.2602 525.285 50.9417 525.285 46.8482C525.285 42.7547 521.966 39.4362 517.873 39.4362C513.779 39.4362 510.461 42.7547 510.461 46.8482C510.461 50.9417 513.779 54.2602 517.873 54.2602Z" stroke="#F5B91B" stroke-width="0.352778"/>
<path d="M543.413 54.2602C547.506 54.2602 550.825 50.9417 550.825 46.8482C550.825 42.7547 547.506 39.4362 543.413 39.4362C539.319 39.4362 536.001 42.7547 536.001 46.8482C536.001 50.9417 539.319 54.2602 543.413 54.2602Z" stroke="#F5B91B" stroke-width="0.352778"/>
<path d="M568.98 54.2602C573.074 54.2602 576.392 50.9417 576.392 46.8482C576.392 42.7547 573.074 39.4362 568.98 39.4362C564.887 39.4362 561.568 42.7547 561.568 46.8482C561.568 50.9417 564.887 54.2602 568.98 54.2602Z" stroke="#F5B91B" stroke-width="0.352778"/>
<path d="M568.98 28.7063C573.074 28.7063 576.392 25.3879 576.392 21.2943C576.392 17.2008 573.074 13.8824 568.98 13.8824C564.887 13.8824 561.568 17.2008 561.568 21.2943C561.568 25.3879 564.887 28.7063 568.98 28.7063Z" stroke="#F5B91B" stroke-width="0.352778"/>
<path d="M543.413 28.7063C547.506 28.7063 550.825 25.3879 550.825 21.2943C550.825 17.2008 547.506 13.8824 543.413 13.8824C539.319 13.8824 536.001 17.2008 536.001 21.2943C536.001 25.3879 539.319 28.7063 543.413 28.7063Z" stroke="#F5B91B" stroke-width="0.352778"/>
<path d="M517.873 28.7063C521.966 28.7063 525.285 25.3878 525.285 21.2943C525.285 17.2008 521.966 13.8824 517.873 13.8824C513.779 13.8824 510.461 17.2008 510.461 21.2943C510.461 25.3878 513.779 28.7063 517.873 28.7063Z" stroke="#F5B91B" stroke-width="0.352778"/>
<path d="M492.319 28.7063C496.413 28.7063 499.731 25.3878 499.731 21.2943C499.731 17.2008 496.413 13.8824 492.319 13.8824C488.226 13.8824 484.907 17.2008 484.907 21.2943C484.907 25.3878 488.226 28.7063 492.319 28.7063Z" stroke="#F5B91B" stroke-width="0.352778"/>
<path d="M466.751 28.7063C470.845 28.7063 474.163 25.3878 474.163 21.2943C474.163 17.2008 470.845 13.8824 466.751 13.8824C462.658 13.8824 459.339 17.2008 459.339 21.2943C459.339 25.3878 462.658 28.7063 466.751 28.7063Z" stroke="#F5B91B" stroke-width="0.352778"/>
<path d="M441.211 28.7063C445.305 28.7063 448.623 25.3878 448.623 21.2943C448.623 17.2008 445.305 13.8824 441.211 13.8824C437.118 13.8824 433.799 17.2008 433.799 21.2943C433.799 25.3878 437.118 28.7063 441.211 28.7063Z" stroke="#F5B91B" stroke-width="0.352778"/>
<path d="M415.657 28.7063C419.751 28.7063 423.069 25.3878 423.069 21.2943C423.069 17.2008 419.751 13.8824 415.657 13.8824C411.564 13.8824 408.245 17.2008 408.245 21.2943C408.245 25.3878 411.564 28.7063 415.657 28.7063Z" stroke="#F5B91B" stroke-width="0.352778"/>
<path d="M390.104 28.7063C394.197 28.7063 397.516 25.3878 397.516 21.2943C397.516 17.2008 394.197 13.8824 390.104 13.8824C386.01 13.8824 382.692 17.2008 382.692 21.2943C382.692 25.3878 386.01 28.7063 390.104 28.7063Z" stroke="#F5B91B" stroke-width="0.352778"/>
<path d="M364.55 28.7063C368.644 28.7063 371.962 25.3878 371.962 21.2943C371.962 17.2008 368.644 13.8824 364.55 13.8824C360.457 13.8824 357.138 17.2008 357.138 21.2943C357.138 25.3878 360.457 28.7063 364.55 28.7063Z" stroke="#F5B91B" stroke-width="0.352778"/>
<path d="M338.996 28.7063C343.09 28.7063 346.408 25.3878 346.408 21.2943C346.408 17.2008 343.09 13.8824 338.996 13.8824C334.903 13.8824 331.584 17.2008 331.584 21.2943C331.584 25.3878 334.903 28.7063 338.996 28.7063Z" stroke="#F5B91B" stroke-width="0.352778"/>
<path d="M313.442 28.7063C317.536 28.7063 320.854 25.3878 320.854 21.2943C320.854 17.2008 317.536 13.8824 313.442 13.8824C309.349 13.8824 306.03 17.2008 306.03 21.2943C306.03 25.3878 309.349 28.7063 313.442 28.7063Z" stroke="#F5B91B" stroke-width="0.352778"/>
<path d="M287.888 28.7063C291.982 28.7063 295.3 25.3878 295.3 21.2943C295.3 17.2008 291.982 13.8824 287.888 13.8824C283.795 13.8824 280.476 17.2008 280.476 21.2943C280.476 25.3878 283.795 28.7063 287.888 28.7063Z" stroke="#F5B91B" stroke-width="0.352778"/>
<path d="M262.335 28.7063C266.428 28.7063 269.747 25.3878 269.747 21.2943C269.747 17.2008 266.428 13.8824 262.335 13.8824C258.241 13.8824 254.923 17.2008 254.923 21.2943C254.923 25.3878 258.241 28.7063 262.335 28.7063Z" stroke="#F5B91B" stroke-width="0.352778"/>
<path d="M236.781 28.7063C240.874 28.7063 244.193 25.3878 244.193 21.2943C244.193 17.2008 240.874 13.8824 236.781 13.8824C232.687 13.8824 229.369 17.2008 229.369 21.2943C229.369 25.3878 232.687 28.7063 236.781 28.7063Z" stroke="#F5B91B" stroke-width="0.352778"/>
<path d="M211.227 28.7063C215.32 28.7063 218.639 25.3878 218.639 21.2943C218.639 17.2008 215.32 13.8824 211.227 13.8824C207.133 13.8824 203.815 17.2008 203.815 21.2943C203.815 25.3878 207.133 28.7063 211.227 28.7063Z" stroke="#F5B91B" stroke-width="0.352778"/>
<path d="M185.673 28.7063C189.767 28.7063 193.085 25.3878 193.085 21.2943C193.085 17.2008 189.767 13.8824 185.673 13.8824C181.58 13.8824 178.261 17.2008 178.261 21.2943C178.261 25.3878 181.58 28.7063 185.673 28.7063Z" stroke="#F5B91B" stroke-width="0.352778"/>
<path d="M160.12 28.7062C164.213 28.7062 167.532 25.3878 167.532 21.2943C167.532 17.2008 164.213 13.8823 160.12 13.8823C156.026 13.8823 152.708 17.2008 152.708 21.2943C152.708 25.3878 156.026 28.7062 160.12 28.7062Z" stroke="#F5B91B" stroke-width="0.352778"/>
<path d="M134.566 28.7062C138.659 28.7062 141.978 25.3878 141.978 21.2943C141.978 17.2008 138.659 13.8823 134.566 13.8823C130.472 13.8823 127.154 17.2008 127.154 21.2943C127.154 25.3878 130.472 28.7062 134.566 28.7062Z" stroke="#F5B91B" stroke-width="0.352778"/>
<path d="M109.024 28.7062C113.118 28.7062 116.436 25.3878 116.436 21.2943C116.436 17.2008 113.118 13.8823 109.024 13.8823C104.93 13.8823 101.612 17.2008 101.612 21.2943C101.612 25.3878 104.93 28.7062 109.024 28.7062Z" stroke="#F5B91B" stroke-width="0.352778"/>
<path d="M83.4703 28.7063C87.5638 28.7063 90.8823 25.3878 90.8823 21.2943C90.8823 17.2008 87.5638 13.8824 83.4703 13.8824C79.3768 13.8824 76.0583 17.2008 76.0583 21.2943C76.0583 25.3878 79.3768 28.7063 83.4703 28.7063Z" stroke="#F5B91B" stroke-width="0.352778"/>
<path d="M96.5538 33.6771V14.8216L91.0073 9.46295H76.559L71 14.8216V33.6771" fill="#BE3836"/>
<path d="M96.5538 33.6772V52.5326L91.0073 57.8913H76.559L71 52.5326V33.6772" fill="#EFEA3C"/>
<path d="M122.108 33.6771V14.8216L116.561 9.46297H102.113L96.554 14.8216V33.6771" fill="#BE3836"/>
<path d="M122.108 33.6772V52.5326L116.561 57.8913H102.113L96.554 52.5326V33.6772" fill="#69BE87"/>
<path d="M147.662 33.6771V14.8216L142.115 9.46297H127.667L122.108 14.8216V33.6771" fill="#404041"/>
<path d="M147.662 33.6772V52.5326L142.115 57.8913H127.667L122.108 52.5326V33.6772" fill="#69BE87"/>
<path d="M173.203 33.6771V14.8216L167.657 9.46298H153.208L147.649 14.8216V33.6771" fill="#69BE87"/>
<path d="M173.203 33.6772V52.5326L167.657 57.8913H153.208L147.649 52.5326V33.6772" fill="#69BE87"/>
<path d="M198.757 33.6771V14.8216L193.21 9.46298H178.762L173.203 14.8216V33.6771" fill="#69BE87"/>
<path d="M198.757 33.6772V52.5327L193.21 57.8914H178.762L173.203 52.5327V33.6772" fill="#404041"/>
<path d="M224.311 33.6771V14.8216L218.764 9.46298H204.316L198.757 14.8216V33.6771" fill="#69BE87"/>
<path d="M224.311 33.6772V52.5327L218.764 57.8914H204.316L198.757 52.5327V33.6772" fill="#69BE87"/>
<path d="M249.852 33.6771V14.8216L244.306 9.46298H229.857L224.299 14.8216V33.6771" fill="#404041"/>
<path d="M249.852 33.6772V52.5327L244.306 57.8914H229.857L224.299 52.5327V33.6772" fill="#69BE87"/>
<path d="M275.406 33.6771V14.8216L269.86 9.46298H255.412L249.853 14.8216V33.6771" fill="#69BE87"/>
<path d="M275.406 33.6772V52.5327L269.86 57.8914H255.412L249.853 52.5327V33.6772" fill="#69BE87"/>
<path d="M300.946 33.6771V14.8216L295.4 9.46298H280.951L275.392 14.8216V33.6771" fill="#69BE87"/>
<path d="M300.946 33.6772V52.5327L295.4 57.8914H280.951L275.392 52.5327V33.6772" fill="#EFEA3C"/>
<path d="M326.5 33.6771V14.8217L320.954 9.463H306.505L300.946 14.8217V33.6771" fill="#404041"/>
<path d="M326.5 33.6772V52.5327L320.954 57.8914H306.505L300.946 52.5327V33.6772" fill="#69BE87"/>
<path d="M352.054 33.6771V14.8217L346.507 9.463H332.059L326.5 14.8217V33.6771" fill="#69BE87"/>
<path d="M352.054 33.6772V52.5327L346.507 57.8914H332.059L326.5 52.5327V33.6772" fill="#69BE87"/>
<path d="M377.595 33.6771V14.8217L372.049 9.463H357.6L352.042 14.8217V33.6771" fill="#69BE87"/>
<path d="M377.595 33.6772V52.5327L372.049 57.8914H357.6L352.042 52.5327V33.6772" fill="#69BE87"/>
<path d="M403.149 33.6771V14.8217L397.603 9.463H383.154L377.595 14.8217V33.6771" fill="#69BE87"/>
<path d="M403.149 33.6772V52.5327L397.603 57.8914H383.154L377.595 52.5327V33.6772" fill="#404041"/>
<path d="M428.703 33.6771V14.8217L423.157 9.463H408.708L403.149 14.8217V33.6771" fill="#4DC0E6"/>
<path d="M428.703 33.6772V52.5327L423.157 57.8914H408.708L403.149 52.5327V33.6772" fill="#4DC0E6"/>
<path d="M454.245 33.6772V52.5327L448.698 57.8914H434.25L428.691 52.5327V33.6772" fill="#69BE87"/>
<path d="M479.798 33.6771V14.8217L474.252 9.463H459.804L454.245 14.8217V33.6771" fill="#69BE87"/>
<path d="M479.798 33.6772V52.5327L474.252 57.8914H459.804L454.245 52.5327V33.6772" fill="#69BE87"/>
<path d="M505.352 33.6771V14.8217L499.806 9.46301H485.357L479.798 14.8217V33.6771" fill="#404041"/>
<path d="M505.352 33.6772V52.5327L499.806 57.8914H485.357L479.798 52.5327V33.6772" fill="#69BE87"/>
<path d="M530.893 33.6771V14.8217L525.346 9.46301H510.898L505.339 14.8217V33.6771" fill="#69BE87"/>
<path d="M530.893 33.6772V52.5327L525.346 57.8914H510.898L505.339 52.5327V33.6772" fill="#69BE87"/>
<path d="M556.446 33.6771V14.8217L550.899 9.46301H536.451L530.892 14.8217V33.6771" fill="#69BE87"/>
<path d="M556.446 33.6772V52.5327L550.899 57.8914H536.451L530.892 52.5327V33.6772" fill="#69BE87"/>
<path d="M582 33.6771V14.8217L576.453 9.46301H562.005L556.446 14.8217V33.6771" fill="#69BE87"/>
<path d="M582 33.6772V52.5327L576.453 57.8914H562.005L556.446 52.5327V33.6772" fill="#404041"/>
<path d="M85.5988 19.0032H81.4045V23.1975H85.5988V19.0032Z" fill="#8B8562"/>
<path d="M81.4043 19.0157L79.4136 17.025V25.1757L81.4043 23.1975V19.0157Z" fill="#B6AD81"/>
<path d="M79.4136 17.025H87.5768L85.5986 19.0157H81.4043L79.4136 17.025Z" fill="#7F785B"/>
<path d="M87.5763 17.025V25.1757L85.5981 23.1975V19.0157L87.5763 17.025Z" fill="#5E5B43"/>
<path d="M87.5768 25.176H79.4136L81.4043 23.1978H85.5986L87.5768 25.176Z" fill="#988F6B"/>
<path d="M85.5988 44.5197H81.4045V48.714H85.5988V44.5197Z" fill="#8B8562"/>
<path d="M81.4043 44.5198L79.4136 42.5416V50.6923L81.4043 48.7016V44.5198Z" fill="#B6AD81"/>
<path d="M79.4136 42.5416H87.5768L85.5986 44.5198H81.4043L79.4136 42.5416Z" fill="#7F785B"/>
<path d="M87.5763 42.5416V50.6923L85.5981 48.7016V44.5198L87.5763 42.5416Z" fill="#5E5B43"/>
<path d="M81.4043 48.7013H85.5986L87.5768 50.692H79.4136L81.4043 48.7013Z" fill="#988F6B"/>
<path d="M111.153 19.0033H106.958V23.1976H111.153V19.0033Z" fill="#8B8562"/>
<path d="M104.979 17.025V25.1757L106.958 23.1975V19.0157L104.979 17.025Z" fill="#B6AD81"/>
<path d="M113.13 17.025L111.152 19.0157H106.958L104.979 17.025H113.13Z" fill="#7F785B"/>
<path d="M113.13 25.1757L111.152 23.1976V19.0158L113.13 17.0251V25.1757Z" fill="#5E5B43"/>
<path d="M104.979 25.1756L106.958 23.1974H111.152L113.13 25.1756H104.979Z" fill="#988F6B"/>
<path d="M111.153 44.5194H106.958V48.7137H111.153V44.5194Z" fill="#8B8562"/>
<path d="M104.979 42.5412V50.6919L106.958 48.7011V44.5193L104.979 42.5412Z" fill="#B6AD81"/>
<path d="M113.13 42.5412L111.152 44.5193H106.958L104.979 42.5412H113.13Z" fill="#7F785B"/>
<path d="M113.13 50.6919L111.152 48.7011V44.5193L113.13 42.5412V50.6919Z" fill="#5E5B43"/>
<path d="M111.152 48.7013L113.13 50.6921H104.979L106.958 48.7013H111.152Z" fill="#988F6B"/>
<path d="M136.707 19.0033H132.513V23.1976H136.707V19.0033Z" fill="#8B8562"/>
<path d="M132.511 19.0157L130.533 17.025V25.1757L132.511 23.1975V19.0157Z" fill="#B6AD81"/>
<path d="M130.533 17.025H138.684L136.705 19.0157H132.511L130.533 17.025Z" fill="#7F785B"/>
<path d="M138.684 17.0251V25.1757L136.706 23.1976V19.0158L138.684 17.0251Z" fill="#5E5B43"/>
<path d="M138.684 25.1756H130.533L132.511 23.1974H136.706L138.684 25.1756Z" fill="#988F6B"/>
<path d="M136.707 44.5194H132.513V48.7137H136.707V44.5194Z" fill="#8B8562"/>
<path d="M132.511 44.5193L130.533 42.5412V50.6919L132.511 48.7011V44.5193Z" fill="#B6AD81"/>
<path d="M130.533 42.5412H138.684L136.706 44.5193H132.511L130.533 42.5412Z" fill="#7F785B"/>
<path d="M138.684 42.5412V50.6919L136.706 48.7011V44.5193L138.684 42.5412Z" fill="#5E5B43"/>
<path d="M132.511 48.7013H136.706L138.684 50.6921H130.533L132.511 48.7013Z" fill="#988F6B"/>
<path d="M162.26 19.0033H158.066V23.1976H162.26V19.0033Z" fill="#8B8562"/>
<path d="M156.087 17.025V25.1757L158.065 23.1975V19.0157L156.087 17.025Z" fill="#B6AD81"/>
<path d="M164.238 17.025L162.259 19.0157H158.065L156.087 17.025H164.238Z" fill="#7F785B"/>
<path d="M164.238 25.1757L162.26 23.1976V19.0158L164.238 17.0251V25.1757Z" fill="#5E5B43"/>
<path d="M156.087 25.1756L158.065 23.1974H162.259L164.238 25.1756H156.087Z" fill="#988F6B"/>
<path d="M162.26 44.5194H158.066V48.7137H162.26V44.5194Z" fill="#8B8562"/>
<path d="M156.087 42.5412V50.6919L158.065 48.7011V44.5193L156.087 42.5412Z" fill="#B6AD81"/>
<path d="M164.238 42.5412L162.259 44.5193H158.065L156.087 42.5412H164.238Z" fill="#7F785B"/>
<path d="M164.238 50.6919L162.26 48.7011V44.5193L164.238 42.5412V50.6919Z" fill="#5E5B43"/>
<path d="M162.259 48.7013L164.238 50.6921H156.087L158.065 48.7013H162.259Z" fill="#988F6B"/>
<path d="M187.814 19.0033H183.62V23.1976H187.814V19.0033Z" fill="#8B8562"/>
<path d="M183.619 19.0157L181.641 17.025V25.1757L183.619 23.1975V19.0157Z" fill="#B6AD81"/>
<path d="M181.641 17.025H189.792L187.813 19.0157H183.619L181.641 17.025Z" fill="#7F785B"/>
<path d="M189.792 17.0251V25.1757L187.813 23.1976V19.0158L189.792 17.0251Z" fill="#5E5B43"/>
<path d="M189.792 25.1756H181.641L183.619 23.1974H187.814L189.792 25.1756Z" fill="#988F6B"/>
<path d="M187.814 44.5194H183.62V48.7137H187.814V44.5194Z" fill="#8B8562"/>
<path d="M183.619 44.5193L181.641 42.5412V50.6919L183.619 48.7011V44.5193Z" fill="#B6AD81"/>
<path d="M181.641 42.5412H189.792L187.814 44.5193H183.619L181.641 42.5412Z" fill="#7F785B"/>
<path d="M189.792 42.5412V50.6919L187.813 48.7011V44.5193L189.792 42.5412Z" fill="#5E5B43"/>
<path d="M183.619 48.7013H187.814L189.792 50.6921H181.641L183.619 48.7013Z" fill="#988F6B"/>
<path d="M213.368 19.0033H209.174V23.1976H213.368V19.0033Z" fill="#8B8562"/>
<path d="M209.173 19.0158L207.183 17.025V25.1757L209.173 23.1975V19.0158Z" fill="#B6AD81"/>
<path d="M207.183 17.025H215.346L213.368 19.0158H209.173L207.183 17.025Z" fill="#7F785B"/>
<path d="M215.345 17.0251V25.1757L213.367 23.1976V19.0158L215.345 17.0251Z" fill="#5E5B43"/>
<path d="M215.346 25.1756H207.183L209.173 23.1974H213.368L215.346 25.1756Z" fill="#988F6B"/>
<path d="M213.368 44.5194H209.174V48.7137H213.368V44.5194Z" fill="#8B8562"/>
<path d="M209.173 44.5194L207.183 42.5412V50.6919L209.173 48.7011V44.5194Z" fill="#B6AD81"/>
<path d="M207.183 42.5412H215.346L213.368 44.5194H209.173L207.183 42.5412Z" fill="#7F785B"/>
<path d="M215.345 42.5412V50.6919L213.367 48.7011V44.5194L215.345 42.5412Z" fill="#5E5B43"/>
<path d="M209.173 48.7014H213.368L215.346 50.6921H207.183L209.173 48.7014Z" fill="#988F6B"/>
<path d="M238.921 19.0033H234.727V23.1976H238.921V19.0033Z" fill="#8B8562"/>
<path d="M234.726 19.0158L232.748 17.025V25.1757L234.726 23.1975V19.0158Z" fill="#B6AD81"/>
<path d="M232.748 17.025H240.899L238.921 19.0158H234.726L232.748 17.025Z" fill="#7F785B"/>
<path d="M240.899 17.0251V25.1757L238.921 23.1976V19.0158L240.899 17.0251Z" fill="#5E5B43"/>
<path d="M240.899 25.1756H232.748L234.726 23.1974H238.921L240.899 25.1756Z" fill="#988F6B"/>
<path d="M238.921 44.5194H234.727V48.7137H238.921V44.5194Z" fill="#8B8562"/>
<path d="M234.726 44.5194L232.748 42.5412V50.6919L234.726 48.7011V44.5194Z" fill="#B6AD81"/>
<path d="M232.748 42.5412H240.899L238.921 44.5194H234.726L232.748 42.5412Z" fill="#7F785B"/>
<path d="M240.899 42.5412V50.6919L238.921 48.7011V44.5194L240.899 42.5412Z" fill="#5E5B43"/>
<path d="M234.726 48.7014H238.921L240.899 50.6921H232.748L234.726 48.7014Z" fill="#988F6B"/>
<path d="M264.475 19.0033H260.281V23.1976H264.475V19.0033Z" fill="#8B8562"/>
<path d="M260.28 19.0158L258.302 17.025V25.1757L260.28 23.1975V19.0158Z" fill="#B6AD81"/>
<path d="M258.302 17.025H266.453L264.474 19.0158H260.28L258.302 17.025Z" fill="#7F785B"/>
<path d="M266.453 17.0251V25.1757L264.475 23.1976V19.0158L266.453 17.0251Z" fill="#5E5B43"/>
<path d="M266.452 25.1756H258.302L260.28 23.1974H264.474L266.452 25.1756Z" fill="#988F6B"/>
<path d="M264.475 44.5194H260.281V48.7137H264.475V44.5194Z" fill="#8B8562"/>
<path d="M260.28 44.5194L258.302 42.5412V50.6919L260.28 48.7011V44.5194Z" fill="#B6AD81"/>
<path d="M258.302 42.5412H266.452L264.474 44.5194H260.28L258.302 42.5412Z" fill="#7F785B"/>
<path d="M266.453 42.5412V50.6919L264.475 48.7011V44.5194L266.453 42.5412Z" fill="#5E5B43"/>
<path d="M260.28 48.7014H264.474L266.452 50.6921H258.302L260.28 48.7014Z" fill="#988F6B"/>
<path d="M290.029 19.0033H285.835V23.1976H290.029V19.0033Z" fill="#8B8562"/>
<path d="M285.834 19.0158L283.856 17.025V25.1757L285.834 23.1975V19.0158Z" fill="#B6AD81"/>
<path d="M283.856 17.025H292.007L290.028 19.0158H285.834L283.856 17.025Z" fill="#7F785B"/>
<path d="M292.007 17.0251V25.1757L290.029 23.1976V19.0158L292.007 17.0251Z" fill="#5E5B43"/>
<path d="M292.007 25.1756H283.856L285.834 23.1974H290.028L292.007 25.1756Z" fill="#988F6B"/>
<path d="M290.029 44.5194H285.835V48.7137H290.029V44.5194Z" fill="#8B8562"/>
<path d="M285.834 44.5194L283.856 42.5412V50.6919L285.834 48.7011V44.5194Z" fill="#B6AD81"/>
<path d="M283.856 42.5412H292.007L290.028 44.5194H285.834L283.856 42.5412Z" fill="#7F785B"/>
<path d="M292.007 42.5412V50.6919L290.029 48.7011V44.5194L292.007 42.5412Z" fill="#5E5B43"/>
<path d="M285.834 48.7014H290.028L292.007 50.6921H283.856L285.834 48.7014Z" fill="#988F6B"/>
<path d="M315.583 19.0033H311.389V23.1976H315.583V19.0033Z" fill="#8B8562"/>
<path d="M311.388 19.0158L309.41 17.025V25.1757L311.388 23.1975V19.0158Z" fill="#B6AD81"/>
<path d="M309.41 17.025H317.561L315.582 19.0158H311.388L309.41 17.025Z" fill="#7F785B"/>
<path d="M317.561 17.0251V25.1757L315.583 23.1976V19.0158L317.561 17.0251Z" fill="#5E5B43"/>
<path d="M317.561 25.1756H309.41L311.388 23.1974H315.583L317.561 25.1756Z" fill="#988F6B"/>
<path d="M315.583 44.5194H311.389V48.7137H315.583V44.5194Z" fill="#8B8562"/>
<path d="M311.388 44.5194L309.41 42.5412V50.6919L311.388 48.7011V44.5194Z" fill="#B6AD81"/>
<path d="M309.41 42.5412H317.561L315.583 44.5194H311.388L309.41 42.5412Z" fill="#7F785B"/>
<path d="M317.561 42.5412V50.6919L315.583 48.7011V44.5194L317.561 42.5412Z" fill="#5E5B43"/>
<path d="M311.388 48.7014H315.583L317.561 50.6921H309.41L311.388 48.7014Z" fill="#988F6B"/>
<path d="M341.137 19.0033H336.943V23.1976H341.137V19.0033Z" fill="#8B8562"/>
<path d="M334.952 25.1757L336.942 23.1975V19.0158L334.952 17.025V25.1757Z" fill="#B6AD81"/>
<path d="M341.137 19.0158H336.942L334.952 17.025H343.115L341.137 19.0158Z" fill="#7F785B"/>
<path d="M341.136 23.1976V19.0158L343.114 17.0251V25.1757L341.136 23.1976Z" fill="#5E5B43"/>
<path d="M336.942 23.1974H341.137L343.115 25.1756H334.952L336.942 23.1974Z" fill="#988F6B"/>
<path d="M341.137 44.5194H336.943V48.7137H341.137V44.5194Z" fill="#8B8562"/>
<path d="M334.952 50.6919L336.942 48.7011V44.5194L334.952 42.5412V50.6919Z" fill="#B6AD81"/>
<path d="M341.137 44.5194H336.942L334.952 42.5412H343.115L341.137 44.5194Z" fill="#7F785B"/>
<path d="M341.136 48.7011V44.5194L343.114 42.5412V50.6919L341.136 48.7011Z" fill="#5E5B43"/>
<path d="M343.115 50.6921H334.952L336.942 48.7014H341.137L343.115 50.6921Z" fill="#988F6B"/>
<path d="M366.691 19.0033H362.497V23.1976H366.691V19.0033Z" fill="#8B8562"/>
<path d="M362.495 19.0158L360.517 17.025V25.1757L362.495 23.1975V19.0158Z" fill="#B6AD81"/>
<path d="M360.517 17.025H368.668L366.69 19.0158H362.495L360.517 17.025Z" fill="#7F785B"/>
<path d="M368.668 17.0251V25.1757L366.69 23.1976V19.0158L368.668 17.0251Z" fill="#5E5B43"/>
<path d="M368.668 25.1756H360.517L362.495 23.1974H366.69L368.668 25.1756Z" fill="#988F6B"/>
<path d="M366.691 44.5194H362.497V48.7137H366.691V44.5194Z" fill="#8B8562"/>
<path d="M362.495 44.5194L360.517 42.5412V50.6919L362.495 48.7011V44.5194Z" fill="#B6AD81"/>
<path d="M360.517 42.5412H368.668L366.69 44.5194H362.495L360.517 42.5412Z" fill="#7F785B"/>
<path d="M368.668 42.5412V50.6919L366.69 48.7011V44.5194L368.668 42.5412Z" fill="#5E5B43"/>
<path d="M362.495 48.7014H366.69L368.668 50.6921H360.517L362.495 48.7014Z" fill="#988F6B"/>
<path d="M392.244 19.0033H388.05V23.1976H392.244V19.0033Z" fill="#8B8562"/>
<path d="M388.049 19.0158L386.071 17.0251V25.1757L388.049 23.1975V19.0158Z" fill="#B6AD81"/>
<path d="M386.071 17.0251H394.222L392.244 19.0158H388.049L386.071 17.0251Z" fill="#7F785B"/>
<path d="M394.222 17.0251V25.1758L392.244 23.1976V19.0158L394.222 17.0251Z" fill="#5E5B43"/>
<path d="M394.221 25.1756H386.071L388.049 23.1974H392.243L394.221 25.1756Z" fill="#988F6B"/>
<path d="M392.244 44.5194H388.05V48.7137H392.244V44.5194Z" fill="#8B8562"/>
<path d="M388.049 44.5194L386.071 42.5412V50.6919L388.049 48.7012V44.5194Z" fill="#B6AD81"/>
<path d="M386.071 42.5412H394.221L392.243 44.5194H388.049L386.071 42.5412Z" fill="#7F785B"/>
<path d="M394.222 42.5412V50.6919L392.244 48.7012V44.5194L394.222 42.5412Z" fill="#5E5B43"/>
<path d="M388.049 48.7014H392.243L394.221 50.6921H386.071L388.049 48.7014Z" fill="#988F6B"/>
<path d="M417.798 19.0033H413.604V23.1976H417.798V19.0033Z" fill="#8B8562"/>
<path d="M413.603 19.0158L411.625 17.0251V25.1757L413.603 23.1975V19.0158Z" fill="#B6AD81"/>
<path d="M411.625 17.0251H419.776L417.797 19.0158H413.603L411.625 17.0251Z" fill="#7F785B"/>
<path d="M419.776 17.0251V25.1758L417.798 23.1976V19.0158L419.776 17.0251Z" fill="#5E5B43"/>
<path d="M419.776 25.1756H411.625L413.603 23.1974H417.797L419.776 25.1756Z" fill="#988F6B"/>
<path d="M417.798 44.5194H413.604V48.7137H417.798V44.5194Z" fill="#8B8562"/>
<path d="M413.603 44.5194L411.625 42.5412V50.6919L413.603 48.7012V44.5194Z" fill="#B6AD81"/>
<path d="M411.625 42.5412H419.776L417.797 44.5194H413.603L411.625 42.5412Z" fill="#7F785B"/>
<path d="M419.776 42.5412V50.6919L417.798 48.7012V44.5194L419.776 42.5412Z" fill="#5E5B43"/>
<path d="M413.603 48.7014H417.797L419.776 50.6921H411.625L413.603 48.7014Z" fill="#988F6B"/>
<path d="M454.245 33.6771V14.8217L448.698 9.463H434.25L428.691 14.8217V33.6771" fill="#404041"/>
<path d="M443.352 19.0033H439.158V23.1975H443.352V19.0033Z" fill="#8B8562"/>
<path d="M437.179 17.0251V25.1757L439.157 23.1975V19.0158L437.179 17.0251Z" fill="#B6AD81"/>
<path d="M445.33 17.0251L443.352 19.0158H439.157L437.179 17.0251H445.33Z" fill="#7F785B"/>
<path d="M445.33 25.1757L443.352 23.1975V19.0158L445.33 17.0251V25.1757Z" fill="#5E5B43"/>
<path d="M437.179 25.176L439.157 23.1978H443.352L445.33 25.176H437.179Z" fill="#988F6B"/>
<path d="M443.352 44.5197H439.158V48.7141H443.352V44.5197Z" fill="#8B8562"/>
<path d="M439.157 44.5198L437.179 42.5417V50.6924L439.157 48.7016V44.5198Z" fill="#B6AD81"/>
<path d="M437.179 42.5417H445.33L443.352 44.5198H439.157L437.179 42.5417Z" fill="#7F785B"/>
<path d="M445.33 42.5417V50.6924L443.352 48.7016V44.5198L445.33 42.5417Z" fill="#5E5B43"/>
<path d="M439.157 48.7013H443.352L445.33 50.6921H437.179L439.157 48.7013Z" fill="#988F6B"/>
<path d="M468.906 19.0033H464.712V23.1976H468.906V19.0033Z" fill="#8B8562"/>
<path d="M464.711 19.0158L462.721 17.0251V25.1757L464.711 23.1975V19.0158Z" fill="#B6AD81"/>
<path d="M462.721 17.0251H470.884L468.906 19.0158H464.711L462.721 17.0251Z" fill="#7F785B"/>
<path d="M470.883 17.0251V25.1758L468.905 23.1976V19.0158L470.883 17.0251Z" fill="#5E5B43"/>
<path d="M470.884 25.1756H462.721L464.711 23.1974H468.906L470.884 25.1756Z" fill="#988F6B"/>
<path d="M468.906 44.5194H464.712V48.7137H468.906V44.5194Z" fill="#8B8562"/>
<path d="M464.711 44.5194L462.721 42.5412V50.6919L464.711 48.7012V44.5194Z" fill="#B6AD81"/>
<path d="M462.721 42.5412H470.884L468.906 44.5194H464.711L462.721 42.5412Z" fill="#7F785B"/>
<path d="M470.883 42.5412V50.6919L468.905 48.7012V44.5194L470.883 42.5412Z" fill="#5E5B43"/>
<path d="M464.711 48.7014H468.906L470.884 50.6921H462.721L464.711 48.7014Z" fill="#988F6B"/>
<path d="M494.446 19.0033H490.252V23.1976H494.446V19.0033Z" fill="#8B8562"/>
<path d="M490.252 19.0158L488.286 17.0251V25.1757L490.252 23.1975V19.0158Z" fill="#B6AD81"/>
<path d="M488.286 17.0251H496.437L494.459 19.0158H490.252L488.286 17.0251Z" fill="#7F785B"/>
<path d="M496.438 17.0251V25.1758L494.459 23.1976V19.0158L496.438 17.0251Z" fill="#5E5B43"/>
<path d="M496.437 25.1756H488.287L490.252 23.1974H494.459L496.437 25.1756Z" fill="#988F6B"/>
<path d="M494.446 44.5194H490.252V48.7137H494.446V44.5194Z" fill="#8B8562"/>
<path d="M490.252 44.5194L488.287 42.5412V50.6919L490.252 48.7012V44.5194Z" fill="#B6AD81"/>
<path d="M488.287 42.5412H496.437L494.459 44.5194H490.252L488.287 42.5412Z" fill="#7F785B"/>
<path d="M496.438 42.5412V50.6919L494.459 48.7012V44.5194L496.438 42.5412Z" fill="#5E5B43"/>
<path d="M490.252 48.7014H494.459L496.437 50.6921H488.287L490.252 48.7014Z" fill="#988F6B"/>
<path d="M520.013 19.0033H515.819V23.1976H520.013V19.0033Z" fill="#8B8562"/>
<path d="M515.819 19.0158L513.828 17.0251V25.1757L515.819 23.1975V19.0158Z" fill="#B6AD81"/>
<path d="M513.828 17.0251H521.979L520.013 19.0158H515.819L513.828 17.0251Z" fill="#7F785B"/>
<path d="M521.979 17.0251V25.1758L520.013 23.1976V19.0158L521.979 17.0251Z" fill="#5E5B43"/>
<path d="M521.979 25.1756H513.828L515.819 23.1974H520.013L521.979 25.1756Z" fill="#988F6B"/>
<path d="M520.013 44.5194H515.819V48.7137H520.013V44.5194Z" fill="#8B8562"/>
<path d="M515.819 44.5194L513.828 42.5412V50.6919L515.819 48.7012V44.5194Z" fill="#B6AD81"/>
<path d="M513.828 42.5412H521.979L520.013 44.5194H515.819L513.828 42.5412Z" fill="#7F785B"/>
<path d="M521.979 42.5412V50.6919L520.013 48.7012V44.5194L521.979 42.5412Z" fill="#5E5B43"/>
<path d="M515.819 48.7014H520.013L521.979 50.6921H513.828L515.819 48.7014Z" fill="#988F6B"/>
<path d="M545.554 19.0033H541.359V23.1976H545.554V19.0033Z" fill="#8B8562"/>
<path d="M541.36 19.0158L539.394 17.0251V25.1757L541.36 23.1975V19.0158Z" fill="#B6AD81"/>
<path d="M539.394 17.0251H547.545L545.567 19.0158H541.36L539.394 17.0251Z" fill="#7F785B"/>
<path d="M547.545 17.0251V25.1758L545.567 23.1976V19.0158L547.545 17.0251Z" fill="#5E5B43"/>
<path d="M547.545 25.1756H539.394L541.36 23.1974H545.567L547.545 25.1756Z" fill="#988F6B"/>
<path d="M545.554 44.5194H541.359V48.7137H545.554V44.5194Z" fill="#8B8562"/>
<path d="M541.36 44.5194L539.394 42.5412V50.6919L541.36 48.7012V44.5194Z" fill="#B6AD81"/>
<path d="M539.394 42.5412H547.545L545.567 44.5194H541.36L539.394 42.5412Z" fill="#7F785B"/>
<path d="M547.545 42.5412V50.6919L545.567 48.7012V44.5194L547.545 42.5412Z" fill="#5E5B43"/>
<path d="M541.36 48.7014H545.567L547.545 50.6921H539.394L541.36 48.7014Z" fill="#988F6B"/>
<path d="M571.121 19.0033H566.927V23.1976H571.121V19.0033Z" fill="#8B8562"/>
<path d="M566.927 19.0158L564.936 17.0251V25.1757L566.927 23.1975V19.0158Z" fill="#B6AD81"/>
<path d="M564.936 17.0251H573.086L571.121 19.0158H566.927L564.936 17.0251Z" fill="#7F785B"/>
<path d="M573.086 17.0251V25.1758L571.12 23.1976V19.0158L573.086 17.0251Z" fill="#5E5B43"/>
<path d="M573.086 25.1756H564.936L566.926 23.1974H571.121L573.086 25.1756Z" fill="#988F6B"/>
<path d="M571.121 44.5194H566.927V48.7138H571.121V44.5194Z" fill="#8B8562"/>
<path d="M566.926 44.5194L564.936 42.5412V50.6919L566.926 48.7012V44.5194Z" fill="#B6AD81"/>
<path d="M564.936 42.5412H573.086L571.121 44.5194H566.926L564.936 42.5412Z" fill="#7F785B"/>
<path d="M573.086 42.5412V50.6919L571.12 48.7012V44.5194L573.086 42.5412Z" fill="#5E5B43"/>
<path d="M566.926 48.7014H571.121L573.086 50.6921H564.936L566.926 48.7014Z" fill="#988F6B"/>
</svg>
