<svg width="335" height="250" viewBox="0 0 335 250" fill="none" xmlns="http://www.w3.org/2000/svg">
<path d="M321.19 0C328.52 0 334.462 5.98233 334.462 13.3604V235.731C334.462 243.109 328.52 249.092 321.19 249.092H13.2715C5.9419 249.092 0.000240635 243.109 0 235.731V13.3604C4.23457e-05 5.98233 5.94178 0 13.2715 0H321.19ZM12.3887 170.432C9.17228 170.432 6.56445 173.053 6.56445 176.285C6.56457 179.517 9.17236 182.138 12.3887 182.138C15.6048 182.137 18.2118 179.517 18.2119 176.285C18.2119 173.053 15.6049 170.432 12.3887 170.432ZM322.389 170.432C319.172 170.432 316.564 173.053 316.564 176.285C316.565 179.517 319.172 182.138 322.389 182.138C325.605 182.137 328.212 179.517 328.212 176.285C328.212 173.053 325.605 170.432 322.389 170.432ZM8.51758 127.344C6.28913 127.344 4.48263 129.16 4.48242 131.399C4.48242 133.639 6.289 135.455 8.51758 135.455C10.7463 135.455 12.5537 133.639 12.5537 131.399C12.5535 129.16 10.7462 127.344 8.51758 127.344ZM8.51758 54.3438C6.28913 54.3439 4.48263 56.1599 4.48242 58.3994C4.48242 60.6391 6.289 62.4549 8.51758 62.4551C10.7463 62.4551 12.5537 60.6392 12.5537 58.3994C12.5535 56.1598 10.7462 54.3438 8.51758 54.3438ZM12.3887 7.43164C9.17228 7.43164 6.56445 10.0527 6.56445 13.2852C6.56457 16.5175 9.17236 19.1377 12.3887 19.1377C15.6048 19.1375 18.2118 16.5173 18.2119 13.2852C18.2119 10.0529 15.6049 7.43188 12.3887 7.43164ZM204.389 7.43164C201.172 7.43164 198.564 10.0527 198.564 13.2852C198.565 16.5175 201.172 19.1377 204.389 19.1377C207.605 19.1375 210.212 16.5173 210.212 13.2852C210.212 10.0529 207.605 7.43188 204.389 7.43164ZM322.389 7.43164C319.172 7.43164 316.564 10.0527 316.564 13.2852C316.565 16.5175 319.172 19.1377 322.389 19.1377C325.605 19.1375 328.212 16.5173 328.212 13.2852C328.212 10.0529 325.605 7.43188 322.389 7.43164Z" fill="#087C63"/>
<path d="M27.1339 19.9245C28.4909 19.9245 29.591 18.819 29.591 17.4552C29.591 16.0914 28.4909 14.9858 27.1339 14.9858C25.7768 14.9858 24.6768 16.0914 24.6768 17.4552C24.6768 18.819 25.7768 19.9245 27.1339 19.9245Z" stroke="#F5B91B" stroke-width="0.352778"/>
<path d="M35.6046 19.9245C36.9616 19.9245 38.0617 18.819 38.0617 17.4552C38.0617 16.0914 36.9616 14.9858 35.6046 14.9858C34.2475 14.9858 33.1475 16.0914 33.1475 17.4552C33.1475 18.819 34.2475 19.9245 35.6046 19.9245Z" stroke="#F5B91B" stroke-width="0.352778"/>
<path d="M44.0723 19.9245C45.4293 19.9245 46.5294 18.819 46.5294 17.4552C46.5294 16.0914 45.4293 14.9858 44.0723 14.9858C42.7153 14.9858 41.6152 16.0914 41.6152 17.4552C41.6152 18.819 42.7153 19.9245 44.0723 19.9245Z" stroke="#F5B91B" stroke-width="0.352778"/>
<path d="M52.543 19.9245C53.9 19.9245 55.0001 18.819 55.0001 17.4552C55.0001 16.0914 53.9 14.9858 52.543 14.9858C51.186 14.9858 50.0859 16.0914 50.0859 17.4552C50.0859 18.819 51.186 19.9245 52.543 19.9245Z" stroke="#F5B91B" stroke-width="0.352778"/>
<path d="M61.0147 19.9245C62.3717 19.9245 63.4718 18.819 63.4718 17.4552C63.4718 16.0914 62.3717 14.9858 61.0147 14.9858C59.6577 14.9858 58.5576 16.0914 58.5576 17.4552C58.5576 18.819 59.6577 19.9245 61.0147 19.9245Z" stroke="#F5B91B" stroke-width="0.352778"/>
<path d="M69.4854 19.9245C70.8425 19.9245 71.9425 18.819 71.9425 17.4552C71.9425 16.0914 70.8425 14.9858 69.4854 14.9858C68.1284 14.9858 67.0283 16.0914 67.0283 17.4552C67.0283 18.819 68.1284 19.9245 69.4854 19.9245Z" stroke="#F5B91B" stroke-width="0.352778"/>
<path d="M77.9571 19.9245C79.3141 19.9245 80.4142 18.819 80.4142 17.4552C80.4142 16.0914 79.3141 14.9858 77.9571 14.9858C76.6001 14.9858 75.5 16.0914 75.5 17.4552C75.5 18.819 76.6001 19.9245 77.9571 19.9245Z" stroke="#F5B91B" stroke-width="0.352778"/>
<path d="M86.4278 19.9245C87.7848 19.9245 88.8849 18.819 88.8849 17.4552C88.8849 16.0914 87.7848 14.9858 86.4278 14.9858C85.0708 14.9858 83.9707 16.0914 83.9707 17.4552C83.9707 18.819 85.0708 19.9245 86.4278 19.9245Z" stroke="#F5B91B" stroke-width="0.352778"/>
<path d="M94.8995 19.9245C96.2565 19.9245 97.3566 18.819 97.3566 17.4552C97.3566 16.0914 96.2565 14.9858 94.8995 14.9858C93.5425 14.9858 92.4424 16.0914 92.4424 17.4552C92.4424 18.819 93.5425 19.9245 94.8995 19.9245Z" stroke="#F5B91B" stroke-width="0.352778"/>
<path d="M103.37 19.9245C104.727 19.9245 105.827 18.819 105.827 17.4552C105.827 16.0914 104.727 14.9858 103.37 14.9858C102.013 14.9858 100.913 16.0914 100.913 17.4552C100.913 18.819 102.013 19.9245 103.37 19.9245Z" stroke="#F5B91B" stroke-width="0.352778"/>
<path d="M111.842 19.9245C113.199 19.9245 114.299 18.819 114.299 17.4552C114.299 16.0914 113.199 14.9858 111.842 14.9858C110.485 14.9858 109.385 16.0914 109.385 17.4552C109.385 18.819 110.485 19.9245 111.842 19.9245Z" stroke="#F5B91B" stroke-width="0.352778"/>
<path d="M120.313 19.9245C121.67 19.9245 122.77 18.819 122.77 17.4552C122.77 16.0914 121.67 14.9858 120.313 14.9858C118.956 14.9858 117.855 16.0914 117.855 17.4552C117.855 18.819 118.956 19.9245 120.313 19.9245Z" stroke="#F5B91B" stroke-width="0.352778"/>
<path d="M128.784 19.9245C130.141 19.9245 131.241 18.819 131.241 17.4552C131.241 16.0914 130.141 14.9858 128.784 14.9858C127.427 14.9858 126.327 16.0914 126.327 17.4552C126.327 18.819 127.427 19.9245 128.784 19.9245Z" stroke="#F5B91B" stroke-width="0.352778"/>
<path d="M137.255 19.9245C138.612 19.9245 139.712 18.819 139.712 17.4552C139.712 16.0914 138.612 14.9858 137.255 14.9858C135.898 14.9858 134.798 16.0914 134.798 17.4552C134.798 18.819 135.898 19.9245 137.255 19.9245Z" stroke="#F5B91B" stroke-width="0.352778"/>
<path d="M145.727 19.9245C147.084 19.9245 148.184 18.819 148.184 17.4552C148.184 16.0914 147.084 14.9858 145.727 14.9858C144.37 14.9858 143.27 16.0914 143.27 17.4552C143.27 18.819 144.37 19.9245 145.727 19.9245Z" stroke="#F5B91B" stroke-width="0.352778"/>
<path d="M154.193 19.9245C155.55 19.9245 156.651 18.819 156.651 17.4552C156.651 16.0914 155.55 14.9858 154.193 14.9858C152.836 14.9858 151.736 16.0914 151.736 17.4552C151.736 18.819 152.836 19.9245 154.193 19.9245Z" stroke="#F5B91B" stroke-width="0.352778"/>
<path d="M162.669 19.9245C164.026 19.9245 165.126 18.819 165.126 17.4552C165.126 16.0914 164.026 14.9858 162.669 14.9858C161.312 14.9858 160.212 16.0914 160.212 17.4552C160.212 18.819 161.312 19.9245 162.669 19.9245Z" stroke="#F5B91B" stroke-width="0.352778"/>
<path d="M171.14 19.9245C172.497 19.9245 173.597 18.819 173.597 17.4552C173.597 16.0914 172.497 14.9858 171.14 14.9858C169.783 14.9858 168.683 16.0914 168.683 17.4552C168.683 18.819 169.783 19.9245 171.14 19.9245Z" stroke="#F5B91B" stroke-width="0.352778"/>
<path d="M179.607 19.9245C180.964 19.9245 182.064 18.819 182.064 17.4552C182.064 16.0914 180.964 14.9858 179.607 14.9858C178.249 14.9858 177.149 16.0914 177.149 17.4552C177.149 18.819 178.249 19.9245 179.607 19.9245Z" stroke="#F5B91B" stroke-width="0.352778"/>
<path d="M188.082 19.9245C189.439 19.9245 190.539 18.819 190.539 17.4552C190.539 16.0914 189.439 14.9858 188.082 14.9858C186.725 14.9858 185.625 16.0914 185.625 17.4552C185.625 18.819 186.725 19.9245 188.082 19.9245Z" stroke="#F5B91B" stroke-width="0.352778"/>
<path d="M188.082 11.4113C189.439 11.4113 190.539 10.3058 190.539 8.94199C190.539 7.57821 189.439 6.47266 188.082 6.47266C186.725 6.47266 185.625 7.57821 185.625 8.94199C185.625 10.3058 186.725 11.4113 188.082 11.4113Z" stroke="#F5B91B" stroke-width="0.352778"/>
<path d="M179.607 11.4113C180.964 11.4113 182.064 10.3058 182.064 8.94199C182.064 7.57821 180.964 6.47266 179.607 6.47266C178.249 6.47266 177.149 7.57821 177.149 8.94199C177.149 10.3058 178.249 11.4113 179.607 11.4113Z" stroke="#F5B91B" stroke-width="0.352778"/>
<path d="M171.14 11.4113C172.497 11.4113 173.597 10.3058 173.597 8.94199C173.597 7.57821 172.497 6.47266 171.14 6.47266C169.783 6.47266 168.683 7.57821 168.683 8.94199C168.683 10.3058 169.783 11.4113 171.14 11.4113Z" stroke="#F5B91B" stroke-width="0.352778"/>
<path d="M162.669 11.4113C164.026 11.4113 165.126 10.3058 165.126 8.94199C165.126 7.57821 164.026 6.47266 162.669 6.47266C161.312 6.47266 160.212 7.57821 160.212 8.94199C160.212 10.3058 161.312 11.4113 162.669 11.4113Z" stroke="#F5B91B" stroke-width="0.352778"/>
<path d="M154.193 11.4113C155.55 11.4113 156.651 10.3058 156.651 8.94199C156.651 7.57821 155.55 6.47266 154.193 6.47266C152.836 6.47266 151.736 7.57821 151.736 8.94199C151.736 10.3058 152.836 11.4113 154.193 11.4113Z" stroke="#F5B91B" stroke-width="0.352778"/>
<path d="M145.727 11.4113C147.084 11.4113 148.184 10.3058 148.184 8.94199C148.184 7.57821 147.084 6.47266 145.727 6.47266C144.37 6.47266 143.27 7.57821 143.27 8.94199C143.27 10.3058 144.37 11.4113 145.727 11.4113Z" stroke="#F5B91B" stroke-width="0.352778"/>
<path d="M137.255 11.4113C138.612 11.4113 139.712 10.3058 139.712 8.94199C139.712 7.57821 138.612 6.47266 137.255 6.47266C135.898 6.47266 134.798 7.57821 134.798 8.94199C134.798 10.3058 135.898 11.4113 137.255 11.4113Z" stroke="#F5B91B" stroke-width="0.352778"/>
<path d="M128.784 11.4113C130.141 11.4113 131.241 10.3058 131.241 8.94199C131.241 7.57821 130.141 6.47266 128.784 6.47266C127.427 6.47266 126.327 7.57821 126.327 8.94199C126.327 10.3058 127.427 11.4113 128.784 11.4113Z" stroke="#F5B91B" stroke-width="0.352778"/>
<path d="M120.313 11.4113C121.67 11.4113 122.77 10.3058 122.77 8.94199C122.77 7.57821 121.67 6.47266 120.313 6.47266C118.956 6.47266 117.855 7.57821 117.855 8.94199C117.855 10.3058 118.956 11.4113 120.313 11.4113Z" stroke="#F5B91B" stroke-width="0.352778"/>
<path d="M111.842 11.4113C113.199 11.4113 114.299 10.3058 114.299 8.94199C114.299 7.57821 113.199 6.47266 111.842 6.47266C110.485 6.47266 109.385 7.57821 109.385 8.94199C109.385 10.3058 110.485 11.4113 111.842 11.4113Z" stroke="#F5B91B" stroke-width="0.352778"/>
<path d="M103.37 11.4113C104.727 11.4113 105.827 10.3058 105.827 8.94199C105.827 7.57821 104.727 6.47266 103.37 6.47266C102.013 6.47266 100.913 7.57821 100.913 8.94199C100.913 10.3058 102.013 11.4113 103.37 11.4113Z" stroke="#F5B91B" stroke-width="0.352778"/>
<path d="M94.8995 11.4113C96.2565 11.4113 97.3566 10.3058 97.3566 8.94199C97.3566 7.57821 96.2565 6.47266 94.8995 6.47266C93.5425 6.47266 92.4424 7.57821 92.4424 8.94199C92.4424 10.3058 93.5425 11.4113 94.8995 11.4113Z" stroke="#F5B91B" stroke-width="0.352778"/>
<path d="M86.4278 11.4113C87.7848 11.4113 88.8849 10.3058 88.8849 8.94199C88.8849 7.57821 87.7848 6.47266 86.4278 6.47266C85.0708 6.47266 83.9707 7.57821 83.9707 8.94199C83.9707 10.3058 85.0708 11.4113 86.4278 11.4113Z" stroke="#F5B91B" stroke-width="0.352778"/>
<path d="M77.9571 11.4113C79.3141 11.4113 80.4142 10.3058 80.4142 8.94199C80.4142 7.57821 79.3141 6.47266 77.9571 6.47266C76.6001 6.47266 75.5 7.57821 75.5 8.94199C75.5 10.3058 76.6001 11.4113 77.9571 11.4113Z" stroke="#F5B91B" stroke-width="0.352778"/>
<path d="M69.4854 11.4113C70.8425 11.4113 71.9425 10.3058 71.9425 8.94199C71.9425 7.57821 70.8425 6.47266 69.4854 6.47266C68.1284 6.47266 67.0283 7.57821 67.0283 8.94199C67.0283 10.3058 68.1284 11.4113 69.4854 11.4113Z" stroke="#F5B91B" stroke-width="0.352778"/>
<path d="M61.0147 11.4113C62.3717 11.4113 63.4718 10.3058 63.4718 8.94199C63.4718 7.57821 62.3717 6.47266 61.0147 6.47266C59.6577 6.47266 58.5576 7.57821 58.5576 8.94199C58.5576 10.3058 59.6577 11.4113 61.0147 11.4113Z" stroke="#F5B91B" stroke-width="0.352778"/>
<path d="M52.543 11.4113C53.9 11.4113 55.0001 10.3058 55.0001 8.94199C55.0001 7.57821 53.9 6.47266 52.543 6.47266C51.186 6.47266 50.0859 7.57821 50.0859 8.94199C50.0859 10.3058 51.186 11.4113 52.543 11.4113Z" stroke="#F5B91B" stroke-width="0.352778"/>
<path d="M44.0723 11.4113C45.4293 11.4113 46.5294 10.3058 46.5294 8.94199C46.5294 7.57821 45.4293 6.47266 44.0723 6.47266C42.7153 6.47266 41.6152 7.57821 41.6152 8.94199C41.6152 10.3058 42.7153 11.4113 44.0723 11.4113Z" stroke="#F5B91B" stroke-width="0.352778"/>
<path d="M35.6046 11.4113C36.9616 11.4113 38.0617 10.3058 38.0617 8.94199C38.0617 7.57821 36.9616 6.47266 35.6046 6.47266C34.2475 6.47266 33.1475 7.57821 33.1475 8.94199C33.1475 10.3058 34.2475 11.4113 35.6046 11.4113Z" stroke="#F5B91B" stroke-width="0.352778"/>
<path d="M27.1339 11.4113C28.4909 11.4113 29.591 10.3058 29.591 8.94199C29.591 7.57821 28.4909 6.47266 27.1339 6.47266C25.7768 6.47266 24.6768 7.57821 24.6768 8.94199C24.6768 10.3058 25.7768 11.4113 27.1339 11.4113Z" stroke="#F5B91B" stroke-width="0.352778"/>
<path d="M31.4712 13.0671V6.78526L29.6325 5H24.8428L23 6.78526V13.0671" fill="#BE3836"/>
<path d="M31.4712 13.0669V19.3487L29.6325 21.134H24.8428L23 19.3487V13.0669" fill="#EFEA3C"/>
<path d="M39.9419 13.0671V6.78526L38.1032 5H33.3135L31.4707 6.78526V13.0671" fill="#BE3836"/>
<path d="M39.9419 13.0669V19.3487L38.1032 21.134H33.3135L31.4707 19.3487V13.0669" fill="#69BE87"/>
<path d="M48.4136 13.0671V6.78526L46.5749 5H41.7852L39.9424 6.78526V13.0671" fill="#404041"/>
<path d="M48.4136 13.0669V19.3487L46.5749 21.134H41.7852L39.9424 19.3487V13.0669" fill="#69BE87"/>
<path d="M56.8804 13.0671V6.78526L55.0417 5H50.252L48.4092 6.78526V13.0671" fill="#69BE87"/>
<path d="M56.8804 13.0669V19.3487L55.0417 21.134H50.252L48.4092 19.3487V13.0669" fill="#69BE87"/>
<path d="M65.352 13.0671V6.78526L63.5134 5H58.7237L56.8809 6.78526V13.0671" fill="#69BE87"/>
<path d="M65.352 13.0669V19.3487L63.5134 21.134H58.7237L56.8809 19.3487V13.0669" fill="#404041"/>
<path d="M73.8227 13.0671V6.78526L71.9841 5H67.1944L65.3516 6.78526V13.0671" fill="#69BE87"/>
<path d="M73.8227 13.0669V19.3487L71.9841 21.134H67.1944L65.3516 19.3487V13.0669" fill="#69BE87"/>
<path d="M82.2895 13.0671V6.78526L80.4509 5H75.6612L73.8184 6.78526V13.0671" fill="#404041"/>
<path d="M82.2895 13.0669V19.3487L80.4509 21.134H75.6612L73.8184 19.3487V13.0669" fill="#69BE87"/>
<path d="M90.7612 13.0671V6.78526L88.9225 5H84.1329L82.29 6.78526V13.0671" fill="#69BE87"/>
<path d="M90.7612 13.0669V19.3487L88.9225 21.134H84.1329L82.29 19.3487V13.0669" fill="#69BE87"/>
<path d="M99.228 13.0671V6.78526L97.3893 5H92.5997L90.7568 6.78526V13.0671" fill="#69BE87"/>
<path d="M99.228 13.0669V19.3487L97.3893 21.134H92.5997L90.7568 19.3487V13.0669" fill="#EFEA3C"/>
<path d="M107.7 13.0671V6.78526L105.861 5H101.071L99.2285 6.78526V13.0671" fill="#404041"/>
<path d="M107.7 13.0669V19.3487L105.861 21.134H101.071L99.2285 19.3487V13.0669" fill="#69BE87"/>
<path d="M116.17 13.0671V6.78526L114.332 5H109.542L107.699 6.78526V13.0671" fill="#69BE87"/>
<path d="M116.17 13.0669V19.3487L114.332 21.134H109.542L107.699 19.3487V13.0669" fill="#69BE87"/>
<path d="M124.637 13.0671V6.78526L122.799 5H118.009L116.166 6.78526V13.0671" fill="#69BE87"/>
<path d="M124.637 13.0669V19.3487L122.799 21.134H118.009L116.166 19.3487V13.0669" fill="#69BE87"/>
<path d="M133.109 13.0671V6.78526L131.27 5H126.481L124.638 6.78526V13.0671" fill="#69BE87"/>
<path d="M133.109 13.0669V19.3487L131.27 21.134H126.481L124.638 19.3487V13.0669" fill="#404041"/>
<path d="M141.58 13.0671V6.78526L139.741 5H134.951L133.108 6.78526V13.0671" fill="#4DC0E6"/>
<path d="M141.58 13.0669V19.3487L139.741 21.134H134.951L133.108 19.3487V13.0669" fill="#4DC0E6"/>
<path d="M150.047 13.0669V19.3487L148.209 21.134H143.419L141.576 19.3487V13.0669" fill="#69BE87"/>
<path d="M158.518 13.0671V6.78526L156.679 5H151.89L150.047 6.78526V13.0671" fill="#69BE87"/>
<path d="M158.518 13.0669V19.3487L156.679 21.134H151.89L150.047 19.3487V13.0669" fill="#69BE87"/>
<path d="M166.99 13.0671V6.78526L165.151 5H160.361L158.519 6.78526V13.0671" fill="#404041"/>
<path d="M166.99 13.0669V19.3487L165.151 21.134H160.361L158.519 19.3487V13.0669" fill="#69BE87"/>
<path d="M175.457 13.0671V6.78526L173.618 5H168.828L166.985 6.78526V13.0671" fill="#69BE87"/>
<path d="M175.457 13.0669V19.3487L173.618 21.134H168.828L166.985 19.3487V13.0669" fill="#69BE87"/>
<path d="M183.927 13.0671V6.78526L182.089 5H177.299L175.456 6.78526V13.0671" fill="#69BE87"/>
<path d="M183.927 13.0669V19.3487L182.089 21.134H177.299L175.456 19.3487V13.0669" fill="#69BE87"/>
<path d="M192.399 13.0671V6.78526L190.56 5H185.771L183.928 6.78526V13.0671" fill="#69BE87"/>
<path d="M192.399 13.0669V19.3487L190.56 21.134H185.771L183.928 19.3487V13.0669" fill="#404041"/>
<path d="M27.8396 8.17822H26.4492V9.57557H27.8396V8.17822Z" fill="#8B8562"/>
<path d="M26.449 8.18275L25.7891 7.51953V10.235L26.449 9.57592V8.18275Z" fill="#B6AD81"/>
<path d="M25.7891 7.51953H28.4952L27.8394 8.18275H26.449L25.7891 7.51953Z" fill="#7F785B"/>
<path d="M28.4956 7.51953V10.235L27.8398 9.57592V8.18275L28.4956 7.51953Z" fill="#5E5B43"/>
<path d="M28.4952 10.2347H25.7891L26.449 9.57568H27.8394L28.4952 10.2347Z" fill="#988F6B"/>
<path d="M27.8396 16.6792H26.4492V18.0766H27.8396V16.6792Z" fill="#8B8562"/>
<path d="M26.449 16.679L25.7891 16.02V18.7355L26.449 18.0722V16.679Z" fill="#B6AD81"/>
<path d="M25.7891 16.02H28.4952L27.8394 16.679H26.449L25.7891 16.02Z" fill="#7F785B"/>
<path d="M28.4956 16.02V18.7355L27.8398 18.0722V16.679L28.4956 16.02Z" fill="#5E5B43"/>
<path d="M26.449 18.0723H27.8394L28.4952 18.7355H25.7891L26.449 18.0723Z" fill="#988F6B"/>
<path d="M36.3113 8.17871H34.9209V9.57606H36.3113V8.17871Z" fill="#8B8562"/>
<path d="M34.2646 7.51953V10.235L34.9204 9.57592V8.18275L34.2646 7.51953Z" fill="#B6AD81"/>
<path d="M36.9666 7.51953L36.3108 8.18275H34.9204L34.2646 7.51953H36.9666Z" fill="#7F785B"/>
<path d="M36.9663 10.235L36.3105 9.57592V8.18275L36.9663 7.51953V10.235Z" fill="#5E5B43"/>
<path d="M34.2646 10.2347L34.9204 9.57568H36.3108L36.9666 10.2347H34.2646Z" fill="#988F6B"/>
<path d="M36.3113 16.6792H34.9209V18.0766H36.3113V16.6792Z" fill="#8B8562"/>
<path d="M34.2646 16.0205V18.7359L34.9204 18.0727V16.6795L34.2646 16.0205Z" fill="#B6AD81"/>
<path d="M36.9666 16.0205L36.3108 16.6795H34.9204L34.2646 16.0205H36.9666Z" fill="#7F785B"/>
<path d="M36.9663 18.7359L36.3105 18.0727V16.6795L36.9663 16.0205V18.7359Z" fill="#5E5B43"/>
<path d="M36.3108 18.0728L36.9666 18.736H34.2646L34.9204 18.0728H36.3108Z" fill="#988F6B"/>
<path d="M44.782 8.17871H43.3916V9.57606H44.782V8.17871Z" fill="#8B8562"/>
<path d="M43.3911 8.18275L42.7354 7.51953V10.235L43.3911 9.57592V8.18275Z" fill="#B6AD81"/>
<path d="M42.7354 7.51953H45.4373L44.7815 8.18275H43.3911L42.7354 7.51953Z" fill="#7F785B"/>
<path d="M45.437 7.51953V10.235L44.7812 9.57592V8.18275L45.437 7.51953Z" fill="#5E5B43"/>
<path d="M45.4373 10.2347H42.7354L43.3911 9.57568H44.7815L45.4373 10.2347Z" fill="#988F6B"/>
<path d="M44.782 16.6792H43.3916V18.0766H44.782V16.6792Z" fill="#8B8562"/>
<path d="M43.3911 16.6795L42.7354 16.0205V18.7359L43.3911 18.0727V16.6795Z" fill="#B6AD81"/>
<path d="M42.7354 16.0205H45.4373L44.7815 16.6795H43.3911L42.7354 16.0205Z" fill="#7F785B"/>
<path d="M45.437 16.0205V18.7359L44.7812 18.0727V16.6795L45.437 16.0205Z" fill="#5E5B43"/>
<path d="M43.3911 18.0728H44.7815L45.4373 18.736H42.7354L43.3911 18.0728Z" fill="#988F6B"/>
<path d="M53.2537 8.17871H51.8633V9.57606H53.2537V8.17871Z" fill="#8B8562"/>
<path d="M51.207 7.51953V10.235L51.8628 9.57592V8.18275L51.207 7.51953Z" fill="#B6AD81"/>
<path d="M53.909 7.51953L53.2532 8.18275H51.8628L51.207 7.51953H53.909Z" fill="#7F785B"/>
<path d="M53.9087 10.235L53.2529 9.57592V8.18275L53.9087 7.51953V10.235Z" fill="#5E5B43"/>
<path d="M51.207 10.2347L51.8628 9.57568H53.2532L53.909 10.2347H51.207Z" fill="#988F6B"/>
<path d="M53.2537 16.6792H51.8633V18.0766H53.2537V16.6792Z" fill="#8B8562"/>
<path d="M51.207 16.0205V18.7359L51.8628 18.0727V16.6795L51.207 16.0205Z" fill="#B6AD81"/>
<path d="M53.909 16.0205L53.2532 16.6795H51.8628L51.207 16.0205H53.909Z" fill="#7F785B"/>
<path d="M53.9087 18.7359L53.2529 18.0727V16.6795L53.9087 16.0205V18.7359Z" fill="#5E5B43"/>
<path d="M53.2532 18.0728L53.909 18.736H51.207L51.8628 18.0728H53.2532Z" fill="#988F6B"/>
<path d="M61.7244 8.17871H60.334V9.57606H61.7244V8.17871Z" fill="#8B8562"/>
<path d="M60.3335 8.18275L59.6777 7.51953V10.235L60.3335 9.57592V8.18275Z" fill="#B6AD81"/>
<path d="M59.6777 7.51953H62.3797L61.7239 8.18275H60.3335L59.6777 7.51953Z" fill="#7F785B"/>
<path d="M62.3794 7.51953V10.235L61.7236 9.57592V8.18275L62.3794 7.51953Z" fill="#5E5B43"/>
<path d="M62.3797 10.2347H59.6777L60.3335 9.57568H61.7239L62.3797 10.2347Z" fill="#988F6B"/>
<path d="M61.7244 16.6792H60.334V18.0766H61.7244V16.6792Z" fill="#8B8562"/>
<path d="M60.3335 16.6795L59.6777 16.0205V18.7359L60.3335 18.0727V16.6795Z" fill="#B6AD81"/>
<path d="M59.6777 16.0205H62.3797L61.7239 16.6795H60.3335L59.6777 16.0205Z" fill="#7F785B"/>
<path d="M62.3794 16.0205V18.7359L61.7236 18.0727V16.6795L62.3794 16.0205Z" fill="#5E5B43"/>
<path d="M60.3335 18.0728H61.7239L62.3797 18.736H59.6777L60.3335 18.0728Z" fill="#988F6B"/>
<path d="M70.1951 8.17871H68.8047V9.57606H70.1951V8.17871Z" fill="#8B8562"/>
<path d="M68.8045 8.18275L68.1445 7.51953V10.235L68.8045 9.57592V8.18275Z" fill="#B6AD81"/>
<path d="M68.1445 7.51953H70.8507L70.1949 8.18275H68.8045L68.1445 7.51953Z" fill="#7F785B"/>
<path d="M70.8511 7.51953V10.235L70.1953 9.57592V8.18275L70.8511 7.51953Z" fill="#5E5B43"/>
<path d="M70.8507 10.2347H68.1445L68.8045 9.57568H70.1949L70.8507 10.2347Z" fill="#988F6B"/>
<path d="M70.1951 16.6792H68.8047V18.0766H70.1951V16.6792Z" fill="#8B8562"/>
<path d="M68.8045 16.6795L68.1445 16.0205V18.7359L68.8045 18.0727V16.6795Z" fill="#B6AD81"/>
<path d="M68.1445 16.0205H70.8507L70.1949 16.6795H68.8045L68.1445 16.0205Z" fill="#7F785B"/>
<path d="M70.8511 16.0205V18.7359L70.1953 18.0727V16.6795L70.8511 16.0205Z" fill="#5E5B43"/>
<path d="M68.8045 18.0728H70.1949L70.8507 18.736H68.1445L68.8045 18.0728Z" fill="#988F6B"/>
<path d="M78.6658 8.17871H77.2754V9.57606H78.6658V8.17871Z" fill="#8B8562"/>
<path d="M77.2759 8.18275L76.6201 7.51953V10.235L77.2759 9.57592V8.18275Z" fill="#B6AD81"/>
<path d="M76.6201 7.51953H79.3221L78.6663 8.18275H77.2759L76.6201 7.51953Z" fill="#7F785B"/>
<path d="M79.3218 7.51953V10.235L78.666 9.57592V8.18275L79.3218 7.51953Z" fill="#5E5B43"/>
<path d="M79.3221 10.2347H76.6201L77.2759 9.57568H78.6663L79.3221 10.2347Z" fill="#988F6B"/>
<path d="M78.6658 16.6792H77.2754V18.0766H78.6658V16.6792Z" fill="#8B8562"/>
<path d="M77.2759 16.6795L76.6201 16.0205V18.7359L77.2759 18.0727V16.6795Z" fill="#B6AD81"/>
<path d="M76.6201 16.0205H79.3221L78.6663 16.6795H77.2759L76.6201 16.0205Z" fill="#7F785B"/>
<path d="M79.3218 16.0205V18.7359L78.666 18.0727V16.6795L79.3218 16.0205Z" fill="#5E5B43"/>
<path d="M77.2759 18.0728H78.6663L79.3221 18.736H76.6201L77.2759 18.0728Z" fill="#988F6B"/>
<path d="M87.1385 8.17871H85.748V9.57606H87.1385V8.17871Z" fill="#8B8562"/>
<path d="M85.7476 8.18275L85.0918 7.51953V10.235L85.7476 9.57592V8.18275Z" fill="#B6AD81"/>
<path d="M85.0918 7.51953H87.7938L87.138 8.18275H85.7476L85.0918 7.51953Z" fill="#7F785B"/>
<path d="M87.7935 7.51953V10.235L87.1377 9.57592V8.18275L87.7935 7.51953Z" fill="#5E5B43"/>
<path d="M87.7938 10.2347H85.0918L85.7476 9.57568H87.138L87.7938 10.2347Z" fill="#988F6B"/>
<path d="M87.1385 16.6792H85.748V18.0766H87.1385V16.6792Z" fill="#8B8562"/>
<path d="M85.7476 16.6795L85.0918 16.0205V18.7359L85.7476 18.0727V16.6795Z" fill="#B6AD81"/>
<path d="M85.0918 16.0205H87.7938L87.138 16.6795H85.7476L85.0918 16.0205Z" fill="#7F785B"/>
<path d="M87.7935 16.0205V18.7359L87.1377 18.0727V16.6795L87.7935 16.0205Z" fill="#5E5B43"/>
<path d="M85.7476 18.0728H87.138L87.7938 18.736H85.0918L85.7476 18.0728Z" fill="#988F6B"/>
<path d="M95.6092 8.17871H94.2188V9.57606H95.6092V8.17871Z" fill="#8B8562"/>
<path d="M94.2183 8.18275L93.5625 7.51953V10.235L94.2183 9.57592V8.18275Z" fill="#B6AD81"/>
<path d="M93.5625 7.51953H96.2645L95.6087 8.18275H94.2183L93.5625 7.51953Z" fill="#7F785B"/>
<path d="M96.2642 7.51953V10.235L95.6084 9.57592V8.18275L96.2642 7.51953Z" fill="#5E5B43"/>
<path d="M96.2645 10.2347H93.5625L94.2183 9.57568H95.6087L96.2645 10.2347Z" fill="#988F6B"/>
<path d="M95.6092 16.6792H94.2188V18.0766H95.6092V16.6792Z" fill="#8B8562"/>
<path d="M94.2183 16.6795L93.5625 16.0205V18.7359L94.2183 18.0727V16.6795Z" fill="#B6AD81"/>
<path d="M93.5625 16.0205H96.2645L95.6087 16.6795H94.2183L93.5625 16.0205Z" fill="#7F785B"/>
<path d="M96.2642 16.0205V18.7359L95.6084 18.0727V16.6795L96.2642 16.0205Z" fill="#5E5B43"/>
<path d="M94.2183 18.0728H95.6087L96.2645 18.736H93.5625L94.2183 18.0728Z" fill="#988F6B"/>
<path d="M104.081 8.17871H102.69V9.57606H104.081V8.17871Z" fill="#8B8562"/>
<path d="M102.69 8.18275L102.034 7.51953V10.235L102.69 9.57592V8.18275Z" fill="#B6AD81"/>
<path d="M102.034 7.51953H104.736L104.08 8.18275H102.69L102.034 7.51953Z" fill="#7F785B"/>
<path d="M104.736 7.51953V10.235L104.08 9.57592V8.18275L104.736 7.51953Z" fill="#5E5B43"/>
<path d="M104.736 10.2347H102.034L102.69 9.57568H104.08L104.736 10.2347Z" fill="#988F6B"/>
<path d="M104.081 16.6792H102.69V18.0766H104.081V16.6792Z" fill="#8B8562"/>
<path d="M102.69 16.6795L102.034 16.0205V18.7359L102.69 18.0727V16.6795Z" fill="#B6AD81"/>
<path d="M102.034 16.0205H104.736L104.08 16.6795H102.69L102.034 16.0205Z" fill="#7F785B"/>
<path d="M104.736 16.0205V18.7359L104.08 18.0727V16.6795L104.736 16.0205Z" fill="#5E5B43"/>
<path d="M102.69 18.0728H104.08L104.736 18.736H102.034L102.69 18.0728Z" fill="#988F6B"/>
<path d="M112.552 8.17871H111.161V9.57606H112.552V8.17871Z" fill="#8B8562"/>
<path d="M110.501 10.235L111.161 9.57592V8.18275L110.501 7.51953V10.235Z" fill="#B6AD81"/>
<path d="M112.551 8.18275H111.161L110.501 7.51953H113.207L112.551 8.18275Z" fill="#7F785B"/>
<path d="M112.552 9.57592V8.18275L113.208 7.51953V10.235L112.552 9.57592Z" fill="#5E5B43"/>
<path d="M111.161 9.57568H112.551L113.207 10.2347H110.501L111.161 9.57568Z" fill="#988F6B"/>
<path d="M112.552 16.6792H111.161V18.0766H112.552V16.6792Z" fill="#8B8562"/>
<path d="M110.501 18.7359L111.161 18.0727V16.6795L110.501 16.0205V18.7359Z" fill="#B6AD81"/>
<path d="M112.551 16.6795H111.161L110.501 16.0205H113.207L112.551 16.6795Z" fill="#7F785B"/>
<path d="M112.552 18.0727V16.6795L113.208 16.0205V18.7359L112.552 18.0727Z" fill="#5E5B43"/>
<path d="M113.207 18.736H110.501L111.161 18.0728H112.551L113.207 18.736Z" fill="#988F6B"/>
<path d="M121.023 8.17871H119.633V9.57606H121.023V8.17871Z" fill="#8B8562"/>
<path d="M119.632 8.18275L118.977 7.51953V10.235L119.632 9.57592V8.18275Z" fill="#B6AD81"/>
<path d="M118.977 7.51953H121.679L121.023 8.18275H119.632L118.977 7.51953Z" fill="#7F785B"/>
<path d="M121.678 7.51953V10.235L121.022 9.57592V8.18275L121.678 7.51953Z" fill="#5E5B43"/>
<path d="M121.679 10.2347H118.977L119.632 9.57568H121.023L121.679 10.2347Z" fill="#988F6B"/>
<path d="M121.023 16.6792H119.633V18.0766H121.023V16.6792Z" fill="#8B8562"/>
<path d="M119.632 16.6795L118.977 16.0205V18.7359L119.632 18.0727V16.6795Z" fill="#B6AD81"/>
<path d="M118.977 16.0205H121.679L121.023 16.6795H119.632L118.977 16.0205Z" fill="#7F785B"/>
<path d="M121.678 16.0205V18.7359L121.022 18.0727V16.6795L121.678 16.0205Z" fill="#5E5B43"/>
<path d="M119.632 18.0728H121.023L121.679 18.736H118.977L119.632 18.0728Z" fill="#988F6B"/>
<path d="M129.494 8.17871H128.104V9.57606H129.494V8.17871Z" fill="#8B8562"/>
<path d="M128.103 8.18275L127.447 7.51953V10.235L128.103 9.57592V8.18275Z" fill="#B6AD81"/>
<path d="M127.447 7.51953H130.149L129.493 8.18275H128.103L127.447 7.51953Z" fill="#7F785B"/>
<path d="M130.149 7.51953V10.235L129.493 9.57592V8.18275L130.149 7.51953Z" fill="#5E5B43"/>
<path d="M130.149 10.2347H127.447L128.103 9.57568H129.493L130.149 10.2347Z" fill="#988F6B"/>
<path d="M129.494 16.6792H128.104V18.0766H129.494V16.6792Z" fill="#8B8562"/>
<path d="M128.103 16.6795L127.447 16.0205V18.7359L128.103 18.0727V16.6795Z" fill="#B6AD81"/>
<path d="M127.447 16.0205H130.149L129.493 16.6795H128.103L127.447 16.0205Z" fill="#7F785B"/>
<path d="M130.149 16.0205V18.7359L129.493 18.0727V16.6795L130.149 16.0205Z" fill="#5E5B43"/>
<path d="M128.103 18.0728H129.493L130.149 18.736H127.447L128.103 18.0728Z" fill="#988F6B"/>
<path d="M137.966 8.17871H136.575V9.57606H137.966V8.17871Z" fill="#8B8562"/>
<path d="M136.575 8.18275L135.919 7.51953V10.235L136.575 9.57592V8.18275Z" fill="#B6AD81"/>
<path d="M135.919 7.51953H138.621L137.965 8.18275H136.575L135.919 7.51953Z" fill="#7F785B"/>
<path d="M138.621 7.51953V10.235L137.965 9.57592V8.18275L138.621 7.51953Z" fill="#5E5B43"/>
<path d="M138.621 10.2347H135.919L136.575 9.57568H137.965L138.621 10.2347Z" fill="#988F6B"/>
<path d="M137.966 16.6792H136.575V18.0766H137.966V16.6792Z" fill="#8B8562"/>
<path d="M136.575 16.6795L135.919 16.0205V18.7359L136.575 18.0727V16.6795Z" fill="#B6AD81"/>
<path d="M135.919 16.0205H138.621L137.965 16.6795H136.575L135.919 16.0205Z" fill="#7F785B"/>
<path d="M138.621 16.0205V18.7359L137.965 18.0727V16.6795L138.621 16.0205Z" fill="#5E5B43"/>
<path d="M136.575 18.0728H137.965L138.621 18.736H135.919L136.575 18.0728Z" fill="#988F6B"/>
<path d="M150.047 13.0671V6.78526L148.209 5H143.419L141.576 6.78526V13.0671" fill="#404041"/>
<path d="M146.436 8.17822H145.046V9.57557H146.436V8.17822Z" fill="#8B8562"/>
<path d="M144.391 7.51953V10.235L145.046 9.57592V8.18275L144.391 7.51953Z" fill="#B6AD81"/>
<path d="M147.093 7.51953L146.437 8.18275H145.046L144.391 7.51953H147.093Z" fill="#7F785B"/>
<path d="M147.092 10.235L146.437 9.57592V8.18275L147.092 7.51953V10.235Z" fill="#5E5B43"/>
<path d="M144.391 10.2347L145.046 9.57568H146.437L147.093 10.2347H144.391Z" fill="#988F6B"/>
<path d="M146.436 16.6792H145.046V18.0766H146.436V16.6792Z" fill="#8B8562"/>
<path d="M145.046 16.679L144.391 16.02V18.7355L145.046 18.0722V16.679Z" fill="#B6AD81"/>
<path d="M144.391 16.02H147.093L146.437 16.679H145.046L144.391 16.02Z" fill="#7F785B"/>
<path d="M147.092 16.02V18.7355L146.437 18.0722V16.679L147.092 16.02Z" fill="#5E5B43"/>
<path d="M145.046 18.0723H146.437L147.093 18.7355H144.391L145.046 18.0723Z" fill="#988F6B"/>
<path d="M154.907 8.17871H153.517V9.57606H154.907V8.17871Z" fill="#8B8562"/>
<path d="M153.516 8.18275L152.856 7.51953V10.235L153.516 9.57592V8.18275Z" fill="#B6AD81"/>
<path d="M152.856 7.51953H155.563L154.907 8.18275H153.516L152.856 7.51953Z" fill="#7F785B"/>
<path d="M155.563 7.51953V10.235L154.907 9.57592V8.18275L155.563 7.51953Z" fill="#5E5B43"/>
<path d="M155.563 10.2347H152.856L153.516 9.57568H154.907L155.563 10.2347Z" fill="#988F6B"/>
<path d="M154.907 16.6792H153.517V18.0766H154.907V16.6792Z" fill="#8B8562"/>
<path d="M153.516 16.6795L152.856 16.0205V18.7359L153.516 18.0727V16.6795Z" fill="#B6AD81"/>
<path d="M152.856 16.0205H155.563L154.907 16.6795H153.516L152.856 16.0205Z" fill="#7F785B"/>
<path d="M155.563 16.0205V18.7359L154.907 18.0727V16.6795L155.563 16.0205Z" fill="#5E5B43"/>
<path d="M153.516 18.0728H154.907L155.563 18.736H152.856L153.516 18.0728Z" fill="#988F6B"/>
<path d="M163.374 8.17871H161.983V9.57606H163.374V8.17871Z" fill="#8B8562"/>
<path d="M161.984 8.18275L161.332 7.51953V10.235L161.984 9.57592V8.18275Z" fill="#B6AD81"/>
<path d="M161.332 7.51953H164.034L163.378 8.18275H161.984L161.332 7.51953Z" fill="#7F785B"/>
<path d="M164.034 7.51953V10.235L163.378 9.57592V8.18275L164.034 7.51953Z" fill="#5E5B43"/>
<path d="M164.034 10.2347H161.332L161.984 9.57568H163.378L164.034 10.2347Z" fill="#988F6B"/>
<path d="M163.374 16.6792H161.983V18.0766H163.374V16.6792Z" fill="#8B8562"/>
<path d="M161.984 16.6795L161.332 16.0205V18.7359L161.984 18.0727V16.6795Z" fill="#B6AD81"/>
<path d="M161.332 16.0205H164.034L163.378 16.6795H161.984L161.332 16.0205Z" fill="#7F785B"/>
<path d="M164.034 16.0205V18.7359L163.378 18.0727V16.6795L164.034 16.0205Z" fill="#5E5B43"/>
<path d="M161.984 18.0728H163.378L164.034 18.736H161.332L161.984 18.0728Z" fill="#988F6B"/>
<path d="M171.849 8.17871H170.459V9.57606H171.849V8.17871Z" fill="#8B8562"/>
<path d="M170.459 8.18275L169.799 7.51953V10.235L170.459 9.57592V8.18275Z" fill="#B6AD81"/>
<path d="M169.799 7.51953H172.501L171.849 8.18275H170.459L169.799 7.51953Z" fill="#7F785B"/>
<path d="M172.501 7.51953V10.235L171.85 9.57592V8.18275L172.501 7.51953Z" fill="#5E5B43"/>
<path d="M172.501 10.2347H169.799L170.459 9.57568H171.849L172.501 10.2347Z" fill="#988F6B"/>
<path d="M171.849 16.6792H170.459V18.0766H171.849V16.6792Z" fill="#8B8562"/>
<path d="M170.459 16.6795L169.799 16.0205V18.7359L170.459 18.0727V16.6795Z" fill="#B6AD81"/>
<path d="M169.799 16.0205H172.501L171.849 16.6795H170.459L169.799 16.0205Z" fill="#7F785B"/>
<path d="M172.501 16.0205V18.7359L171.85 18.0727V16.6795L172.501 16.0205Z" fill="#5E5B43"/>
<path d="M170.459 18.0728H171.849L172.501 18.736H169.799L170.459 18.0728Z" fill="#988F6B"/>
<path d="M180.316 8.17871H178.926V9.57606H180.316V8.17871Z" fill="#8B8562"/>
<path d="M178.926 8.18275L178.274 7.51953V10.235L178.926 9.57592V8.18275Z" fill="#B6AD81"/>
<path d="M178.274 7.51953H180.976L180.321 8.18275H178.926L178.274 7.51953Z" fill="#7F785B"/>
<path d="M180.976 7.51953V10.235L180.32 9.57592V8.18275L180.976 7.51953Z" fill="#5E5B43"/>
<path d="M180.976 10.2347H178.274L178.926 9.57568H180.321L180.976 10.2347Z" fill="#988F6B"/>
<path d="M180.316 16.6792H178.926V18.0766H180.316V16.6792Z" fill="#8B8562"/>
<path d="M178.926 16.6795L178.274 16.0205V18.7359L178.926 18.0727V16.6795Z" fill="#B6AD81"/>
<path d="M178.274 16.0205H180.976L180.321 16.6795H178.926L178.274 16.0205Z" fill="#7F785B"/>
<path d="M180.976 16.0205V18.7359L180.32 18.0727V16.6795L180.976 16.0205Z" fill="#5E5B43"/>
<path d="M178.926 18.0728H180.321L180.976 18.736H178.274L178.926 18.0728Z" fill="#988F6B"/>
<path d="M188.792 8.17871H187.401V9.57606H188.792V8.17871Z" fill="#8B8562"/>
<path d="M187.401 8.18275L186.741 7.51953V10.235L187.401 9.57592V8.18275Z" fill="#B6AD81"/>
<path d="M186.741 7.51953H189.443L188.792 8.18275H187.401L186.741 7.51953Z" fill="#7F785B"/>
<path d="M189.444 7.51953V10.235L188.792 9.57592V8.18275L189.444 7.51953Z" fill="#5E5B43"/>
<path d="M189.443 10.2347H186.741L187.401 9.57568H188.792L189.443 10.2347Z" fill="#988F6B"/>
<path d="M188.792 16.6792H187.401V18.0766H188.792V16.6792Z" fill="#8B8562"/>
<path d="M187.401 16.6795L186.741 16.0205V18.7359L187.401 18.0727V16.6795Z" fill="#B6AD81"/>
<path d="M186.741 16.0205H189.443L188.792 16.6795H187.401L186.741 16.0205Z" fill="#7F785B"/>
<path d="M189.444 16.0205V18.7359L188.792 18.0727V16.6795L189.444 16.0205Z" fill="#5E5B43"/>
<path d="M187.401 18.0728H188.792L189.443 18.736H186.741L187.401 18.0728Z" fill="#988F6B"/>
<path d="M165.696 113.88H164V106.481C164 105.558 164.367 104.672 165.019 104.019C165.672 103.366 166.557 103 167.48 103H170.305C170.668 103 171.016 103.144 171.273 103.401C171.53 103.657 171.674 104.006 171.674 104.369V105.826H167.48C167.307 105.826 167.14 105.895 167.018 106.018C166.895 106.141 166.826 106.307 166.826 106.481V112.75C166.826 113.049 166.707 113.337 166.495 113.549C166.283 113.761 165.996 113.88 165.696 113.88Z" fill="white"/>
<path d="M191.313 113.88H187.906C187.449 113.88 186.997 113.79 186.575 113.615C186.153 113.44 185.769 113.184 185.446 112.86C185.123 112.537 184.867 112.153 184.692 111.731C184.517 111.309 184.428 110.856 184.428 110.399V106.473C184.428 106.015 184.517 105.563 184.692 105.14C184.867 104.718 185.123 104.334 185.446 104.011C185.769 103.688 186.153 103.431 186.575 103.256C186.997 103.081 187.449 102.991 187.906 102.991H189.45C189.631 102.991 189.81 103.026 189.977 103.095C190.145 103.164 190.296 103.265 190.424 103.394C190.551 103.522 190.652 103.674 190.721 103.841C190.789 104.009 190.824 104.188 190.823 104.369V105.826H187.911C187.738 105.826 187.571 105.895 187.449 106.018C187.326 106.141 187.257 106.307 187.257 106.481V110.407C187.257 110.581 187.326 110.747 187.449 110.87C187.571 110.992 187.738 111.061 187.911 111.061H191.313C191.487 111.061 191.653 110.992 191.776 110.87C191.899 110.747 191.967 110.581 191.967 110.407V98H193.425C193.788 98 194.136 98.1443 194.393 98.4011C194.649 98.6578 194.794 99.0061 194.794 99.3693V110.399C194.794 110.856 194.704 111.309 194.529 111.731C194.354 112.154 194.098 112.538 193.775 112.861C193.451 113.184 193.068 113.441 192.645 113.616C192.223 113.79 191.77 113.88 191.313 113.88Z" fill="white"/>
<path d="M199.312 103.335L201.929 106.638L200.185 108.379L195.976 105.046C195.973 105.044 195.971 105.041 195.97 105.038C195.968 105.035 195.968 105.032 195.968 105.028C195.968 105.025 195.968 105.022 195.97 105.019C195.971 105.016 195.973 105.013 195.976 105.01L197.83 103.154C197.924 103.06 198.037 102.987 198.161 102.939C198.284 102.892 198.417 102.872 198.549 102.88C198.682 102.887 198.811 102.923 198.929 102.984C199.046 103.046 199.15 103.131 199.232 103.235L199.312 103.335Z" fill="white"/>
<path d="M196.884 110.992L200.186 108.374L201.926 110.115C201.272 110.933 200.106 112.405 199.231 113.521C199.149 113.624 199.046 113.709 198.929 113.77C198.811 113.831 198.682 113.866 198.551 113.874C198.419 113.881 198.287 113.861 198.163 113.814C198.04 113.767 197.928 113.694 197.834 113.601L195.955 111.726L196.884 110.992Z" fill="white"/>
<path d="M204.537 113.42L201.92 110.119L203.66 108.378L207.873 111.709C207.876 111.712 207.878 111.715 207.879 111.718C207.88 111.721 207.881 111.725 207.881 111.728C207.881 111.732 207.88 111.735 207.879 111.738C207.878 111.741 207.876 111.744 207.873 111.747L206.019 113.604C205.925 113.697 205.812 113.77 205.688 113.817C205.564 113.864 205.432 113.885 205.299 113.877C205.167 113.869 205.038 113.834 204.92 113.772C204.803 113.711 204.699 113.626 204.617 113.522L204.537 113.42Z" fill="white"/>
<path d="M206.967 105.764L203.665 108.381L201.925 106.637L204.602 103.256C204.684 103.146 204.789 103.056 204.91 102.991C205.031 102.927 205.164 102.889 205.301 102.881C205.437 102.873 205.574 102.895 205.702 102.945C205.829 102.996 205.944 103.073 206.038 103.172L207.894 105.034L206.967 105.764Z" fill="white"/>
<path d="M215.52 103H210.656C210.293 103 209.945 103.144 209.688 103.401C209.431 103.657 209.287 104.006 209.287 104.369V105.826H215.52C215.694 105.826 215.86 105.895 215.983 106.018C216.105 106.141 216.174 106.307 216.174 106.481V110.407C216.174 110.581 216.105 110.747 215.983 110.87C215.86 110.993 215.694 111.061 215.52 111.061H212.249C212.143 111.066 212.037 111.05 211.938 111.012C211.838 110.975 211.748 110.918 211.671 110.845C211.594 110.771 211.533 110.683 211.491 110.586C211.45 110.488 211.428 110.383 211.428 110.277C211.428 110.171 211.45 110.066 211.491 109.968C211.533 109.871 211.594 109.783 211.671 109.709C211.748 109.636 211.838 109.579 211.938 109.542C212.037 109.504 212.143 109.488 212.249 109.493H215.029V108.421C215.029 108.149 214.921 107.889 214.728 107.697C214.536 107.505 214.276 107.397 214.004 107.397H211.878C211.031 107.416 210.225 107.766 209.633 108.372C209.041 108.978 208.709 109.791 208.709 110.639C208.709 111.486 209.041 112.3 209.633 112.905C210.225 113.511 211.031 113.861 211.878 113.88H215.52C216.443 113.88 217.328 113.513 217.981 112.861C218.634 112.208 219 111.322 219 110.399V106.473C218.998 105.551 218.631 104.667 217.978 104.016C217.326 103.365 216.442 103 215.52 103Z" fill="white"/>
<path d="M179.21 103H174.36C173.998 103 173.65 103.145 173.394 103.402C173.138 103.658 172.995 104.006 172.995 104.369V105.826H179.21C179.383 105.826 179.55 105.895 179.672 106.018C179.795 106.141 179.864 106.307 179.864 106.481V110.407C179.864 110.581 179.795 110.747 179.672 110.87C179.55 110.993 179.383 111.061 179.21 111.061H175.939C175.833 111.066 175.727 111.05 175.627 111.012C175.528 110.975 175.437 110.918 175.36 110.845C175.284 110.771 175.223 110.683 175.181 110.586C175.139 110.488 175.118 110.383 175.118 110.277C175.118 110.171 175.139 110.066 175.181 109.968C175.223 109.871 175.284 109.783 175.36 109.709C175.437 109.636 175.528 109.579 175.627 109.542C175.727 109.504 175.833 109.488 175.939 109.493H178.719V108.421C178.719 108.149 178.61 107.889 178.418 107.697C178.226 107.505 177.965 107.397 177.693 107.397H175.567C175.136 107.387 174.706 107.464 174.305 107.622C173.903 107.781 173.537 108.018 173.228 108.32C172.92 108.622 172.674 108.983 172.507 109.381C172.339 109.779 172.253 110.207 172.253 110.639C172.253 111.071 172.339 111.498 172.507 111.896C172.674 112.294 172.92 112.655 173.228 112.957C173.537 113.259 173.903 113.496 174.305 113.655C174.706 113.813 175.136 113.89 175.567 113.88H179.21C179.667 113.88 180.119 113.79 180.541 113.615C180.963 113.44 181.347 113.184 181.67 112.86C181.993 112.537 182.249 112.153 182.424 111.731C182.599 111.309 182.689 110.856 182.688 110.399V106.473C182.687 105.551 182.319 104.668 181.667 104.016C181.015 103.365 180.131 103 179.21 103Z" fill="white"/>
</svg>
