<svg width="1312" height="1327" viewBox="0 0 1312 1327" fill="none" xmlns="http://www.w3.org/2000/svg">
<rect x="1312" y="1327" width="1312" height="1327" rx="16" transform="rotate(-180 1312 1327)" fill="#131313"/>
<circle cx="1277" cy="51.0002" r="22" transform="rotate(-180 1277 51.0002)" stroke="#1C1C1C" stroke-width="16"/>
<circle cx="1276.5" cy="73.5002" r="5.5" transform="rotate(-180 1276.5 73.5002)" fill="#604D00"/>
<circle cx="1299.5" cy="50.5002" r="5.5" transform="rotate(-180 1299.5 50.5002)" fill="#604D00"/>
<circle cx="1292.5" cy="66.5002" r="5.5" transform="rotate(-180 1292.5 66.5002)" fill="#604D00"/>
<circle cx="1260.5" cy="34.5002" r="5.5" transform="rotate(-180 1260.5 34.5002)" fill="#604D00"/>
<circle cx="1253.5" cy="50.5002" r="5.5" transform="rotate(-180 1253.5 50.5002)" fill="#604D00"/>
<circle cx="1260.5" cy="66.5002" r="5.5" transform="rotate(-180 1260.5 66.5002)" fill="#604D00"/>
<circle cx="1292.5" cy="34.5002" r="5.5" transform="rotate(-180 1292.5 34.5002)" fill="#604D00"/>
<circle cx="1276.5" cy="28.5002" r="5.5" transform="rotate(-180 1276.5 28.5002)" fill="#604D00"/>
<circle cx="233" cy="51.0002" r="22" transform="rotate(-180 233 51.0002)" stroke="#1C1C1C" stroke-width="16"/>
<circle cx="232.5" cy="73.5002" r="5.5" transform="rotate(-180 232.5 73.5002)" fill="#604D00"/>
<circle cx="255.5" cy="50.5002" r="5.5" transform="rotate(-180 255.5 50.5002)" fill="#604D00"/>
<circle cx="248.5" cy="66.5002" r="5.5" transform="rotate(-180 248.5 66.5002)" fill="#604D00"/>
<circle cx="216.5" cy="34.5002" r="5.5" transform="rotate(-180 216.5 34.5002)" fill="#604D00"/>
<circle cx="209.5" cy="50.5002" r="5.5" transform="rotate(-180 209.5 50.5002)" fill="#604D00"/>
<circle cx="216.5" cy="66.5002" r="5.5" transform="rotate(-180 216.5 66.5002)" fill="#604D00"/>
<circle cx="248.5" cy="34.5002" r="5.5" transform="rotate(-180 248.5 34.5002)" fill="#604D00"/>
<circle cx="232.5" cy="28.5002" r="5.5" transform="rotate(-180 232.5 28.5002)" fill="#604D00"/>
<circle cx="1277" cy="1284" r="22" transform="rotate(-180 1277 1284)" stroke="#1C1C1C" stroke-width="16"/>
<circle cx="1276.5" cy="1306.5" r="5.5" transform="rotate(-180 1276.5 1306.5)" fill="#604D00"/>
<circle cx="1299.5" cy="1283.5" r="5.5" transform="rotate(-180 1299.5 1283.5)" fill="#604D00"/>
<circle cx="1292.5" cy="1299.5" r="5.5" transform="rotate(-180 1292.5 1299.5)" fill="#604D00"/>
<circle cx="1260.5" cy="1267.5" r="5.5" transform="rotate(-180 1260.5 1267.5)" fill="#604D00"/>
<circle cx="1253.5" cy="1283.5" r="5.5" transform="rotate(-180 1253.5 1283.5)" fill="#604D00"/>
<circle cx="1260.5" cy="1299.5" r="5.5" transform="rotate(-180 1260.5 1299.5)" fill="#604D00"/>
<circle cx="1292.5" cy="1267.5" r="5.5" transform="rotate(-180 1292.5 1267.5)" fill="#604D00"/>
<circle cx="1276.5" cy="1261.5" r="5.5" transform="rotate(-180 1276.5 1261.5)" fill="#604D00"/>
<circle cx="75.0001" cy="1284" r="22" transform="rotate(-180 75.0001 1284)" stroke="#1C1C1C" stroke-width="16"/>
<circle cx="74.5001" cy="1306.5" r="5.5" transform="rotate(-180 74.5001 1306.5)" fill="#604D00"/>
<circle cx="97.5001" cy="1283.5" r="5.5" transform="rotate(-180 97.5001 1283.5)" fill="#604D00"/>
<circle cx="90.5001" cy="1299.5" r="5.5" transform="rotate(-180 90.5001 1299.5)" fill="#604D00"/>
<circle cx="58.5001" cy="1267.5" r="5.5" transform="rotate(-180 58.5001 1267.5)" fill="#604D00"/>
<circle cx="51.5001" cy="1283.5" r="5.5" transform="rotate(-180 51.5001 1283.5)" fill="#604D00"/>
<circle cx="58.5001" cy="1299.5" r="5.5" transform="rotate(-180 58.5001 1299.5)" fill="#604D00"/>
<circle cx="90.5001" cy="1267.5" r="5.5" transform="rotate(-180 90.5001 1267.5)" fill="#604D00"/>
<circle cx="74.5001" cy="1261.5" r="5.5" transform="rotate(-180 74.5001 1261.5)" fill="#604D00"/>
<path d="M425.562 48.2458C428.702 48.2458 431.248 45.7001 431.248 42.5599C431.248 39.4196 428.702 36.8739 425.562 36.8739C422.422 36.8739 419.876 39.4196 419.876 42.5599C419.876 45.7001 422.422 48.2458 425.562 48.2458Z" stroke="#F5B91B" stroke-width="0.270624"/>
<path d="M445.166 48.2456C448.307 48.2456 450.852 45.6999 450.852 42.5597C450.852 39.4195 448.307 36.8737 445.166 36.8737C442.026 36.8737 439.481 39.4195 439.481 42.5597C439.481 45.6999 442.026 48.2456 445.166 48.2456Z" stroke="#F5B91B" stroke-width="0.270624"/>
<path d="M464.757 48.2458C467.898 48.2458 470.443 45.7001 470.443 42.5599C470.443 39.4196 467.898 36.8739 464.757 36.8739C461.617 36.8739 459.072 39.4196 459.072 42.5599C459.072 45.7001 461.617 48.2458 464.757 48.2458Z" stroke="#F5B91B" stroke-width="0.270624"/>
<path d="M484.362 48.2456C487.502 48.2456 490.048 45.6999 490.048 42.5597C490.048 39.4195 487.502 36.8737 484.362 36.8737C481.222 36.8737 478.676 39.4195 478.676 42.5597C478.676 45.6999 481.222 48.2456 484.362 48.2456Z" stroke="#F5B91B" stroke-width="0.270624"/>
<path d="M503.966 48.2456C507.106 48.2456 509.652 45.6999 509.652 42.5597C509.652 39.4195 507.106 36.8737 503.966 36.8737C500.825 36.8737 498.28 39.4195 498.28 42.5597C498.28 45.6999 500.825 48.2456 503.966 48.2456Z" stroke="#F5B91B" stroke-width="0.270624"/>
<path d="M523.566 48.2458C526.706 48.2458 529.252 45.7001 529.252 42.5599C529.252 39.4196 526.706 36.8739 523.566 36.8739C520.426 36.8739 517.88 39.4196 517.88 42.5599C517.88 45.7001 520.426 48.2458 523.566 48.2458Z" stroke="#F5B91B" stroke-width="0.270624"/>
<path d="M543.171 48.2456C546.311 48.2456 548.856 45.6999 548.856 42.5597C548.856 39.4195 546.311 36.8737 543.171 36.8737C540.03 36.8737 537.485 39.4195 537.485 42.5597C537.485 45.6999 540.03 48.2456 543.171 48.2456Z" stroke="#F5B91B" stroke-width="0.270624"/>
<path d="M562.774 48.2456C565.915 48.2456 568.46 45.6999 568.46 42.5597C568.46 39.4195 565.915 36.8737 562.774 36.8737C559.634 36.8737 557.088 39.4195 557.088 42.5597C557.088 45.6999 559.634 48.2456 562.774 48.2456Z" stroke="#F5B91B" stroke-width="0.270624"/>
<path d="M582.374 48.2458C585.515 48.2458 588.06 45.7001 588.06 42.5599C588.06 39.4196 585.515 36.8739 582.374 36.8739C579.234 36.8739 576.689 39.4196 576.689 42.5599C576.689 45.7001 579.234 48.2458 582.374 48.2458Z" stroke="#F5B91B" stroke-width="0.270624"/>
<path d="M601.979 48.2456C605.119 48.2456 607.665 45.6999 607.665 42.5597C607.665 39.4195 605.119 36.8737 601.979 36.8737C598.839 36.8737 596.293 39.4195 596.293 42.5597C596.293 45.6999 598.839 48.2456 601.979 48.2456Z" stroke="#F5B91B" stroke-width="0.270624"/>
<path d="M621.583 48.2456C624.723 48.2456 627.269 45.7 627.269 42.5598C627.269 39.4195 624.723 36.8738 621.583 36.8738C618.443 36.8738 615.897 39.4195 615.897 42.5598C615.897 45.7 618.443 48.2456 621.583 48.2456Z" stroke="#F5B91B" stroke-width="0.270624"/>
<path d="M641.188 48.2456C644.328 48.2456 646.874 45.7 646.874 42.5598C646.874 39.4195 644.328 36.8738 641.188 36.8738C638.047 36.8738 635.502 39.4195 635.502 42.5598C635.502 45.7 638.047 48.2456 641.188 48.2456Z" stroke="#F5B91B" stroke-width="0.270624"/>
<path d="M660.788 48.2456C663.928 48.2456 666.473 45.7 666.473 42.5598C666.473 39.4195 663.928 36.8738 660.788 36.8738C657.647 36.8738 655.102 39.4195 655.102 42.5598C655.102 45.7 657.647 48.2456 660.788 48.2456Z" stroke="#F5B91B" stroke-width="0.270624"/>
<path d="M680.392 48.2456C683.532 48.2456 686.077 45.7 686.077 42.5598C686.077 39.4195 683.532 36.8738 680.392 36.8738C677.251 36.8738 674.706 39.4195 674.706 42.5598C674.706 45.7 677.251 48.2456 680.392 48.2456Z" stroke="#F5B91B" stroke-width="0.270624"/>
<path d="M699.996 48.2456C703.137 48.2456 705.682 45.7 705.682 42.5598C705.682 39.4195 703.137 36.8738 699.996 36.8738C696.856 36.8738 694.31 39.4195 694.31 42.5598C694.31 45.7 696.856 48.2456 699.996 48.2456Z" stroke="#F5B91B" stroke-width="0.270624"/>
<path d="M719.587 48.2456C722.727 48.2456 725.273 45.7 725.273 42.5598C725.273 39.4195 722.727 36.8738 719.587 36.8738C716.447 36.8738 713.901 39.4195 713.901 42.5598C713.901 45.7 716.447 48.2456 719.587 48.2456Z" stroke="#F5B91B" stroke-width="0.270624"/>
<path d="M739.2 48.2456C742.34 48.2456 744.886 45.7 744.886 42.5598C744.886 39.4195 742.34 36.8738 739.2 36.8738C736.06 36.8738 733.514 39.4195 733.514 42.5598C733.514 45.7 736.06 48.2456 739.2 48.2456Z" stroke="#F5B91B" stroke-width="0.270624"/>
<path d="M758.805 48.2456C761.945 48.2456 764.491 45.7 764.491 42.5598C764.491 39.4195 761.945 36.8738 758.805 36.8738C755.665 36.8738 753.119 39.4195 753.119 42.5598C753.119 45.7 755.665 48.2456 758.805 48.2456Z" stroke="#F5B91B" stroke-width="0.270624"/>
<path d="M778.395 48.2456C781.536 48.2456 784.081 45.7 784.081 42.5598C784.081 39.4195 781.536 36.8738 778.395 36.8738C775.255 36.8738 772.71 39.4195 772.71 42.5598C772.71 45.7 775.255 48.2456 778.395 48.2456Z" stroke="#F5B91B" stroke-width="0.270624"/>
<path d="M798.009 48.2456C801.149 48.2456 803.695 45.7 803.695 42.5598C803.695 39.4195 801.149 36.8738 798.009 36.8738C794.869 36.8738 792.323 39.4195 792.323 42.5598C792.323 45.7 794.869 48.2456 798.009 48.2456Z" stroke="#F5B91B" stroke-width="0.270624"/>
<path d="M798.009 28.6436C801.149 28.6436 803.695 26.098 803.695 22.9577C803.695 19.8175 801.149 17.2719 798.009 17.2719C794.869 17.2719 792.323 19.8175 792.323 22.9577C792.323 26.098 794.869 28.6436 798.009 28.6436Z" stroke="#F5B91B" stroke-width="0.270624"/>
<path d="M778.395 28.6436C781.536 28.6436 784.081 26.098 784.081 22.9577C784.081 19.8175 781.536 17.2719 778.395 17.2719C775.255 17.2719 772.71 19.8175 772.71 22.9577C772.71 26.098 775.255 28.6436 778.395 28.6436Z" stroke="#F5B91B" stroke-width="0.270624"/>
<path d="M758.805 28.6436C761.945 28.6436 764.491 26.098 764.491 22.9577C764.491 19.8175 761.945 17.2719 758.805 17.2719C755.665 17.2719 753.119 19.8175 753.119 22.9577C753.119 26.098 755.665 28.6436 758.805 28.6436Z" stroke="#F5B91B" stroke-width="0.270624"/>
<path d="M739.2 28.6436C742.34 28.6436 744.886 26.098 744.886 22.9577C744.886 19.8175 742.34 17.2719 739.2 17.2719C736.06 17.2719 733.514 19.8175 733.514 22.9577C733.514 26.098 736.06 28.6436 739.2 28.6436Z" stroke="#F5B91B" stroke-width="0.270624"/>
<path d="M719.587 28.6436C722.727 28.6436 725.273 26.098 725.273 22.9577C725.273 19.8175 722.727 17.2719 719.587 17.2719C716.447 17.2719 713.901 19.8175 713.901 22.9577C713.901 26.098 716.447 28.6436 719.587 28.6436Z" stroke="#F5B91B" stroke-width="0.270624"/>
<path d="M699.996 28.6436C703.137 28.6436 705.682 26.098 705.682 22.9577C705.682 19.8175 703.137 17.2719 699.996 17.2719C696.856 17.2719 694.31 19.8175 694.31 22.9577C694.31 26.098 696.856 28.6436 699.996 28.6436Z" stroke="#F5B91B" stroke-width="0.270624"/>
<path d="M680.392 28.6436C683.532 28.6436 686.077 26.098 686.077 22.9577C686.077 19.8175 683.532 17.2719 680.392 17.2719C677.251 17.2719 674.706 19.8175 674.706 22.9577C674.706 26.098 677.251 28.6436 680.392 28.6436Z" stroke="#F5B91B" stroke-width="0.270624"/>
<path d="M660.788 28.6436C663.928 28.6436 666.473 26.098 666.473 22.9577C666.473 19.8175 663.928 17.2719 660.788 17.2719C657.647 17.2719 655.102 19.8175 655.102 22.9577C655.102 26.098 657.647 28.6436 660.788 28.6436Z" stroke="#F5B91B" stroke-width="0.270624"/>
<path d="M641.188 28.6436C644.328 28.6436 646.874 26.098 646.874 22.9577C646.874 19.8175 644.328 17.2719 641.188 17.2719C638.047 17.2719 635.502 19.8175 635.502 22.9577C635.502 26.098 638.047 28.6436 641.188 28.6436Z" stroke="#F5B91B" stroke-width="0.270624"/>
<path d="M621.583 28.6436C624.723 28.6436 627.269 26.098 627.269 22.9577C627.269 19.8175 624.723 17.2719 621.583 17.2719C618.443 17.2719 615.897 19.8175 615.897 22.9577C615.897 26.098 618.443 28.6436 621.583 28.6436Z" stroke="#F5B91B" stroke-width="0.270624"/>
<path d="M601.979 28.6436C605.119 28.6436 607.665 26.0979 607.665 22.9577C607.665 19.8174 605.119 17.2718 601.979 17.2718C598.839 17.2718 596.293 19.8174 596.293 22.9577C596.293 26.0979 598.839 28.6436 601.979 28.6436Z" stroke="#F5B91B" stroke-width="0.270624"/>
<path d="M582.374 28.6436C585.515 28.6436 588.06 26.0979 588.06 22.9577C588.06 19.8174 585.515 17.2718 582.374 17.2718C579.234 17.2718 576.689 19.8174 576.689 22.9577C576.689 26.0979 579.234 28.6436 582.374 28.6436Z" stroke="#F5B91B" stroke-width="0.270624"/>
<path d="M562.774 28.6436C565.915 28.6436 568.46 26.0979 568.46 22.9577C568.46 19.8174 565.915 17.2718 562.774 17.2718C559.634 17.2718 557.088 19.8174 557.088 22.9577C557.088 26.0979 559.634 28.6436 562.774 28.6436Z" stroke="#F5B91B" stroke-width="0.270624"/>
<path d="M543.171 28.6436C546.311 28.6436 548.856 26.0979 548.856 22.9577C548.856 19.8174 546.311 17.2718 543.171 17.2718C540.03 17.2718 537.485 19.8174 537.485 22.9577C537.485 26.0979 540.03 28.6436 543.171 28.6436Z" stroke="#F5B91B" stroke-width="0.270624"/>
<path d="M523.566 28.6436C526.706 28.6436 529.252 26.0979 529.252 22.9577C529.252 19.8174 526.706 17.2718 523.566 17.2718C520.426 17.2718 517.88 19.8174 517.88 22.9577C517.88 26.0979 520.426 28.6436 523.566 28.6436Z" stroke="#F5B91B" stroke-width="0.270624"/>
<path d="M503.966 28.6436C507.106 28.6436 509.652 26.0979 509.652 22.9577C509.652 19.8174 507.106 17.2718 503.966 17.2718C500.825 17.2718 498.28 19.8174 498.28 22.9577C498.28 26.0979 500.825 28.6436 503.966 28.6436Z" stroke="#F5B91B" stroke-width="0.270624"/>
<path d="M484.362 28.6436C487.502 28.6436 490.048 26.0979 490.048 22.9577C490.048 19.8174 487.502 17.2718 484.362 17.2718C481.222 17.2718 478.676 19.8174 478.676 22.9577C478.676 26.0979 481.222 28.6436 484.362 28.6436Z" stroke="#F5B91B" stroke-width="0.270624"/>
<path d="M464.757 28.6436C467.898 28.6436 470.443 26.0979 470.443 22.9577C470.443 19.8174 467.898 17.2718 464.757 17.2718C461.617 17.2718 459.072 19.8174 459.072 22.9577C459.072 26.0979 461.617 28.6436 464.757 28.6436Z" stroke="#F5B91B" stroke-width="0.270624"/>
<path d="M445.166 28.6436C448.307 28.6436 450.852 26.0979 450.852 22.9577C450.852 19.8174 448.307 17.2718 445.166 17.2718C442.026 17.2718 439.481 19.8174 439.481 22.9577C439.481 26.0979 442.026 28.6436 445.166 28.6436Z" stroke="#F5B91B" stroke-width="0.270624"/>
<path d="M425.562 28.6436C428.702 28.6436 431.248 26.0979 431.248 22.9577C431.248 19.8174 428.702 17.2718 425.562 17.2718C422.422 17.2718 419.876 19.8174 419.876 22.9577C419.876 26.0979 422.422 28.6436 425.562 28.6436Z" stroke="#F5B91B" stroke-width="0.270624"/>
<path d="M435.601 32.4563V17.9918L431.346 13.881H420.263L415.998 17.9918V32.4563" fill="#BE3836"/>
<path d="M435.601 32.4563V46.9208L431.346 51.0316H420.263L415.998 46.9208V32.4563" fill="#EFEA3C"/>
<path d="M455.206 32.4563V17.9918L450.951 13.881H439.867L435.603 17.9918V32.4563" fill="#BE3836"/>
<path d="M455.206 32.4564V46.9208L450.951 51.0316H439.867L435.603 46.9208V32.4564" fill="#69BE87"/>
<path d="M474.805 32.4563V17.9918L470.55 13.881H459.467L455.202 17.9918V32.4563" fill="#404041"/>
<path d="M474.805 32.4564V46.9208L470.55 51.0316H459.467L455.202 46.9208V32.4564" fill="#69BE87"/>
<path d="M494.401 32.4563V17.9918L490.147 13.881H479.063L474.798 17.9918V32.4563" fill="#69BE87"/>
<path d="M494.401 32.4564V46.9208L490.147 51.0316H479.063L474.798 46.9208V32.4564" fill="#69BE87"/>
<path d="M514.005 32.4563V17.9918L509.75 13.881H498.667L494.402 17.9918V32.4563" fill="#69BE87"/>
<path d="M514.005 32.4564V46.9208L509.75 51.0316H498.667L494.402 46.9208V32.4564" fill="#404041"/>
<path d="M533.605 32.4563V17.9918L529.35 13.881H518.267L514.002 17.9918V32.4563" fill="#69BE87"/>
<path d="M533.605 32.4564V46.9208L529.35 51.0316H518.267L514.002 46.9208V32.4564" fill="#69BE87"/>
<path d="M553.201 32.4563V17.9918L548.946 13.881H537.862L533.598 17.9918V32.4563" fill="#404041"/>
<path d="M553.201 32.4564V46.9208L548.946 51.0316H537.862L533.598 46.9208V32.4564" fill="#69BE87"/>
<path d="M572.805 32.4563V17.9918L568.55 13.881H557.467L553.202 17.9918V32.4563" fill="#69BE87"/>
<path d="M572.805 32.4564V46.9208L568.55 51.0316H557.467L553.202 46.9208V32.4564" fill="#69BE87"/>
<path d="M592.396 32.4563V17.9918L588.141 13.881H577.057L572.793 17.9918V32.4563" fill="#69BE87"/>
<path d="M592.396 32.4564V46.9208L588.141 51.0316H577.057L572.793 46.9208V32.4564" fill="#EFEA3C"/>
<path d="M612 32.4563V17.9918L607.746 13.881H596.662L592.398 17.9918V32.4563" fill="#404041"/>
<path d="M612 32.4564V46.9208L607.746 51.0316H596.662L592.398 46.9208V32.4564" fill="#69BE87"/>
<path d="M631.601 32.4563V17.9919L627.346 13.8811H616.262L611.998 17.9919V32.4563" fill="#69BE87"/>
<path d="M631.601 32.4564V46.9209L627.346 51.0317H616.262L611.998 46.9209V32.4564" fill="#69BE87"/>
<path d="M651.196 32.4563V17.9919L646.941 13.8811H635.858L631.593 17.9919V32.4563" fill="#69BE87"/>
<path d="M651.196 32.4564V46.9208L646.941 51.0316H635.858L631.593 46.9208V32.4564" fill="#69BE87"/>
<path d="M670.796 32.4563V17.9919L666.541 13.8811H655.457L651.193 17.9919V32.4563" fill="#69BE87"/>
<path d="M670.796 32.4564V46.9208L666.541 51.0316H655.457L651.193 46.9208V32.4564" fill="#404041"/>
<path d="M690.4 32.4563V17.9919L686.145 13.8811H675.061L670.797 17.9919V32.4563" fill="#4DC0E6"/>
<path d="M690.4 32.4564V46.9209L686.145 51.0317H675.061L670.797 46.9209V32.4564" fill="#4DC0E6"/>
<path d="M709.996 32.4564V46.9209L705.741 51.0317H694.657L690.393 46.9209V32.4564" fill="#69BE87"/>
<path d="M729.595 32.4563V17.9919L725.34 13.8811H714.257L709.992 17.9919V32.4563" fill="#69BE87"/>
<path d="M729.595 32.4564V46.9209L725.34 51.0317H714.257L709.992 46.9209V32.4564" fill="#69BE87"/>
<path d="M749.2 32.4563V17.9919L744.945 13.8811H733.862L729.597 17.9919V32.4563" fill="#404041"/>
<path d="M749.2 32.4564V46.9208L744.945 51.0316H733.862L729.597 46.9208V32.4564" fill="#69BE87"/>
<path d="M768.791 32.4563V17.9919L764.537 13.8811H753.453L749.189 17.9919V32.4563" fill="#69BE87"/>
<path d="M768.791 32.4564V46.9209L764.537 51.0317H753.453L749.189 46.9209V32.4564" fill="#69BE87"/>
<path d="M788.396 32.4563V17.9919L784.141 13.8811H773.057L768.793 17.9919V32.4563" fill="#69BE87"/>
<path d="M788.396 32.4564V46.9209L784.141 51.0317H773.057L768.793 46.9209V32.4564" fill="#69BE87"/>
<path d="M808 32.4563V17.9919L803.745 13.8811H792.661L788.397 17.9919V32.4563" fill="#69BE87"/>
<path d="M808 32.4564V46.9209L803.745 51.0317H792.661L788.397 46.9209V32.4564" fill="#404041"/>
<path d="M427.198 21.1986H423.98V24.4161H427.198V21.1986Z" fill="#8B8562"/>
<path d="M423.982 21.2084L422.454 19.6812V25.9338L423.982 24.4163V21.2084Z" fill="#B6AD81"/>
<path d="M422.454 19.6812H428.717L427.199 21.2084H423.982L422.454 19.6812Z" fill="#7F785B"/>
<path d="M428.717 19.6814V25.934L427.199 24.4165V21.2086L428.717 19.6814Z" fill="#5E5B43"/>
<path d="M428.717 25.9352H422.454L423.982 24.4177H427.199L428.717 25.9352Z" fill="#988F6B"/>
<path d="M427.198 40.7742H423.98V43.9918H427.198V40.7742Z" fill="#8B8562"/>
<path d="M423.982 40.7748L422.454 39.2573V45.5099L423.982 43.9827V40.7748Z" fill="#B6AD81"/>
<path d="M422.454 39.2573H428.717L427.199 40.7748H423.982L422.454 39.2573Z" fill="#7F785B"/>
<path d="M428.717 39.2572V45.5098L427.199 43.9826V40.7747L428.717 39.2572Z" fill="#5E5B43"/>
<path d="M423.982 43.9825H427.199L428.717 45.5097H422.454L423.982 43.9825Z" fill="#988F6B"/>
<path d="M446.796 21.1989H443.579V24.4165H446.796V21.1989Z" fill="#8B8562"/>
<path d="M442.061 19.6816V25.9342L443.579 24.4167V21.2088L442.061 19.6816Z" fill="#B6AD81"/>
<path d="M448.314 19.6816L446.796 21.2088H443.579L442.061 19.6816H448.314Z" fill="#7F785B"/>
<path d="M448.315 25.9342L446.797 24.4167V21.2088L448.315 19.6816V25.9342Z" fill="#5E5B43"/>
<path d="M442.061 25.9331L443.579 24.4156H446.796L448.314 25.9331H442.061Z" fill="#988F6B"/>
<path d="M446.796 40.7723H443.579V43.9899H446.796V40.7723Z" fill="#8B8562"/>
<path d="M442.061 39.2552V45.5077L443.579 43.9806V40.7726L442.061 39.2552Z" fill="#B6AD81"/>
<path d="M448.314 39.2552L446.796 40.7726H443.579L442.061 39.2552H448.314Z" fill="#7F785B"/>
<path d="M448.315 45.5077L446.797 43.9806V40.7726L448.315 39.2552V45.5077Z" fill="#5E5B43"/>
<path d="M446.796 43.9803L448.314 45.5075H442.061L443.579 43.9803H446.796Z" fill="#988F6B"/>
<path d="M466.399 21.1989H463.182V24.4165H466.399V21.1989Z" fill="#8B8562"/>
<path d="M463.182 21.2088L461.664 19.6816V25.9342L463.182 24.4167V21.2088Z" fill="#B6AD81"/>
<path d="M461.664 19.6816H467.917L466.399 21.2088H463.182L461.664 19.6816Z" fill="#7F785B"/>
<path d="M467.918 19.6816V25.9342L466.4 24.4167V21.2088L467.918 19.6816Z" fill="#5E5B43"/>
<path d="M467.917 25.9331H461.664L463.182 24.4156H466.399L467.917 25.9331Z" fill="#988F6B"/>
<path d="M466.399 40.7723H463.182V43.9899H466.399V40.7723Z" fill="#8B8562"/>
<path d="M463.182 40.7726L461.664 39.2552V45.5077L463.182 43.9806V40.7726Z" fill="#B6AD81"/>
<path d="M461.664 39.2552H467.917L466.399 40.7726H463.182L461.664 39.2552Z" fill="#7F785B"/>
<path d="M467.918 39.2552V45.5077L466.4 43.9806V40.7726L467.918 39.2552Z" fill="#5E5B43"/>
<path d="M463.182 43.9803H466.399L467.917 45.5075H461.664L463.182 43.9803Z" fill="#988F6B"/>
<path d="M486.008 21.1989H482.79V24.4165H486.008V21.1989Z" fill="#8B8562"/>
<path d="M481.273 19.6816V25.9342L482.791 24.4167V21.2088L481.273 19.6816Z" fill="#B6AD81"/>
<path d="M487.526 19.6816L486.008 21.2088H482.791L481.273 19.6816H487.526Z" fill="#7F785B"/>
<path d="M487.527 25.9342L486.009 24.4167V21.2088L487.527 19.6816V25.9342Z" fill="#5E5B43"/>
<path d="M481.273 25.9331L482.791 24.4156H486.008L487.526 25.9331H481.273Z" fill="#988F6B"/>
<path d="M486.008 40.7723H482.79V43.9899H486.008V40.7723Z" fill="#8B8562"/>
<path d="M481.273 39.2552V45.5077L482.791 43.9806V40.7726L481.273 39.2552Z" fill="#B6AD81"/>
<path d="M487.526 39.2552L486.008 40.7726H482.791L481.273 39.2552H487.526Z" fill="#7F785B"/>
<path d="M487.527 45.5077L486.009 43.9806V40.7726L487.527 39.2552V45.5077Z" fill="#5E5B43"/>
<path d="M486.008 43.9803L487.526 45.5075H481.273L482.791 43.9803H486.008Z" fill="#988F6B"/>
<path d="M505.61 21.1989H502.393V24.4165H505.61V21.1989Z" fill="#8B8562"/>
<path d="M502.393 21.2088L500.875 19.6816V25.9342L502.393 24.4167V21.2088Z" fill="#B6AD81"/>
<path d="M500.875 19.6816H507.128L505.61 21.2088H502.393L500.875 19.6816Z" fill="#7F785B"/>
<path d="M507.129 19.6816V25.9342L505.611 24.4167V21.2088L507.129 19.6816Z" fill="#5E5B43"/>
<path d="M507.128 25.9331H500.875L502.393 24.4156H505.61L507.128 25.9331Z" fill="#988F6B"/>
<path d="M505.61 40.7723H502.393V43.9899H505.61V40.7723Z" fill="#8B8562"/>
<path d="M502.393 40.7726L500.875 39.2552V45.5077L502.393 43.9806V40.7726Z" fill="#B6AD81"/>
<path d="M500.875 39.2552H507.128L505.61 40.7726H502.393L500.875 39.2552Z" fill="#7F785B"/>
<path d="M507.129 39.2552V45.5077L505.611 43.9806V40.7726L507.129 39.2552Z" fill="#5E5B43"/>
<path d="M502.393 43.9803H505.61L507.128 45.5075H500.875L502.393 43.9803Z" fill="#988F6B"/>
<path d="M525.213 21.1988H521.996V24.4163H525.213V21.1988Z" fill="#8B8562"/>
<path d="M521.997 21.2088L520.47 19.6816V25.9342L521.997 24.4167V21.2088Z" fill="#B6AD81"/>
<path d="M520.47 19.6816H526.732L525.214 21.2088H521.997L520.47 19.6816Z" fill="#7F785B"/>
<path d="M526.733 19.6816V25.9342L525.215 24.4167V21.2088L526.733 19.6816Z" fill="#5E5B43"/>
<path d="M526.732 25.9331H520.47L521.997 24.4156H525.214L526.732 25.9331Z" fill="#988F6B"/>
<path d="M525.213 40.7723H521.996V43.9899H525.213V40.7723Z" fill="#8B8562"/>
<path d="M521.997 40.7726L520.47 39.2552V45.5077L521.997 43.9806V40.7726Z" fill="#B6AD81"/>
<path d="M520.47 39.2552H526.732L525.214 40.7726H521.997L520.47 39.2552Z" fill="#7F785B"/>
<path d="M526.733 39.2553V45.5079L525.215 43.9808V40.7728L526.733 39.2553Z" fill="#5E5B43"/>
<path d="M521.997 43.9803H525.214L526.732 45.5075H520.47L521.997 43.9803Z" fill="#988F6B"/>
<path d="M544.813 21.1989H541.595V24.4165H544.813V21.1989Z" fill="#8B8562"/>
<path d="M541.595 21.2088L540.078 19.6816V25.9342L541.595 24.4167V21.2088Z" fill="#B6AD81"/>
<path d="M540.078 19.6816H546.33L544.813 21.2088H541.595L540.078 19.6816Z" fill="#7F785B"/>
<path d="M546.331 19.6816V25.9342L544.814 24.4167V21.2088L546.331 19.6816Z" fill="#5E5B43"/>
<path d="M546.33 25.9331H540.078L541.595 24.4156H544.813L546.33 25.9331Z" fill="#988F6B"/>
<path d="M544.813 40.7723H541.595V43.9899H544.813V40.7723Z" fill="#8B8562"/>
<path d="M541.595 40.7726L540.078 39.2552V45.5077L541.595 43.9806V40.7726Z" fill="#B6AD81"/>
<path d="M540.078 39.2552H546.33L544.813 40.7726H541.595L540.078 39.2552Z" fill="#7F785B"/>
<path d="M546.331 39.2552V45.5077L544.814 43.9806V40.7726L546.331 39.2552Z" fill="#5E5B43"/>
<path d="M541.595 43.9803H544.813L546.33 45.5075H540.078L541.595 43.9803Z" fill="#988F6B"/>
<path d="M564.421 21.1989H561.203V24.4165H564.421V21.1989Z" fill="#8B8562"/>
<path d="M561.204 21.2088L559.686 19.6816V25.9342L561.204 24.4167V21.2088Z" fill="#B6AD81"/>
<path d="M559.686 19.6816H565.939L564.421 21.2088H561.204L559.686 19.6816Z" fill="#7F785B"/>
<path d="M565.94 19.6816V25.9342L564.422 24.4167V21.2088L565.94 19.6816Z" fill="#5E5B43"/>
<path d="M565.939 25.9331H559.686L561.204 24.4156H564.421L565.939 25.9331Z" fill="#988F6B"/>
<path d="M564.421 40.7723H561.203V43.9899H564.421V40.7723Z" fill="#8B8562"/>
<path d="M561.204 40.7726L559.686 39.2552V45.5077L561.204 43.9806V40.7726Z" fill="#B6AD81"/>
<path d="M559.686 39.2552H565.939L564.421 40.7726H561.204L559.686 39.2552Z" fill="#7F785B"/>
<path d="M565.94 39.2552V45.5077L564.422 43.9806V40.7726L565.94 39.2552Z" fill="#5E5B43"/>
<path d="M561.204 43.9803H564.421L565.939 45.5075H559.686L561.204 43.9803Z" fill="#988F6B"/>
<path d="M584.021 21.1989H580.804V24.4165H584.021V21.1989Z" fill="#8B8562"/>
<path d="M580.804 21.2088L579.286 19.6816V25.9342L580.804 24.4167V21.2088Z" fill="#B6AD81"/>
<path d="M579.286 19.6816H585.539L584.021 21.2088H580.804L579.286 19.6816Z" fill="#7F785B"/>
<path d="M585.54 19.6816V25.9342L584.022 24.4167V21.2088L585.54 19.6816Z" fill="#5E5B43"/>
<path d="M585.539 25.9331H579.286L580.804 24.4156H584.021L585.539 25.9331Z" fill="#988F6B"/>
<path d="M584.021 40.7723H580.804V43.9899H584.021V40.7723Z" fill="#8B8562"/>
<path d="M580.804 40.7726L579.286 39.2552V45.5077L580.804 43.9806V40.7726Z" fill="#B6AD81"/>
<path d="M579.286 39.2552H585.539L584.021 40.7726H580.804L579.286 39.2552Z" fill="#7F785B"/>
<path d="M585.54 39.2552V45.5077L584.022 43.9806V40.7726L585.54 39.2552Z" fill="#5E5B43"/>
<path d="M580.804 43.9803H584.021L585.539 45.5075H579.286L580.804 43.9803Z" fill="#988F6B"/>
<path d="M603.623 21.1987H600.406V24.4163H603.623V21.1987Z" fill="#8B8562"/>
<path d="M600.406 21.2086L598.888 19.6814V25.934L600.406 24.4165V21.2086Z" fill="#B6AD81"/>
<path d="M598.888 19.6814H605.141L603.624 21.2086H600.406L598.888 19.6814Z" fill="#7F785B"/>
<path d="M605.142 19.6816V25.9342L603.625 24.4167V21.2087L605.142 19.6816Z" fill="#5E5B43"/>
<path d="M605.141 25.9331H598.888L600.406 24.4156H603.624L605.141 25.9331Z" fill="#988F6B"/>
<path d="M603.623 40.7725H600.406V43.99H603.623V40.7725Z" fill="#8B8562"/>
<path d="M600.406 40.7726L598.888 39.2551V45.5077L600.406 43.9806V40.7726Z" fill="#B6AD81"/>
<path d="M598.888 39.2551H605.141L603.624 40.7726H600.406L598.888 39.2551Z" fill="#7F785B"/>
<path d="M605.142 39.2551V45.5077L603.625 43.9806V40.7726L605.142 39.2551Z" fill="#5E5B43"/>
<path d="M600.406 43.9803H603.624L605.141 45.5075H598.888L600.406 43.9803Z" fill="#988F6B"/>
<path d="M623.229 21.1988H620.012V24.4163H623.229V21.1988Z" fill="#8B8562"/>
<path d="M618.486 25.9342L620.013 24.4167V21.2088L618.486 19.6816V25.9342Z" fill="#B6AD81"/>
<path d="M623.23 21.2088H620.013L618.486 19.6816H624.748L623.23 21.2088Z" fill="#7F785B"/>
<path d="M623.231 24.4167V21.2088L624.749 19.6816V25.9342L623.231 24.4167Z" fill="#5E5B43"/>
<path d="M620.013 24.4156H623.23L624.748 25.9331H618.486L620.013 24.4156Z" fill="#988F6B"/>
<path d="M623.229 40.7723H620.012V43.9899H623.229V40.7723Z" fill="#8B8562"/>
<path d="M618.486 45.5077L620.013 43.9806V40.7726L618.486 39.2552V45.5077Z" fill="#B6AD81"/>
<path d="M623.23 40.7726H620.013L618.486 39.2552H624.748L623.23 40.7726Z" fill="#7F785B"/>
<path d="M623.231 43.9808V40.7728L624.749 39.2553V45.5079L623.231 43.9808Z" fill="#5E5B43"/>
<path d="M624.748 45.5075H618.486L620.013 43.9803H623.23L624.748 45.5075Z" fill="#988F6B"/>
<path d="M642.826 21.199H639.608V24.4165H642.826V21.199Z" fill="#8B8562"/>
<path d="M639.608 21.2088L638.091 19.6817V25.9342L639.608 24.4167V21.2088Z" fill="#B6AD81"/>
<path d="M638.091 19.6817H644.343L642.826 21.2088H639.608L638.091 19.6817Z" fill="#7F785B"/>
<path d="M644.345 19.6816V25.9342L642.827 24.4167V21.2088L644.345 19.6816Z" fill="#5E5B43"/>
<path d="M644.343 25.9331H638.091L639.608 24.4156H642.826L644.343 25.9331Z" fill="#988F6B"/>
<path d="M642.826 40.7723H639.608V43.9899H642.826V40.7723Z" fill="#8B8562"/>
<path d="M639.608 40.7727L638.091 39.2552V45.5078L639.608 43.9806V40.7727Z" fill="#B6AD81"/>
<path d="M638.091 39.2552H644.343L642.826 40.7727H639.608L638.091 39.2552Z" fill="#7F785B"/>
<path d="M644.345 39.2552V45.5078L642.827 43.9806V40.7727L644.345 39.2552Z" fill="#5E5B43"/>
<path d="M639.608 43.9803H642.826L644.343 45.5075H638.091L639.608 43.9803Z" fill="#988F6B"/>
<path d="M662.434 21.199H659.217V24.4165H662.434V21.199Z" fill="#8B8562"/>
<path d="M659.217 21.2088L657.7 19.6817V25.9343L659.217 24.4167V21.2088Z" fill="#B6AD81"/>
<path d="M657.7 19.6817H663.952L662.435 21.2088H659.217L657.7 19.6817Z" fill="#7F785B"/>
<path d="M663.953 19.6817V25.9342L662.436 24.4167V21.2088L663.953 19.6817Z" fill="#5E5B43"/>
<path d="M663.952 25.9332H657.7L659.217 24.4156H662.435L663.952 25.9332Z" fill="#988F6B"/>
<path d="M662.434 40.7723H659.217V43.9899H662.434V40.7723Z" fill="#8B8562"/>
<path d="M659.217 40.7727L657.7 39.2552V45.5078L659.217 43.9807V40.7727Z" fill="#B6AD81"/>
<path d="M657.7 39.2552H663.952L662.435 40.7727H659.217L657.7 39.2552Z" fill="#7F785B"/>
<path d="M663.953 39.2552V45.5078L662.436 43.9807V40.7727L663.953 39.2552Z" fill="#5E5B43"/>
<path d="M659.217 43.9804H662.435L663.952 45.5075H657.7L659.217 43.9804Z" fill="#988F6B"/>
<path d="M682.036 21.1989H678.819V24.4165H682.036V21.1989Z" fill="#8B8562"/>
<path d="M678.819 21.2088L677.302 19.6816V25.9342L678.819 24.4167V21.2088Z" fill="#B6AD81"/>
<path d="M677.302 19.6816H683.554L682.037 21.2088H678.819L677.302 19.6816Z" fill="#7F785B"/>
<path d="M683.555 19.6816V25.9342L682.038 24.4167V21.2088L683.555 19.6816Z" fill="#5E5B43"/>
<path d="M683.554 25.9331H677.302L678.819 24.4156H682.037L683.554 25.9331Z" fill="#988F6B"/>
<path d="M682.036 40.7723H678.819V43.9899H682.036V40.7723Z" fill="#8B8562"/>
<path d="M678.819 40.7726L677.302 39.2552V45.5077L678.819 43.9806V40.7726Z" fill="#B6AD81"/>
<path d="M677.302 39.2552H683.554L682.037 40.7726H678.819L677.302 39.2552Z" fill="#7F785B"/>
<path d="M683.555 39.2552V45.5077L682.038 43.9806V40.7726L683.555 39.2552Z" fill="#5E5B43"/>
<path d="M678.819 43.9803H682.037L683.554 45.5075H677.302L678.819 43.9803Z" fill="#988F6B"/>
<path d="M709.997 32.4563V17.9919L705.742 13.8811H694.658L690.394 17.9919V32.4563" fill="#404041"/>
<path d="M701.641 21.1986H698.424V24.4161H701.641V21.1986Z" fill="#8B8562"/>
<path d="M696.907 19.6813V25.9338L698.424 24.4163V21.2084L696.907 19.6813Z" fill="#B6AD81"/>
<path d="M703.159 19.6813L701.642 21.2084H698.424L696.907 19.6813H703.159Z" fill="#7F785B"/>
<path d="M703.156 25.934L701.639 24.4165V21.2086L703.156 19.6815V25.934Z" fill="#5E5B43"/>
<path d="M696.907 25.9352L698.424 24.4177H701.642L703.159 25.9352H696.907Z" fill="#988F6B"/>
<path d="M701.641 40.7743H698.424V43.9919H701.641V40.7743Z" fill="#8B8562"/>
<path d="M698.424 40.7747L696.906 39.2572V45.5098L698.424 43.9826V40.7747Z" fill="#B6AD81"/>
<path d="M696.906 39.2572H703.159L701.641 40.7747H698.424L696.906 39.2572Z" fill="#7F785B"/>
<path d="M703.156 39.2573V45.5099L701.638 43.9828V40.7748L703.156 39.2573Z" fill="#5E5B43"/>
<path d="M698.424 43.9824H701.641L703.159 45.5096H696.906L698.424 43.9824Z" fill="#988F6B"/>
<path d="M721.242 21.1988H718.025V24.4164H721.242V21.1988Z" fill="#8B8562"/>
<path d="M718.026 21.2088L716.499 19.6817V25.9343L718.026 24.4167V21.2088Z" fill="#B6AD81"/>
<path d="M716.499 19.6817H722.761L721.243 21.2088H718.026L716.499 19.6817Z" fill="#7F785B"/>
<path d="M722.762 19.6817V25.9342L721.244 24.4167V21.2088L722.762 19.6817Z" fill="#5E5B43"/>
<path d="M722.761 25.9332H716.499L718.026 24.4156H721.243L722.761 25.9332Z" fill="#988F6B"/>
<path d="M721.242 40.7724H718.025V43.99H721.242V40.7724Z" fill="#8B8562"/>
<path d="M718.026 40.7727L716.499 39.2552V45.5078L718.026 43.9807V40.7727Z" fill="#B6AD81"/>
<path d="M716.499 39.2552H722.761L721.243 40.7727H718.026L716.499 39.2552Z" fill="#7F785B"/>
<path d="M722.762 39.2554V45.508L721.244 43.9808V40.7729L722.762 39.2554Z" fill="#5E5B43"/>
<path d="M718.026 43.9804H721.243L722.761 45.5075H716.499L718.026 43.9804Z" fill="#988F6B"/>
<path d="M740.838 21.199H737.621V24.4165H740.838V21.199Z" fill="#8B8562"/>
<path d="M737.621 21.2088L736.113 19.6817V25.9343L737.621 24.4167V21.2088Z" fill="#B6AD81"/>
<path d="M736.113 19.6817H742.365L740.848 21.2088H737.621L736.113 19.6817Z" fill="#7F785B"/>
<path d="M742.366 19.6817V25.9342L740.849 24.4167V21.2088L742.366 19.6817Z" fill="#5E5B43"/>
<path d="M742.365 25.9332H736.113L737.621 24.4156H740.848L742.365 25.9332Z" fill="#988F6B"/>
<path d="M740.838 40.7723H737.621V43.9899H740.838V40.7723Z" fill="#8B8562"/>
<path d="M737.621 40.7727L736.113 39.2552V45.5078L737.621 43.9807V40.7727Z" fill="#B6AD81"/>
<path d="M736.113 39.2552H742.365L740.848 40.7727H737.621L736.113 39.2552Z" fill="#7F785B"/>
<path d="M742.366 39.2552V45.5078L740.849 43.9807V40.7727L742.366 39.2552Z" fill="#5E5B43"/>
<path d="M737.621 43.9804H740.848L742.365 45.5075H736.113L737.621 43.9804Z" fill="#988F6B"/>
<path d="M760.444 21.1989H757.227V24.4164H760.444V21.1989Z" fill="#8B8562"/>
<path d="M757.228 21.2086L755.701 19.6815V25.934L757.228 24.4165V21.2086Z" fill="#B6AD81"/>
<path d="M755.701 19.6815H761.954L760.446 21.2086H757.228L755.701 19.6815Z" fill="#7F785B"/>
<path d="M761.954 19.6815V25.9341L760.446 24.4166V21.2086L761.954 19.6815Z" fill="#5E5B43"/>
<path d="M761.954 25.9332H755.701L757.228 24.4157H760.446L761.954 25.9332Z" fill="#988F6B"/>
<path d="M760.444 40.7724H757.227V43.9899H760.444V40.7724Z" fill="#8B8562"/>
<path d="M757.228 40.7727L755.701 39.2552V45.5078L757.228 43.9807V40.7727Z" fill="#B6AD81"/>
<path d="M755.701 39.2552H761.954L760.446 40.7727H757.228L755.701 39.2552Z" fill="#7F785B"/>
<path d="M761.954 39.2552V45.5078L760.446 43.9807V40.7727L761.954 39.2552Z" fill="#5E5B43"/>
<path d="M757.228 43.9804H760.446L761.954 45.5076H755.701L757.228 43.9804Z" fill="#988F6B"/>
<path d="M780.041 21.199H776.823V24.4165H780.041V21.199Z" fill="#8B8562"/>
<path d="M776.823 21.2088L775.315 19.6817V25.9343L776.823 24.4167V21.2088Z" fill="#B6AD81"/>
<path d="M775.315 19.6817H781.568L780.05 21.2088H776.823L775.315 19.6817Z" fill="#7F785B"/>
<path d="M781.569 19.6817V25.9342L780.051 24.4167V21.2088L781.569 19.6817Z" fill="#5E5B43"/>
<path d="M781.568 25.9332H775.315L776.823 24.4156H780.05L781.568 25.9332Z" fill="#988F6B"/>
<path d="M780.041 40.7723H776.823V43.9899H780.041V40.7723Z" fill="#8B8562"/>
<path d="M776.823 40.7727L775.315 39.2552V45.5078L776.823 43.9807V40.7727Z" fill="#B6AD81"/>
<path d="M775.315 39.2552H781.568L780.05 40.7727H776.823L775.315 39.2552Z" fill="#7F785B"/>
<path d="M781.569 39.2552V45.5078L780.051 43.9807V40.7727L781.569 39.2552Z" fill="#5E5B43"/>
<path d="M776.823 43.9804H780.05L781.568 45.5075H775.315L776.823 43.9804Z" fill="#988F6B"/>
<path d="M799.655 21.1988H796.438V24.4164H799.655V21.1988Z" fill="#8B8562"/>
<path d="M796.439 21.2088L794.912 19.6817V25.9343L796.439 24.4167V21.2088Z" fill="#B6AD81"/>
<path d="M794.912 19.6817H801.165L799.657 21.2088H796.439L794.912 19.6817Z" fill="#7F785B"/>
<path d="M801.165 19.6817V25.9342L799.657 24.4167V21.2088L801.165 19.6817Z" fill="#5E5B43"/>
<path d="M801.165 25.9332H794.912L796.439 24.4156H799.657L801.165 25.9332Z" fill="#988F6B"/>
<path d="M799.655 40.7724H796.438V43.99H799.655V40.7724Z" fill="#8B8562"/>
<path d="M796.439 40.7727L794.912 39.2552V45.5078L796.439 43.9807V40.7727Z" fill="#B6AD81"/>
<path d="M794.912 39.2552H801.165L799.657 40.7727H796.439L794.912 39.2552Z" fill="#7F785B"/>
<path d="M801.165 39.2554V45.508L799.657 43.9808V40.7729L801.165 39.2554Z" fill="#5E5B43"/>
<path d="M796.439 43.9804H799.657L801.165 45.5075H794.912L796.439 43.9804Z" fill="#988F6B"/>
</svg>
